<?xml version="1.0" encoding="UTF-8" standalone="no"?>
<svg width="530.931mm" height="63.5mm"
 xmlns="http://www.w3.org/2000/svg" xmlns:xlink="http://www.w3.org/1999/xlink"  version="1.2" baseProfile="tiny">
<title>Qt SVG Document</title>
<desc>Generated with Qt</desc>
<defs>
</defs>
<g fill="none" stroke="black" stroke-width="1" fill-rule="evenodd" stroke-linecap="square" stroke-linejoin="bevel" >

<g fill="none" stroke="#000000" stroke-opacity="1" stroke-width="1" stroke-linecap="square" stroke-linejoin="bevel" transform="matrix(1,0,0,1,0,0)"
font-family="Ubuntu" font-size="11" font-weight="400" font-style="normal" 
>
</g>

<g fill="none" stroke="#000000" stroke-opacity="1" stroke-width="1" stroke-linecap="square" stroke-linejoin="bevel" transform="matrix(1,0,0,1,0,0)"
font-family="Ubuntu" font-size="11" font-weight="400" font-style="normal" 
>
</g>

<g fill="none" stroke="#000000" stroke-opacity="1" stroke-width="1" stroke-linecap="square" stroke-linejoin="bevel" transform="matrix(2,0,0,2,-0.002,180)"
font-family="Ubuntu" font-size="11" font-weight="400" font-style="normal" 
>
</g>

<g fill="#ffffff" fill-opacity="1" stroke="none" transform="matrix(2,0,0,2,-0.002,180)"
font-family="Ubuntu" font-size="11" font-weight="400" font-style="normal" 
>
<rect x="0.001" y="-90" width="752.45" height="90"/>
</g>

<g fill="none" stroke="#000000" stroke-opacity="1" stroke-width="1" stroke-linecap="square" stroke-linejoin="bevel" transform="matrix(2,0,0,2,-0.002,180)"
font-family="Ubuntu" font-size="11" font-weight="400" font-style="normal" 
>
</g>

<g fill="none" stroke="#000000" stroke-opacity="1" stroke-width="1" stroke-linecap="square" stroke-linejoin="bevel" transform="matrix(2,0,0,2,-0.002,180)"
font-family="Ubuntu" font-size="11" font-weight="400" font-style="normal" 
>
</g>

<g fill="none" stroke="#000000" stroke-opacity="1" stroke-width="1" stroke-linecap="square" stroke-linejoin="bevel" transform="matrix(2,0,0,2,-0.002,180)"
font-family="Ubuntu" font-size="11" font-weight="400" font-style="normal" 
>
</g>

<g fill="none" stroke="#000000" stroke-opacity="1" stroke-width="1" stroke-linecap="square" stroke-linejoin="bevel" transform="matrix(2,0,0,2,-0.002,180)"
font-family="Ubuntu" font-size="11" font-weight="400" font-style="normal" 
>
</g>

<g fill="none" stroke="#000000" stroke-opacity="1" stroke-width="1" stroke-linecap="square" stroke-linejoin="round" transform="matrix(2,0,0,2,-0.002,180)"
font-family="Ubuntu" font-size="11" font-weight="400" font-style="normal" 
>
<ellipse cx="84.493" cy="-18" rx="83.992" ry="17.5"/>
</g>

<g fill="none" stroke="#000000" stroke-opacity="1" stroke-width="1" stroke-linecap="square" stroke-linejoin="bevel" transform="matrix(2,0,0,2,-0.002,180)"
font-family="Ubuntu" font-size="11" font-weight="400" font-style="normal" 
>
</g>

<g fill="none" stroke="#000000" stroke-opacity="1" stroke-width="1" stroke-linecap="square" stroke-linejoin="bevel" transform="matrix(2,0,0,2,80.9059,130)"
font-family="Ubuntu" font-size="11" font-weight="400" font-style="normal" 
>
</g>

<g fill="none" stroke="#000000" stroke-opacity="1" stroke-width="1" stroke-linecap="square" stroke-linejoin="bevel" transform="matrix(2,0,0,2,80.9059,130)"
font-family="sans" font-size="11" font-weight="100" font-style="normal" 
>
</g>

<g fill="#000000" fill-opacity="1" stroke="#000000" stroke-opacity="1" stroke-width="1" stroke-linecap="square" stroke-linejoin="round" transform="matrix(2,0,0,2,80.9059,130)"
font-family="sans" font-size="11" font-weight="100" font-style="normal" 
>
<path vector-effect="none" fill-rule="nonzero" d="M2.79688,2.98438 L3.70313,2.98438 L0.90625,12.0156 L0,12.0156 L2.79688,2.98438 M7.07813,5.67188 C6.54688,5.67188 6.1276,5.88021 5.82031,6.29688 C5.51302,6.71354 5.35938,7.28125 5.35938,8 C5.35938,8.71875 5.51042,9.28385 5.8125,9.69531 C6.11458,10.1068 6.53646,10.3125 7.07813,10.3125 C7.59896,10.3125 8.01302,10.1068 8.32031,9.69531 C8.6276,9.28385 8.78125,8.71875 8.78125,8 C8.78125,7.28125 8.6276,6.71354 8.32031,6.29688 C8.01302,5.88021 7.59896,5.67188 7.07813,5.67188 M7.07813,4.84375 C7.93229,4.84375 8.60417,5.1224 9.09375,5.67969 C9.58333,6.23698 9.82813,7.01042 9.82813,8 C9.82813,8.97917 9.58333,9.75 9.09375,10.3125 C8.60417,10.875 7.93229,11.1563 7.07813,11.1563 C6.21354,11.1563 5.53646,10.875 5.04688,10.3125 C4.55729,9.75 4.3125,8.97917 4.3125,8 C4.3125,7.01042 4.55729,6.23698 5.04688,5.67969 C5.53646,5.1224 6.21354,4.84375 7.07813,4.84375 M14.9375,5.90625 C14.8333,5.84375 14.7161,5.79688 14.5859,5.76563 C14.4557,5.73438 14.3125,5.71875 14.1563,5.71875 C13.5938,5.71875 13.1641,5.90104 12.8672,6.26563 C12.5703,6.63021 12.4219,7.15104 12.4219,7.82813 L12.4219,11 L11.4219,11 L11.4219,4.98438 L12.4219,4.98438 L12.4219,5.92188 C12.6198,5.55729 12.8854,5.28646 13.2188,5.10938 C13.5521,4.93229 13.9583,4.84375 14.4375,4.84375 C14.5104,4.84375 14.5859,4.84635 14.6641,4.85156 C14.7422,4.85677 14.8333,4.86979 14.9375,4.89063 L14.9375,5.90625 M19.9375,5.89063 L19.9375,2.64063 L20.9219,2.64063 L20.9219,11 L19.9375,11 L19.9375,10.0938 C19.7292,10.4583 19.4661,10.7266 19.1484,10.8984 C18.8307,11.0703 18.4479,11.1563 18,11.1563 C17.2813,11.1563 16.6927,10.8672 16.2344,10.2891 C15.776,9.71094 15.5469,8.94792 15.5469,8 C15.5469,7.05208 15.776,6.28906 16.2344,5.71094 C16.6927,5.13281 17.2813,4.84375 18,4.84375 C18.4479,4.84375 18.8307,4.92969 19.1484,5.10156 C19.4661,5.27344 19.7292,5.53646 19.9375,5.89063 M16.5625,8 C16.5625,8.72917 16.7135,9.29948 17.0156,9.71094 C17.3177,10.1224 17.7292,10.3281 18.25,10.3281 C18.7708,10.3281 19.1823,10.1224 19.4844,9.71094 C19.7865,9.29948 19.9375,8.72917 19.9375,8 C19.9375,7.27083 19.7865,6.70052 19.4844,6.28906 C19.1823,5.8776 18.7708,5.67188 18.25,5.67188 C17.7292,5.67188 17.3177,5.8776 17.0156,6.28906 C16.7135,6.70052 16.5625,7.27083 16.5625,8 M28.0938,7.75 L28.0938,8.23438 L23.5469,8.23438 C23.5885,8.91146 23.7917,9.42708 24.1563,9.78125 C24.5208,10.1354 25.0313,10.3125 25.6875,10.3125 C26.0729,10.3125 26.4427,10.2656 26.7969,10.1719 C27.151,10.0781 27.5052,9.94271 27.8594,9.76563 L27.8594,10.6875 C27.5052,10.8438 27.1406,10.9609 26.7656,11.0391 C26.3906,11.1172 26.0156,11.1563 25.6406,11.1563 C24.6719,11.1563 23.9089,10.8776 23.3516,10.3203 C22.7943,9.76302 22.5156,9.00521 22.5156,8.04688 C22.5156,7.06771 22.7813,6.28906 23.3125,5.71094 C23.8438,5.13281 24.5625,4.84375 25.4688,4.84375 C26.2708,4.84375 26.9089,5.10417 27.3828,5.625 C27.8568,6.14583 28.0938,6.85417 28.0938,7.75 M27.0938,7.45313 C27.0938,6.91146 26.9453,6.47917 26.6484,6.15625 C26.3516,5.83333 25.9583,5.67188 25.4688,5.67188 C24.9167,5.67188 24.4766,5.82813 24.1484,6.14063 C23.8203,6.45313 23.6302,6.89063 23.5781,7.45313 L27.0938,7.45313 M33.1875,5.90625 C33.0833,5.84375 32.9661,5.79688 32.8359,5.76563 C32.7057,5.73438 32.5625,5.71875 32.4063,5.71875 C31.8438,5.71875 31.4141,5.90104 31.1172,6.26563 C30.8203,6.63021 30.6719,7.15104 30.6719,7.82813 L30.6719,11 L29.6719,11 L29.6719,4.98438 L30.6719,4.98438 L30.6719,5.92188 C30.8698,5.55729 31.1354,5.28646 31.4688,5.10938 C31.8021,4.93229 32.2083,4.84375 32.6875,4.84375 C32.7604,4.84375 32.8359,4.84635 32.9141,4.85156 C32.9922,4.85677 33.0833,4.86979 33.1875,4.89063 L33.1875,5.90625 M38.7969,12.8281 L38.7969,13.5938 L33.0781,13.5938 L33.0781,12.8281 L38.7969,12.8281 M44.4063,6.14063 C44.6563,5.69271 44.9531,5.36458 45.2969,5.15625 C45.6406,4.94792 46.0469,4.84375 46.5156,4.84375 C47.1406,4.84375 47.6224,5.0625 47.9609,5.5 C48.2995,5.9375 48.4688,6.5625 48.4688,7.375 L48.4688,11 L47.4688,11 L47.4688,7.40625 C47.4688,6.82292 47.3672,6.39323 47.1641,6.11719 C46.9609,5.84115 46.651,5.70313 46.2344,5.70313 C45.724,5.70313 45.3203,5.8724 45.0234,6.21094 C44.7266,6.54948 44.5781,7.01042 44.5781,7.59375 L44.5781,11 L43.5781,11 L43.5781,7.40625 C43.5781,6.82292 43.4766,6.39323 43.2734,6.11719 C43.0703,5.84115 42.7552,5.70313 42.3281,5.70313 C41.8281,5.70313 41.4297,5.8724 41.1328,6.21094 C40.8359,6.54948 40.6875,7.01042 40.6875,7.59375 L40.6875,11 L39.6875,11 L39.6875,4.98438 L40.6875,4.98438 L40.6875,5.92188 C40.9063,5.54688 41.1745,5.27344 41.4922,5.10156 C41.8099,4.92969 42.1823,4.84375 42.6094,4.84375 C43.0469,4.84375 43.4193,4.95313 43.7266,5.17188 C44.0339,5.39063 44.2604,5.71354 44.4063,6.14063 M53.1563,7.96875 C52.3646,7.96875 51.8151,8.0625 51.5078,8.25 C51.2005,8.4375 51.0469,8.75 51.0469,9.1875 C51.0469,9.53125 51.1615,9.80729 51.3906,10.0156 C51.6198,10.224 51.9323,10.3281 52.3281,10.3281 C52.8802,10.3281 53.3203,10.1328 53.6484,9.74219 C53.9766,9.35156 54.1406,8.83854 54.1406,8.20313 L54.1406,7.96875 L53.1563,7.96875 M55.125,7.5625 L55.125,11 L54.1406,11 L54.1406,10.0938 C53.9219,10.4583 53.6432,10.7266 53.3047,10.8984 C52.9661,11.0703 52.5521,11.1563 52.0625,11.1563 C51.4479,11.1563 50.9583,10.9844 50.5938,10.6406 C50.2292,10.2969 50.0469,9.83333 50.0469,9.25 C50.0469,8.57292 50.2734,8.0625 50.7266,7.71875 C51.1797,7.375 51.8594,7.20313 52.7656,7.20313 L54.1406,7.20313 L54.1406,7.10938 C54.1406,6.65104 53.9922,6.29688 53.6953,6.04688 C53.3984,5.79688 52.9792,5.67188 52.4375,5.67188 C52.0938,5.67188 51.7578,5.71354 51.4297,5.79688 C51.1016,5.88021 50.7865,6.00521 50.4844,6.17188 L50.4844,5.26563 C50.849,5.11979 51.2031,5.01302 51.5469,4.94531 C51.8906,4.8776 52.2188,4.84375 52.5313,4.84375 C53.4063,4.84375 54.0573,5.06771 54.4844,5.51563 C54.9115,5.96354 55.125,6.64583 55.125,7.5625 M62.1563,7.375 L62.1563,11 L61.1719,11 L61.1719,7.40625 C61.1719,6.83333 61.0625,6.40625 60.8438,6.125 C60.625,5.84375 60.2917,5.70313 59.8438,5.70313 C59.3125,5.70313 58.8932,5.8724 58.5859,6.21094 C58.2786,6.54948 58.125,7.01042 58.125,7.59375 L58.125,11 L57.125,11 L57.125,4.98438 L58.125,4.98438 L58.125,5.92188 C58.3542,5.55729 58.6302,5.28646 58.9531,5.10938 C59.276,4.93229 59.6458,4.84375 60.0625,4.84375 C60.75,4.84375 61.2708,5.05729 61.625,5.48438 C61.9792,5.91146 62.1563,6.54167 62.1563,7.375 M66.8594,7.96875 C66.0677,7.96875 65.5182,8.0625 65.2109,8.25 C64.9036,8.4375 64.75,8.75 64.75,9.1875 C64.75,9.53125 64.8646,9.80729 65.0938,10.0156 C65.3229,10.224 65.6354,10.3281 66.0313,10.3281 C66.5833,10.3281 67.0234,10.1328 67.3516,9.74219 C67.6797,9.35156 67.8438,8.83854 67.8438,8.20313 L67.8438,7.96875 L66.8594,7.96875 M68.8281,7.5625 L68.8281,11 L67.8438,11 L67.8438,10.0938 C67.625,10.4583 67.3464,10.7266 67.0078,10.8984 C66.6693,11.0703 66.2552,11.1563 65.7656,11.1563 C65.151,11.1563 64.6615,10.9844 64.2969,10.6406 C63.9323,10.2969 63.75,9.83333 63.75,9.25 C63.75,8.57292 63.9766,8.0625 64.4297,7.71875 C64.8828,7.375 65.5625,7.20313 66.4688,7.20313 L67.8438,7.20313 L67.8438,7.10938 C67.8438,6.65104 67.6953,6.29688 67.3984,6.04688 C67.1016,5.79688 66.6823,5.67188 66.1406,5.67188 C65.7969,5.67188 65.4609,5.71354 65.1328,5.79688 C64.8047,5.88021 64.4896,6.00521 64.1875,6.17188 L64.1875,5.26563 C64.5521,5.11979 64.9063,5.01302 65.25,4.94531 C65.5938,4.8776 65.9219,4.84375 66.2344,4.84375 C67.1094,4.84375 67.7604,5.06771 68.1875,5.51563 C68.6146,5.96354 68.8281,6.64583 68.8281,7.5625 M74.8281,7.92188 C74.8281,7.20313 74.6797,6.64844 74.3828,6.25781 C74.0859,5.86719 73.6719,5.67188 73.1406,5.67188 C72.6094,5.67188 72.1953,5.86719 71.8984,6.25781 C71.6016,6.64844 71.4531,7.20313 71.4531,7.92188 C71.4531,8.63021 71.6016,9.18229 71.8984,9.57813 C72.1953,9.97396 72.6094,10.1719 73.1406,10.1719 C73.6719,10.1719 74.0859,9.97396 74.3828,9.57813 C74.6797,9.18229 74.8281,8.63021 74.8281,7.92188 M75.8125,10.25 C75.8125,11.2813 75.5859,12.0443 75.1328,12.5391 C74.6797,13.0339 73.9844,13.2813 73.0469,13.2813 C72.6927,13.2813 72.362,13.2552 72.0547,13.2031 C71.7474,13.151 71.4479,13.0729 71.1563,12.9688 L71.1563,12.0156 C71.4479,12.1719 71.7344,12.2865 72.0156,12.3594 C72.2969,12.4323 72.5885,12.4688 72.8906,12.4688 C73.5365,12.4688 74.0208,12.2995 74.3438,11.9609 C74.6667,11.6224 74.8281,11.1146 74.8281,10.4375 L74.8281,9.9375 C74.6198,10.2917 74.3568,10.5573 74.0391,10.7344 C73.7214,10.9115 73.3385,11 72.8906,11 C72.151,11 71.5573,10.7188 71.1094,10.1563 C70.6615,9.59375 70.4375,8.84896 70.4375,7.92188 C70.4375,6.99479 70.6615,6.25 71.1094,5.6875 C71.5573,5.125 72.151,4.84375 72.8906,4.84375 C73.3385,4.84375 73.7214,4.92969 74.0391,5.10156 C74.3568,5.27344 74.6198,5.53646 74.8281,5.89063 L74.8281,4.98438 L75.8125,4.98438 L75.8125,10.25 M82.9844,7.75 L82.9844,8.23438 L78.4375,8.23438 C78.4792,8.91146 78.6823,9.42708 79.0469,9.78125 C79.4115,10.1354 79.9219,10.3125 80.5781,10.3125 C80.9635,10.3125 81.3333,10.2656 81.6875,10.1719 C82.0417,10.0781 82.3958,9.94271 82.75,9.76563 L82.75,10.6875 C82.3958,10.8438 82.0313,10.9609 81.6563,11.0391 C81.2813,11.1172 80.9063,11.1563 80.5313,11.1563 C79.5625,11.1563 78.7995,10.8776 78.2422,10.3203 C77.6849,9.76302 77.4063,9.00521 77.4063,8.04688 C77.4063,7.06771 77.6719,6.28906 78.2031,5.71094 C78.7344,5.13281 79.4531,4.84375 80.3594,4.84375 C81.1615,4.84375 81.7995,5.10417 82.2734,5.625 C82.7474,6.14583 82.9844,6.85417 82.9844,7.75 M81.9844,7.45313 C81.9844,6.91146 81.8359,6.47917 81.5391,6.15625 C81.2422,5.83333 80.849,5.67188 80.3594,5.67188 C79.8073,5.67188 79.3672,5.82813 79.0391,6.14063 C78.7109,6.45313 78.5208,6.89063 78.4688,7.45313 L81.9844,7.45313 M88.0781,5.90625 C87.974,5.84375 87.8568,5.79688 87.7266,5.76563 C87.5964,5.73438 87.4531,5.71875 87.2969,5.71875 C86.7344,5.71875 86.3047,5.90104 86.0078,6.26563 C85.7109,6.63021 85.5625,7.15104 85.5625,7.82813 L85.5625,11 L84.5625,11 L84.5625,4.98438 L85.5625,4.98438 L85.5625,5.92188 C85.7604,5.55729 86.026,5.28646 86.3594,5.10938 C86.6927,4.93229 87.099,4.84375 87.5781,4.84375 C87.651,4.84375 87.7266,4.84635 87.8047,4.85156 C87.8828,4.85677 87.974,4.86979 88.0781,4.89063 L88.0781,5.90625"/>
</g>

<g fill="none" stroke="#000000" stroke-opacity="1" stroke-width="1" stroke-linecap="square" stroke-linejoin="bevel" transform="matrix(2,0,0,2,80.9059,130)"
font-family="sans" font-size="11" font-weight="100" font-style="normal" 
>
</g>

<g fill="none" stroke="#000000" stroke-opacity="1" stroke-width="1" stroke-linecap="square" stroke-linejoin="bevel" transform="matrix(2,0,0,2,80.9059,130)"
font-family="Ubuntu" font-size="11" font-weight="400" font-style="normal" 
>
</g>

<g fill="none" stroke="#000000" stroke-opacity="1" stroke-width="1" stroke-linecap="square" stroke-linejoin="bevel" transform="matrix(2,0,0,2,-0.002,180)"
font-family="Ubuntu" font-size="11" font-weight="400" font-style="normal" 
>
</g>

<g fill="none" stroke="#000000" stroke-opacity="1" stroke-width="1" stroke-linecap="square" stroke-linejoin="bevel" transform="matrix(2,0,0,2,-0.002,180)"
font-family="Ubuntu" font-size="11" font-weight="400" font-style="normal" 
>
</g>

<g fill="none" stroke="#000000" stroke-opacity="1" stroke-width="1" stroke-linecap="square" stroke-linejoin="bevel" transform="matrix(2,0,0,2,-0.002,180)"
font-family="Ubuntu" font-size="11" font-weight="400" font-style="normal" 
>
</g>

<g fill="none" stroke="#000000" stroke-opacity="1" stroke-width="1" stroke-linecap="square" stroke-linejoin="round" transform="matrix(2,0,0,2,-0.002,180)"
font-family="Ubuntu" font-size="11" font-weight="400" font-style="normal" 
>
<ellipse cx="332.83" cy="-53" rx="96.34" ry="17.5"/>
</g>

<g fill="none" stroke="#000000" stroke-opacity="1" stroke-width="1" stroke-linecap="square" stroke-linejoin="bevel" transform="matrix(2,0,0,2,-0.002,180)"
font-family="Ubuntu" font-size="11" font-weight="400" font-style="normal" 
>
</g>

<g fill="none" stroke="#000000" stroke-opacity="1" stroke-width="1" stroke-linecap="square" stroke-linejoin="bevel" transform="matrix(2,0,0,2,562.955,60)"
font-family="Ubuntu" font-size="11" font-weight="400" font-style="normal" 
>
</g>

<g fill="none" stroke="#000000" stroke-opacity="1" stroke-width="1" stroke-linecap="square" stroke-linejoin="bevel" transform="matrix(2,0,0,2,562.955,60)"
font-family="sans" font-size="11" font-weight="100" font-style="normal" 
>
</g>

<g fill="#000000" fill-opacity="1" stroke="#000000" stroke-opacity="1" stroke-width="1" stroke-linecap="square" stroke-linejoin="round" transform="matrix(2,0,0,2,562.955,60)"
font-family="sans" font-size="11" font-weight="100" font-style="normal" 
>
<path vector-effect="none" fill-rule="nonzero" d="M2.79688,2.98438 L3.70313,2.98438 L0.90625,12.0156 L0,12.0156 L2.79688,2.98438 M8.70313,5.89063 L8.70313,2.64063 L9.6875,2.64063 L9.6875,11 L8.70313,11 L8.70313,10.0938 C8.49479,10.4583 8.23177,10.7266 7.91406,10.8984 C7.59635,11.0703 7.21354,11.1563 6.76563,11.1563 C6.04688,11.1563 5.45833,10.8672 5,10.2891 C4.54167,9.71094 4.3125,8.94792 4.3125,8 C4.3125,7.05208 4.54167,6.28906 5,5.71094 C5.45833,5.13281 6.04688,4.84375 6.76563,4.84375 C7.21354,4.84375 7.59635,4.92969 7.91406,5.10156 C8.23177,5.27344 8.49479,5.53646 8.70313,5.89063 M5.32813,8 C5.32813,8.72917 5.47917,9.29948 5.78125,9.71094 C6.08333,10.1224 6.49479,10.3281 7.01563,10.3281 C7.53646,10.3281 7.94792,10.1224 8.25,9.71094 C8.55208,9.29948 8.70313,8.72917 8.70313,8 C8.70313,7.27083 8.55208,6.70052 8.25,6.28906 C7.94792,5.8776 7.53646,5.67188 7.01563,5.67188 C6.49479,5.67188 6.08333,5.8776 5.78125,6.28906 C5.47917,6.70052 5.32813,7.27083 5.32813,8 M16.8594,7.75 L16.8594,8.23438 L12.3125,8.23438 C12.3542,8.91146 12.5573,9.42708 12.9219,9.78125 C13.2865,10.1354 13.7969,10.3125 14.4531,10.3125 C14.8385,10.3125 15.2083,10.2656 15.5625,10.1719 C15.9167,10.0781 16.2708,9.94271 16.625,9.76563 L16.625,10.6875 C16.2708,10.8438 15.9063,10.9609 15.5313,11.0391 C15.1563,11.1172 14.7813,11.1563 14.4063,11.1563 C13.4375,11.1563 12.6745,10.8776 12.1172,10.3203 C11.5599,9.76302 11.2813,9.00521 11.2813,8.04688 C11.2813,7.06771 11.5469,6.28906 12.0781,5.71094 C12.6094,5.13281 13.3281,4.84375 14.2344,4.84375 C15.0365,4.84375 15.6745,5.10417 16.1484,5.625 C16.6224,6.14583 16.8594,6.85417 16.8594,7.75 M15.8594,7.45313 C15.8594,6.91146 15.7109,6.47917 15.4141,6.15625 C15.1172,5.83333 14.724,5.67188 14.2344,5.67188 C13.6823,5.67188 13.2422,5.82813 12.9141,6.14063 C12.5859,6.45313 12.3958,6.89063 12.3438,7.45313 L15.8594,7.45313 M18.4688,2.64063 L19.4688,2.64063 L19.4688,11 L18.4688,11 L18.4688,2.64063 M21.5156,4.98438 L22.5156,4.98438 L22.5156,11 L21.5156,11 L21.5156,4.98438 M21.5156,2.64063 L22.5156,2.64063 L22.5156,3.89063 L21.5156,3.89063 L21.5156,2.64063 M23.8594,4.98438 L24.9063,4.98438 L26.7813,10.0313 L28.6719,4.98438 L29.7188,4.98438 L27.4531,11 L26.1094,11 L23.8594,4.98438 M36.2188,7.75 L36.2188,8.23438 L31.6719,8.23438 C31.7135,8.91146 31.9167,9.42708 32.2813,9.78125 C32.6458,10.1354 33.1563,10.3125 33.8125,10.3125 C34.1979,10.3125 34.5677,10.2656 34.9219,10.1719 C35.276,10.0781 35.6302,9.94271 35.9844,9.76563 L35.9844,10.6875 C35.6302,10.8438 35.2656,10.9609 34.8906,11.0391 C34.5156,11.1172 34.1406,11.1563 33.7656,11.1563 C32.7969,11.1563 32.0339,10.8776 31.4766,10.3203 C30.9193,9.76302 30.6406,9.00521 30.6406,8.04688 C30.6406,7.06771 30.9063,6.28906 31.4375,5.71094 C31.9688,5.13281 32.6875,4.84375 33.5938,4.84375 C34.3958,4.84375 35.0339,5.10417 35.5078,5.625 C35.9818,6.14583 36.2188,6.85417 36.2188,7.75 M35.2188,7.45313 C35.2188,6.91146 35.0703,6.47917 34.7734,6.15625 C34.4766,5.83333 34.0833,5.67188 33.5938,5.67188 C33.0417,5.67188 32.6016,5.82813 32.2734,6.14063 C31.9453,6.45313 31.7552,6.89063 31.7031,7.45313 L35.2188,7.45313 M41.3125,5.90625 C41.2083,5.84375 41.0911,5.79688 40.9609,5.76563 C40.8307,5.73438 40.6875,5.71875 40.5313,5.71875 C39.9688,5.71875 39.5391,5.90104 39.2422,6.26563 C38.9453,6.63021 38.7969,7.15104 38.7969,7.82813 L38.7969,11 L37.7969,11 L37.7969,4.98438 L38.7969,4.98438 L38.7969,5.92188 C38.9948,5.55729 39.2604,5.28646 39.5938,5.10938 C39.9271,4.93229 40.3333,4.84375 40.8125,4.84375 C40.8854,4.84375 40.9609,4.84635 41.0391,4.85156 C41.1172,4.85677 41.2083,4.86979 41.3125,4.89063 L41.3125,5.90625 M44.8594,11.5625 C44.5781,12.2813 44.3047,12.7474 44.0391,12.9609 C43.7734,13.1745 43.4167,13.2813 42.9688,13.2813 L42.1875,13.2813 L42.1875,12.4688 L42.7656,12.4688 C43.0365,12.4688 43.2474,12.4036 43.3984,12.2734 C43.5495,12.1432 43.7135,11.8385 43.8906,11.3594 L44.0781,10.9063 L41.6406,4.98438 L42.6875,4.98438 L44.5625,9.6875 L46.4531,4.98438 L47.5,4.98438 L44.8594,11.5625 M53.4219,12.8281 L53.4219,13.5938 L47.7031,13.5938 L47.7031,12.8281 L53.4219,12.8281 M59.0313,6.14063 C59.2813,5.69271 59.5781,5.36458 59.9219,5.15625 C60.2656,4.94792 60.6719,4.84375 61.1406,4.84375 C61.7656,4.84375 62.2474,5.0625 62.5859,5.5 C62.9245,5.9375 63.0938,6.5625 63.0938,7.375 L63.0938,11 L62.0938,11 L62.0938,7.40625 C62.0938,6.82292 61.9922,6.39323 61.7891,6.11719 C61.5859,5.84115 61.276,5.70313 60.8594,5.70313 C60.349,5.70313 59.9453,5.8724 59.6484,6.21094 C59.3516,6.54948 59.2031,7.01042 59.2031,7.59375 L59.2031,11 L58.2031,11 L58.2031,7.40625 C58.2031,6.82292 58.1016,6.39323 57.8984,6.11719 C57.6953,5.84115 57.3802,5.70313 56.9531,5.70313 C56.4531,5.70313 56.0547,5.8724 55.7578,6.21094 C55.4609,6.54948 55.3125,7.01042 55.3125,7.59375 L55.3125,11 L54.3125,11 L54.3125,4.98438 L55.3125,4.98438 L55.3125,5.92188 C55.5313,5.54688 55.7995,5.27344 56.1172,5.10156 C56.4349,4.92969 56.8073,4.84375 57.2344,4.84375 C57.6719,4.84375 58.0443,4.95313 58.3516,5.17188 C58.6589,5.39063 58.8854,5.71354 59.0313,6.14063 M67.7813,7.96875 C66.9896,7.96875 66.4401,8.0625 66.1328,8.25 C65.8255,8.4375 65.6719,8.75 65.6719,9.1875 C65.6719,9.53125 65.7865,9.80729 66.0156,10.0156 C66.2448,10.224 66.5573,10.3281 66.9531,10.3281 C67.5052,10.3281 67.9453,10.1328 68.2734,9.74219 C68.6016,9.35156 68.7656,8.83854 68.7656,8.20313 L68.7656,7.96875 L67.7813,7.96875 M69.75,7.5625 L69.75,11 L68.7656,11 L68.7656,10.0938 C68.5469,10.4583 68.2682,10.7266 67.9297,10.8984 C67.5911,11.0703 67.1771,11.1563 66.6875,11.1563 C66.0729,11.1563 65.5833,10.9844 65.2188,10.6406 C64.8542,10.2969 64.6719,9.83333 64.6719,9.25 C64.6719,8.57292 64.8984,8.0625 65.3516,7.71875 C65.8047,7.375 66.4844,7.20313 67.3906,7.20313 L68.7656,7.20313 L68.7656,7.10938 C68.7656,6.65104 68.6172,6.29688 68.3203,6.04688 C68.0234,5.79688 67.6042,5.67188 67.0625,5.67188 C66.7188,5.67188 66.3828,5.71354 66.0547,5.79688 C65.7266,5.88021 65.4115,6.00521 65.1094,6.17188 L65.1094,5.26563 C65.474,5.11979 65.8281,5.01302 66.1719,4.94531 C66.5156,4.8776 66.8438,4.84375 67.1563,4.84375 C68.0313,4.84375 68.6823,5.06771 69.1094,5.51563 C69.5365,5.96354 69.75,6.64583 69.75,7.5625 M76.7813,7.375 L76.7813,11 L75.7969,11 L75.7969,7.40625 C75.7969,6.83333 75.6875,6.40625 75.4688,6.125 C75.25,5.84375 74.9167,5.70313 74.4688,5.70313 C73.9375,5.70313 73.5182,5.8724 73.2109,6.21094 C72.9036,6.54948 72.75,7.01042 72.75,7.59375 L72.75,11 L71.75,11 L71.75,4.98438 L72.75,4.98438 L72.75,5.92188 C72.9792,5.55729 73.2552,5.28646 73.5781,5.10938 C73.901,4.93229 74.2708,4.84375 74.6875,4.84375 C75.375,4.84375 75.8958,5.05729 76.25,5.48438 C76.6042,5.91146 76.7813,6.54167 76.7813,7.375 M81.4844,7.96875 C80.6927,7.96875 80.1432,8.0625 79.8359,8.25 C79.5286,8.4375 79.375,8.75 79.375,9.1875 C79.375,9.53125 79.4896,9.80729 79.7188,10.0156 C79.9479,10.224 80.2604,10.3281 80.6563,10.3281 C81.2083,10.3281 81.6484,10.1328 81.9766,9.74219 C82.3047,9.35156 82.4688,8.83854 82.4688,8.20313 L82.4688,7.96875 L81.4844,7.96875 M83.4531,7.5625 L83.4531,11 L82.4688,11 L82.4688,10.0938 C82.25,10.4583 81.9714,10.7266 81.6328,10.8984 C81.2943,11.0703 80.8802,11.1563 80.3906,11.1563 C79.776,11.1563 79.2865,10.9844 78.9219,10.6406 C78.5573,10.2969 78.375,9.83333 78.375,9.25 C78.375,8.57292 78.6016,8.0625 79.0547,7.71875 C79.5078,7.375 80.1875,7.20313 81.0938,7.20313 L82.4688,7.20313 L82.4688,7.10938 C82.4688,6.65104 82.3203,6.29688 82.0234,6.04688 C81.7266,5.79688 81.3073,5.67188 80.7656,5.67188 C80.4219,5.67188 80.0859,5.71354 79.7578,5.79688 C79.4297,5.88021 79.1146,6.00521 78.8125,6.17188 L78.8125,5.26563 C79.1771,5.11979 79.5313,5.01302 79.875,4.94531 C80.2188,4.8776 80.5469,4.84375 80.8594,4.84375 C81.7344,4.84375 82.3854,5.06771 82.8125,5.51563 C83.2396,5.96354 83.4531,6.64583 83.4531,7.5625 M89.4531,7.92188 C89.4531,7.20313 89.3047,6.64844 89.0078,6.25781 C88.7109,5.86719 88.2969,5.67188 87.7656,5.67188 C87.2344,5.67188 86.8203,5.86719 86.5234,6.25781 C86.2266,6.64844 86.0781,7.20313 86.0781,7.92188 C86.0781,8.63021 86.2266,9.18229 86.5234,9.57813 C86.8203,9.97396 87.2344,10.1719 87.7656,10.1719 C88.2969,10.1719 88.7109,9.97396 89.0078,9.57813 C89.3047,9.18229 89.4531,8.63021 89.4531,7.92188 M90.4375,10.25 C90.4375,11.2813 90.2109,12.0443 89.7578,12.5391 C89.3047,13.0339 88.6094,13.2813 87.6719,13.2813 C87.3177,13.2813 86.987,13.2552 86.6797,13.2031 C86.3724,13.151 86.0729,13.0729 85.7813,12.9688 L85.7813,12.0156 C86.0729,12.1719 86.3594,12.2865 86.6406,12.3594 C86.9219,12.4323 87.2135,12.4688 87.5156,12.4688 C88.1615,12.4688 88.6458,12.2995 88.9688,11.9609 C89.2917,11.6224 89.4531,11.1146 89.4531,10.4375 L89.4531,9.9375 C89.2448,10.2917 88.9818,10.5573 88.6641,10.7344 C88.3464,10.9115 87.9635,11 87.5156,11 C86.776,11 86.1823,10.7188 85.7344,10.1563 C85.2865,9.59375 85.0625,8.84896 85.0625,7.92188 C85.0625,6.99479 85.2865,6.25 85.7344,5.6875 C86.1823,5.125 86.776,4.84375 87.5156,4.84375 C87.9635,4.84375 88.3464,4.92969 88.6641,5.10156 C88.9818,5.27344 89.2448,5.53646 89.4531,5.89063 L89.4531,4.98438 L90.4375,4.98438 L90.4375,10.25 M97.6094,7.75 L97.6094,8.23438 L93.0625,8.23438 C93.1042,8.91146 93.3073,9.42708 93.6719,9.78125 C94.0365,10.1354 94.5469,10.3125 95.2031,10.3125 C95.5885,10.3125 95.9583,10.2656 96.3125,10.1719 C96.6667,10.0781 97.0208,9.94271 97.375,9.76563 L97.375,10.6875 C97.0208,10.8438 96.6563,10.9609 96.2813,11.0391 C95.9063,11.1172 95.5313,11.1563 95.1563,11.1563 C94.1875,11.1563 93.4245,10.8776 92.8672,10.3203 C92.3099,9.76302 92.0313,9.00521 92.0313,8.04688 C92.0313,7.06771 92.2969,6.28906 92.8281,5.71094 C93.3594,5.13281 94.0781,4.84375 94.9844,4.84375 C95.7865,4.84375 96.4245,5.10417 96.8984,5.625 C97.3724,6.14583 97.6094,6.85417 97.6094,7.75 M96.6094,7.45313 C96.6094,6.91146 96.4609,6.47917 96.1641,6.15625 C95.8672,5.83333 95.474,5.67188 94.9844,5.67188 C94.4323,5.67188 93.9922,5.82813 93.6641,6.14063 C93.3359,6.45313 93.1458,6.89063 93.0938,7.45313 L96.6094,7.45313 M102.703,5.90625 C102.599,5.84375 102.482,5.79688 102.352,5.76563 C102.221,5.73438 102.078,5.71875 101.922,5.71875 C101.359,5.71875 100.93,5.90104 100.633,6.26563 C100.336,6.63021 100.188,7.15104 100.188,7.82813 L100.188,11 L99.1875,11 L99.1875,4.98438 L100.188,4.98438 L100.188,5.92188 C100.385,5.55729 100.651,5.28646 100.984,5.10938 C101.318,4.93229 101.724,4.84375 102.203,4.84375 C102.276,4.84375 102.352,4.84635 102.43,4.85156 C102.508,4.85677 102.599,4.86979 102.703,4.89063 L102.703,5.90625"/>
</g>

<g fill="none" stroke="#000000" stroke-opacity="1" stroke-width="1" stroke-linecap="square" stroke-linejoin="bevel" transform="matrix(2,0,0,2,562.955,60)"
font-family="sans" font-size="11" font-weight="100" font-style="normal" 
>
</g>

<g fill="none" stroke="#000000" stroke-opacity="1" stroke-width="1" stroke-linecap="square" stroke-linejoin="bevel" transform="matrix(2,0,0,2,562.955,60)"
font-family="Ubuntu" font-size="11" font-weight="400" font-style="normal" 
>
</g>

<g fill="none" stroke="#000000" stroke-opacity="1" stroke-width="1" stroke-linecap="square" stroke-linejoin="bevel" transform="matrix(2,0,0,2,-0.002,180)"
font-family="Ubuntu" font-size="11" font-weight="400" font-style="normal" 
>
</g>

<g fill="none" stroke="#000000" stroke-opacity="1" stroke-width="1" stroke-linecap="square" stroke-linejoin="bevel" transform="matrix(2,0,0,2,-0.002,180)"
font-family="Ubuntu" font-size="11" font-weight="400" font-style="normal" 
>
</g>

<g fill="none" stroke="#000000" stroke-opacity="1" stroke-width="1" stroke-linecap="square" stroke-linejoin="bevel" transform="matrix(2,0,0,2,-0.002,180)"
font-family="Ubuntu" font-size="11" font-weight="400" font-style="normal" 
>
</g>

<g fill="none" stroke="#000000" stroke-opacity="1" stroke-width="1" stroke-linecap="square" stroke-linejoin="round" transform="matrix(2,0,0,2,-0.002,180)"
font-family="Ubuntu" font-size="11" font-weight="400" font-style="normal" 
>
<ellipse cx="84.493" cy="-72" rx="72.9436" ry="17.5"/>
</g>

<g fill="none" stroke="#000000" stroke-opacity="1" stroke-width="1" stroke-linecap="square" stroke-linejoin="bevel" transform="matrix(2,0,0,2,-0.002,180)"
font-family="Ubuntu" font-size="11" font-weight="400" font-style="normal" 
>
</g>

<g fill="none" stroke="#000000" stroke-opacity="1" stroke-width="1" stroke-linecap="square" stroke-linejoin="bevel" transform="matrix(2,0,0,2,93.859,22)"
font-family="Ubuntu" font-size="11" font-weight="400" font-style="normal" 
>
</g>

<g fill="none" stroke="#000000" stroke-opacity="1" stroke-width="1" stroke-linecap="square" stroke-linejoin="bevel" transform="matrix(2,0,0,2,93.859,22)"
font-family="sans" font-size="11" font-weight="100" font-style="normal" 
>
</g>

<g fill="#000000" fill-opacity="1" stroke="#000000" stroke-opacity="1" stroke-width="1" stroke-linecap="square" stroke-linejoin="round" transform="matrix(2,0,0,2,93.859,22)"
font-family="sans" font-size="11" font-weight="100" font-style="normal" 
>
<path vector-effect="none" fill-rule="nonzero" d="M2.79688,2.98438 L3.70313,2.98438 L0.90625,12.0156 L0,12.0156 L2.79688,2.98438 M5.71875,3.28125 L5.71875,4.98438 L7.75,4.98438 L7.75,5.75 L5.71875,5.75 L5.71875,9.01563 C5.71875,9.50521 5.78646,9.82031 5.92188,9.96094 C6.05729,10.1016 6.32813,10.1719 6.73438,10.1719 L7.75,10.1719 L7.75,11 L6.73438,11 C5.97396,11 5.44792,10.8568 5.15625,10.5703 C4.86458,10.2839 4.71875,9.76563 4.71875,9.01563 L4.71875,5.75 L4,5.75 L4,4.98438 L4.71875,4.98438 L4.71875,3.28125 L5.71875,3.28125 M11.7813,7.96875 C10.9896,7.96875 10.4401,8.0625 10.1328,8.25 C9.82552,8.4375 9.67188,8.75 9.67188,9.1875 C9.67188,9.53125 9.78646,9.80729 10.0156,10.0156 C10.2448,10.224 10.5573,10.3281 10.9531,10.3281 C11.5052,10.3281 11.9453,10.1328 12.2734,9.74219 C12.6016,9.35156 12.7656,8.83854 12.7656,8.20313 L12.7656,7.96875 L11.7813,7.96875 M13.75,7.5625 L13.75,11 L12.7656,11 L12.7656,10.0938 C12.5469,10.4583 12.2682,10.7266 11.9297,10.8984 C11.5911,11.0703 11.1771,11.1563 10.6875,11.1563 C10.0729,11.1563 9.58333,10.9844 9.21875,10.6406 C8.85417,10.2969 8.67188,9.83333 8.67188,9.25 C8.67188,8.57292 8.89844,8.0625 9.35156,7.71875 C9.80469,7.375 10.4844,7.20313 11.3906,7.20313 L12.7656,7.20313 L12.7656,7.10938 C12.7656,6.65104 12.6172,6.29688 12.3203,6.04688 C12.0234,5.79688 11.6042,5.67188 11.0625,5.67188 C10.7188,5.67188 10.3828,5.71354 10.0547,5.79688 C9.72656,5.88021 9.41146,6.00521 9.10938,6.17188 L9.10938,5.26563 C9.47396,5.11979 9.82813,5.01302 10.1719,4.94531 C10.5156,4.8776 10.8438,4.84375 11.1563,4.84375 C12.0313,4.84375 12.6823,5.06771 13.1094,5.51563 C13.5365,5.96354 13.75,6.64583 13.75,7.5625 M20.1094,8 C20.1094,7.27083 19.9583,6.70052 19.6563,6.28906 C19.3542,5.8776 18.9427,5.67188 18.4219,5.67188 C17.901,5.67188 17.4922,5.8776 17.1953,6.28906 C16.8984,6.70052 16.75,7.27083 16.75,8 C16.75,8.72917 16.8984,9.29948 17.1953,9.71094 C17.4922,10.1224 17.901,10.3281 18.4219,10.3281 C18.9427,10.3281 19.3542,10.1224 19.6563,9.71094 C19.9583,9.29948 20.1094,8.72917 20.1094,8 M16.75,5.89063 C16.9479,5.53646 17.2057,5.27344 17.5234,5.10156 C17.8411,4.92969 18.224,4.84375 18.6719,4.84375 C19.401,4.84375 19.9922,5.13281 20.4453,5.71094 C20.8984,6.28906 21.125,7.05208 21.125,8 C21.125,8.94792 20.8984,9.71094 20.4453,10.2891 C19.9922,10.8672 19.401,11.1563 18.6719,11.1563 C18.224,11.1563 17.8411,11.0703 17.5234,10.8984 C17.2057,10.7266 16.9479,10.4583 16.75,10.0938 L16.75,11 L15.75,11 L15.75,2.64063 L16.75,2.64063 L16.75,5.89063 M22.75,2.64063 L23.75,2.64063 L23.75,11 L22.75,11 L22.75,2.64063 M30.9531,7.75 L30.9531,8.23438 L26.4063,8.23438 C26.4479,8.91146 26.651,9.42708 27.0156,9.78125 C27.3802,10.1354 27.8906,10.3125 28.5469,10.3125 C28.9323,10.3125 29.3021,10.2656 29.6563,10.1719 C30.0104,10.0781 30.3646,9.94271 30.7188,9.76563 L30.7188,10.6875 C30.3646,10.8438 30,10.9609 29.625,11.0391 C29.25,11.1172 28.875,11.1563 28.5,11.1563 C27.5313,11.1563 26.7682,10.8776 26.2109,10.3203 C25.6536,9.76302 25.375,9.00521 25.375,8.04688 C25.375,7.06771 25.6406,6.28906 26.1719,5.71094 C26.7031,5.13281 27.4219,4.84375 28.3281,4.84375 C29.1302,4.84375 29.7682,5.10417 30.2422,5.625 C30.7161,6.14583 30.9531,6.85417 30.9531,7.75 M29.9531,7.45313 C29.9531,6.91146 29.8047,6.47917 29.5078,6.15625 C29.2109,5.83333 28.8177,5.67188 28.3281,5.67188 C27.776,5.67188 27.3359,5.82813 27.0078,6.14063 C26.6797,6.45313 26.4896,6.89063 26.4375,7.45313 L29.9531,7.45313 M37.1406,12.8281 L37.1406,13.5938 L31.4219,13.5938 L31.4219,12.8281 L37.1406,12.8281 M38.0625,2.64063 L39.0625,2.64063 L39.0625,11 L38.0625,11 L38.0625,2.64063 M43.4531,5.67188 C42.9219,5.67188 42.5026,5.88021 42.1953,6.29688 C41.888,6.71354 41.7344,7.28125 41.7344,8 C41.7344,8.71875 41.8854,9.28385 42.1875,9.69531 C42.4896,10.1068 42.9115,10.3125 43.4531,10.3125 C43.974,10.3125 44.388,10.1068 44.6953,9.69531 C45.0026,9.28385 45.1563,8.71875 45.1563,8 C45.1563,7.28125 45.0026,6.71354 44.6953,6.29688 C44.388,5.88021 43.974,5.67188 43.4531,5.67188 M43.4531,4.84375 C44.3073,4.84375 44.9792,5.1224 45.4688,5.67969 C45.9583,6.23698 46.2031,7.01042 46.2031,8 C46.2031,8.97917 45.9583,9.75 45.4688,10.3125 C44.9792,10.875 44.3073,11.1563 43.4531,11.1563 C42.5885,11.1563 41.9115,10.875 41.4219,10.3125 C40.9323,9.75 40.6875,8.97917 40.6875,8 C40.6875,7.01042 40.9323,6.23698 41.4219,5.67969 C41.9115,5.1224 42.5885,4.84375 43.4531,4.84375 M52.1563,5.21875 L52.1563,6.14063 C51.8854,5.98438 51.6094,5.86719 51.3281,5.78906 C51.0469,5.71094 50.7604,5.67188 50.4688,5.67188 C49.8333,5.67188 49.3385,5.875 48.9844,6.28125 C48.6302,6.6875 48.4531,7.26042 48.4531,8 C48.4531,8.72917 48.6302,9.29688 48.9844,9.70313 C49.3385,10.1094 49.8333,10.3125 50.4688,10.3125 C50.7604,10.3125 51.0469,10.276 51.3281,10.2031 C51.6094,10.1302 51.8854,10.0156 52.1563,9.85938 L52.1563,10.7656 C51.8854,10.901 51.6016,11 51.3047,11.0625 C51.0078,11.125 50.6927,11.1563 50.3594,11.1563 C49.4531,11.1563 48.7344,10.8724 48.2031,10.3047 C47.6719,9.73698 47.4063,8.96875 47.4063,8 C47.4063,7.02083 47.6745,6.25 48.2109,5.6875 C48.7474,5.125 49.4844,4.84375 50.4219,4.84375 C50.7344,4.84375 51.0339,4.875 51.3203,4.9375 C51.6068,5 51.8854,5.09375 52.1563,5.21875 M56.6094,7.96875 C55.8177,7.96875 55.2682,8.0625 54.9609,8.25 C54.6536,8.4375 54.5,8.75 54.5,9.1875 C54.5,9.53125 54.6146,9.80729 54.8438,10.0156 C55.0729,10.224 55.3854,10.3281 55.7813,10.3281 C56.3333,10.3281 56.7734,10.1328 57.1016,9.74219 C57.4297,9.35156 57.5938,8.83854 57.5938,8.20313 L57.5938,7.96875 L56.6094,7.96875 M58.5781,7.5625 L58.5781,11 L57.5938,11 L57.5938,10.0938 C57.375,10.4583 57.0964,10.7266 56.7578,10.8984 C56.4193,11.0703 56.0052,11.1563 55.5156,11.1563 C54.901,11.1563 54.4115,10.9844 54.0469,10.6406 C53.6823,10.2969 53.5,9.83333 53.5,9.25 C53.5,8.57292 53.7266,8.0625 54.1797,7.71875 C54.6328,7.375 55.3125,7.20313 56.2188,7.20313 L57.5938,7.20313 L57.5938,7.10938 C57.5938,6.65104 57.4453,6.29688 57.1484,6.04688 C56.8516,5.79688 56.4323,5.67188 55.8906,5.67188 C55.5469,5.67188 55.2109,5.71354 54.8828,5.79688 C54.5547,5.88021 54.2396,6.00521 53.9375,6.17188 L53.9375,5.26563 C54.3021,5.11979 54.6563,5.01302 55,4.94531 C55.3438,4.8776 55.6719,4.84375 55.9844,4.84375 C56.8594,4.84375 57.5104,5.06771 57.9375,5.51563 C58.3646,5.96354 58.5781,6.64583 58.5781,7.5625 M61.5938,3.28125 L61.5938,4.98438 L63.625,4.98438 L63.625,5.75 L61.5938,5.75 L61.5938,9.01563 C61.5938,9.50521 61.6615,9.82031 61.7969,9.96094 C61.9323,10.1016 62.2031,10.1719 62.6094,10.1719 L63.625,10.1719 L63.625,11 L62.6094,11 C61.849,11 61.3229,10.8568 61.0313,10.5703 C60.7396,10.2839 60.5938,9.76563 60.5938,9.01563 L60.5938,5.75 L59.875,5.75 L59.875,4.98438 L60.5938,4.98438 L60.5938,3.28125 L61.5938,3.28125 M67.2656,5.67188 C66.7344,5.67188 66.3151,5.88021 66.0078,6.29688 C65.7005,6.71354 65.5469,7.28125 65.5469,8 C65.5469,8.71875 65.6979,9.28385 66,9.69531 C66.3021,10.1068 66.724,10.3125 67.2656,10.3125 C67.7865,10.3125 68.2005,10.1068 68.5078,9.69531 C68.8151,9.28385 68.9688,8.71875 68.9688,8 C68.9688,7.28125 68.8151,6.71354 68.5078,6.29688 C68.2005,5.88021 67.7865,5.67188 67.2656,5.67188 M67.2656,4.84375 C68.1198,4.84375 68.7917,5.1224 69.2813,5.67969 C69.7708,6.23698 70.0156,7.01042 70.0156,8 C70.0156,8.97917 69.7708,9.75 69.2813,10.3125 C68.7917,10.875 68.1198,11.1563 67.2656,11.1563 C66.401,11.1563 65.724,10.875 65.2344,10.3125 C64.7448,9.75 64.5,8.97917 64.5,8 C64.5,7.01042 64.7448,6.23698 65.2344,5.67969 C65.724,5.1224 66.401,4.84375 67.2656,4.84375 M75.125,5.90625 C75.0208,5.84375 74.9036,5.79688 74.7734,5.76563 C74.6432,5.73438 74.5,5.71875 74.3438,5.71875 C73.7813,5.71875 73.3516,5.90104 73.0547,6.26563 C72.7578,6.63021 72.6094,7.15104 72.6094,7.82813 L72.6094,11 L71.6094,11 L71.6094,4.98438 L72.6094,4.98438 L72.6094,5.92188 C72.8073,5.55729 73.0729,5.28646 73.4063,5.10938 C73.7396,4.93229 74.1458,4.84375 74.625,4.84375 C74.6979,4.84375 74.7734,4.84635 74.8516,4.85156 C74.9297,4.85677 75.0208,4.86979 75.125,4.89063 L75.125,5.90625"/>
</g>

<g fill="none" stroke="#000000" stroke-opacity="1" stroke-width="1" stroke-linecap="square" stroke-linejoin="bevel" transform="matrix(2,0,0,2,93.859,22)"
font-family="sans" font-size="11" font-weight="100" font-style="normal" 
>
</g>

<g fill="none" stroke="#000000" stroke-opacity="1" stroke-width="1" stroke-linecap="square" stroke-linejoin="bevel" transform="matrix(2,0,0,2,93.859,22)"
font-family="Ubuntu" font-size="11" font-weight="400" font-style="normal" 
>
</g>

<g fill="none" stroke="#000000" stroke-opacity="1" stroke-width="1" stroke-linecap="square" stroke-linejoin="bevel" transform="matrix(2,0,0,2,-0.002,180)"
font-family="Ubuntu" font-size="11" font-weight="400" font-style="normal" 
>
</g>

<g fill="none" stroke="#000000" stroke-opacity="1" stroke-width="1" stroke-linecap="square" stroke-linejoin="bevel" transform="matrix(2,0,0,2,-0.002,180)"
font-family="Ubuntu" font-size="11" font-weight="400" font-style="normal" 
>
</g>

<g fill="none" stroke="#000000" stroke-opacity="1" stroke-width="1" stroke-linecap="square" stroke-linejoin="bevel" transform="matrix(2,0,0,2,-0.002,180)"
font-family="Ubuntu" font-size="11" font-weight="400" font-style="normal" 
>
</g>

<g fill="none" stroke="#000000" stroke-opacity="1" stroke-width="1" stroke-linecap="square" stroke-linejoin="round" transform="matrix(2,0,0,2,-0.002,180)"
font-family="Ubuntu" font-size="11" font-weight="400" font-style="normal" 
>
<ellipse cx="664.06" cy="-18" rx="87.8908" ry="17.5"/>
</g>

<g fill="none" stroke="#000000" stroke-opacity="1" stroke-width="1" stroke-linecap="square" stroke-linejoin="bevel" transform="matrix(2,0,0,2,-0.002,180)"
font-family="Ubuntu" font-size="11" font-weight="400" font-style="normal" 
>
</g>

<g fill="none" stroke="#000000" stroke-opacity="1" stroke-width="1" stroke-linecap="square" stroke-linejoin="bevel" transform="matrix(2,0,0,2,1237.02,130)"
font-family="Ubuntu" font-size="11" font-weight="400" font-style="normal" 
>
</g>

<g fill="none" stroke="#000000" stroke-opacity="1" stroke-width="1" stroke-linecap="square" stroke-linejoin="bevel" transform="matrix(2,0,0,2,1237.02,130)"
font-family="sans" font-size="11" font-weight="100" font-style="normal" 
>
</g>

<g fill="#000000" fill-opacity="1" stroke="#000000" stroke-opacity="1" stroke-width="1" stroke-linecap="square" stroke-linejoin="round" transform="matrix(2,0,0,2,1237.02,130)"
font-family="sans" font-size="11" font-weight="100" font-style="normal" 
>
<path vector-effect="none" fill-rule="nonzero" d="M2.79688,2.98438 L3.70313,2.98438 L0.90625,12.0156 L0,12.0156 L2.79688,2.98438 M8.21875,5.90625 C8.11458,5.84375 7.9974,5.79688 7.86719,5.76563 C7.73698,5.73438 7.59375,5.71875 7.4375,5.71875 C6.875,5.71875 6.44531,5.90104 6.14844,6.26563 C5.85156,6.63021 5.70313,7.15104 5.70313,7.82813 L5.70313,11 L4.70313,11 L4.70313,4.98438 L5.70313,4.98438 L5.70313,5.92188 C5.90104,5.55729 6.16667,5.28646 6.5,5.10938 C6.83333,4.93229 7.23958,4.84375 7.71875,4.84375 C7.79167,4.84375 7.86719,4.84635 7.94531,4.85156 C8.02344,4.85677 8.11458,4.86979 8.21875,4.89063 L8.21875,5.90625 M11.5938,5.67188 C11.0625,5.67188 10.6432,5.88021 10.3359,6.29688 C10.0286,6.71354 9.875,7.28125 9.875,8 C9.875,8.71875 10.026,9.28385 10.3281,9.69531 C10.6302,10.1068 11.0521,10.3125 11.5938,10.3125 C12.1146,10.3125 12.5286,10.1068 12.8359,9.69531 C13.1432,9.28385 13.2969,8.71875 13.2969,8 C13.2969,7.28125 13.1432,6.71354 12.8359,6.29688 C12.5286,5.88021 12.1146,5.67188 11.5938,5.67188 M11.5938,4.84375 C12.4479,4.84375 13.1198,5.1224 13.6094,5.67969 C14.099,6.23698 14.3438,7.01042 14.3438,8 C14.3438,8.97917 14.099,9.75 13.6094,10.3125 C13.1198,10.875 12.4479,11.1563 11.5938,11.1563 C10.7292,11.1563 10.0521,10.875 9.5625,10.3125 C9.07292,9.75 8.82813,8.97917 8.82813,8 C8.82813,7.01042 9.07292,6.23698 9.5625,5.67969 C10.0521,5.1224 10.7292,4.84375 11.5938,4.84375 M20.2969,8 C20.2969,7.27083 20.1458,6.70052 19.8438,6.28906 C19.5417,5.8776 19.1302,5.67188 18.6094,5.67188 C18.0885,5.67188 17.6797,5.8776 17.3828,6.28906 C17.0859,6.70052 16.9375,7.27083 16.9375,8 C16.9375,8.72917 17.0859,9.29948 17.3828,9.71094 C17.6797,10.1224 18.0885,10.3281 18.6094,10.3281 C19.1302,10.3281 19.5417,10.1224 19.8438,9.71094 C20.1458,9.29948 20.2969,8.72917 20.2969,8 M16.9375,5.89063 C17.1354,5.53646 17.3932,5.27344 17.7109,5.10156 C18.0286,4.92969 18.4115,4.84375 18.8594,4.84375 C19.5885,4.84375 20.1797,5.13281 20.6328,5.71094 C21.0859,6.28906 21.3125,7.05208 21.3125,8 C21.3125,8.94792 21.0859,9.71094 20.6328,10.2891 C20.1797,10.8672 19.5885,11.1563 18.8594,11.1563 C18.4115,11.1563 18.0286,11.0703 17.7109,10.8984 C17.3932,10.7266 17.1354,10.4583 16.9375,10.0938 L16.9375,11 L15.9375,11 L15.9375,2.64063 L16.9375,2.64063 L16.9375,5.89063 M25.2813,5.67188 C24.75,5.67188 24.3307,5.88021 24.0234,6.29688 C23.7161,6.71354 23.5625,7.28125 23.5625,8 C23.5625,8.71875 23.7135,9.28385 24.0156,9.69531 C24.3177,10.1068 24.7396,10.3125 25.2813,10.3125 C25.8021,10.3125 26.2161,10.1068 26.5234,9.69531 C26.8307,9.28385 26.9844,8.71875 26.9844,8 C26.9844,7.28125 26.8307,6.71354 26.5234,6.29688 C26.2161,5.88021 25.8021,5.67188 25.2813,5.67188 M25.2813,4.84375 C26.1354,4.84375 26.8073,5.1224 27.2969,5.67969 C27.7865,6.23698 28.0313,7.01042 28.0313,8 C28.0313,8.97917 27.7865,9.75 27.2969,10.3125 C26.8073,10.875 26.1354,11.1563 25.2813,11.1563 C24.4167,11.1563 23.7396,10.875 23.25,10.3125 C22.7604,9.75 22.5156,8.97917 22.5156,8 C22.5156,7.01042 22.7604,6.23698 23.25,5.67969 C23.7396,5.1224 24.4167,4.84375 25.2813,4.84375 M30.6406,3.28125 L30.6406,4.98438 L32.6719,4.98438 L32.6719,5.75 L30.6406,5.75 L30.6406,9.01563 C30.6406,9.50521 30.7083,9.82031 30.8438,9.96094 C30.9792,10.1016 31.25,10.1719 31.6563,10.1719 L32.6719,10.1719 L32.6719,11 L31.6563,11 C30.8958,11 30.3698,10.8568 30.0781,10.5703 C29.7865,10.2839 29.6406,9.76563 29.6406,9.01563 L29.6406,5.75 L28.9219,5.75 L28.9219,4.98438 L29.6406,4.98438 L29.6406,3.28125 L30.6406,3.28125 M38.5469,12.8281 L38.5469,13.5938 L32.8281,13.5938 L32.8281,12.8281 L38.5469,12.8281 M43.7969,5.21875 L43.7969,6.14063 C43.526,5.98438 43.25,5.86719 42.9688,5.78906 C42.6875,5.71094 42.401,5.67188 42.1094,5.67188 C41.474,5.67188 40.9792,5.875 40.625,6.28125 C40.2708,6.6875 40.0938,7.26042 40.0938,8 C40.0938,8.72917 40.2708,9.29688 40.625,9.70313 C40.9792,10.1094 41.474,10.3125 42.1094,10.3125 C42.401,10.3125 42.6875,10.276 42.9688,10.2031 C43.25,10.1302 43.526,10.0156 43.7969,9.85938 L43.7969,10.7656 C43.526,10.901 43.2422,11 42.9453,11.0625 C42.6484,11.125 42.3333,11.1563 42,11.1563 C41.0938,11.1563 40.375,10.8724 39.8438,10.3047 C39.3125,9.73698 39.0469,8.96875 39.0469,8 C39.0469,7.02083 39.3151,6.25 39.8516,5.6875 C40.388,5.125 41.125,4.84375 42.0625,4.84375 C42.375,4.84375 42.6745,4.875 42.9609,4.9375 C43.2474,5 43.526,5.09375 43.7969,5.21875 M47.8594,5.67188 C47.3281,5.67188 46.9089,5.88021 46.6016,6.29688 C46.2943,6.71354 46.1406,7.28125 46.1406,8 C46.1406,8.71875 46.2917,9.28385 46.5938,9.69531 C46.8958,10.1068 47.3177,10.3125 47.8594,10.3125 C48.3802,10.3125 48.7943,10.1068 49.1016,9.69531 C49.4089,9.28385 49.5625,8.71875 49.5625,8 C49.5625,7.28125 49.4089,6.71354 49.1016,6.29688 C48.7943,5.88021 48.3802,5.67188 47.8594,5.67188 M47.8594,4.84375 C48.7135,4.84375 49.3854,5.1224 49.875,5.67969 C50.3646,6.23698 50.6094,7.01042 50.6094,8 C50.6094,8.97917 50.3646,9.75 49.875,10.3125 C49.3854,10.875 48.7135,11.1563 47.8594,11.1563 C46.9948,11.1563 46.3177,10.875 45.8281,10.3125 C45.3385,9.75 45.0938,8.97917 45.0938,8 C45.0938,7.01042 45.3385,6.23698 45.8281,5.67969 C46.3177,5.1224 46.9948,4.84375 47.8594,4.84375 M57.2344,7.375 L57.2344,11 L56.25,11 L56.25,7.40625 C56.25,6.83333 56.1406,6.40625 55.9219,6.125 C55.7031,5.84375 55.3698,5.70313 54.9219,5.70313 C54.3906,5.70313 53.9714,5.8724 53.6641,6.21094 C53.3568,6.54948 53.2031,7.01042 53.2031,7.59375 L53.2031,11 L52.2031,11 L52.2031,4.98438 L53.2031,4.98438 L53.2031,5.92188 C53.4323,5.55729 53.7083,5.28646 54.0313,5.10938 C54.3542,4.93229 54.724,4.84375 55.1406,4.84375 C55.8281,4.84375 56.349,5.05729 56.7031,5.48438 C57.0573,5.91146 57.2344,6.54167 57.2344,7.375 M60.1875,3.28125 L60.1875,4.98438 L62.2188,4.98438 L62.2188,5.75 L60.1875,5.75 L60.1875,9.01563 C60.1875,9.50521 60.2552,9.82031 60.3906,9.96094 C60.526,10.1016 60.7969,10.1719 61.2031,10.1719 L62.2188,10.1719 L62.2188,11 L61.2031,11 C60.4427,11 59.9167,10.8568 59.625,10.5703 C59.3333,10.2839 59.1875,9.76563 59.1875,9.01563 L59.1875,5.75 L58.4688,5.75 L58.4688,4.98438 L59.1875,4.98438 L59.1875,3.28125 L60.1875,3.28125 M67,5.90625 C66.8958,5.84375 66.7786,5.79688 66.6484,5.76563 C66.5182,5.73438 66.375,5.71875 66.2188,5.71875 C65.6563,5.71875 65.2266,5.90104 64.9297,6.26563 C64.6328,6.63021 64.4844,7.15104 64.4844,7.82813 L64.4844,11 L63.4844,11 L63.4844,4.98438 L64.4844,4.98438 L64.4844,5.92188 C64.6823,5.55729 64.9479,5.28646 65.2813,5.10938 C65.6146,4.93229 66.0208,4.84375 66.5,4.84375 C66.5729,4.84375 66.6484,4.84635 66.7266,4.85156 C66.8047,4.85677 66.8958,4.86979 67,4.89063 L67,5.90625 M70.375,5.67188 C69.8438,5.67188 69.4245,5.88021 69.1172,6.29688 C68.8099,6.71354 68.6563,7.28125 68.6563,8 C68.6563,8.71875 68.8073,9.28385 69.1094,9.69531 C69.4115,10.1068 69.8333,10.3125 70.375,10.3125 C70.8958,10.3125 71.3099,10.1068 71.6172,9.69531 C71.9245,9.28385 72.0781,8.71875 72.0781,8 C72.0781,7.28125 71.9245,6.71354 71.6172,6.29688 C71.3099,5.88021 70.8958,5.67188 70.375,5.67188 M70.375,4.84375 C71.2292,4.84375 71.901,5.1224 72.3906,5.67969 C72.8802,6.23698 73.125,7.01042 73.125,8 C73.125,8.97917 72.8802,9.75 72.3906,10.3125 C71.901,10.875 71.2292,11.1563 70.375,11.1563 C69.5104,11.1563 68.8333,10.875 68.3438,10.3125 C67.8542,9.75 67.6094,8.97917 67.6094,8 C67.6094,7.01042 67.8542,6.23698 68.3438,5.67969 C68.8333,5.1224 69.5104,4.84375 70.375,4.84375 M74.75,2.64063 L75.75,2.64063 L75.75,11 L74.75,11 L74.75,2.64063 M77.7969,2.64063 L78.7969,2.64063 L78.7969,11 L77.7969,11 L77.7969,2.64063 M86,7.75 L86,8.23438 L81.4531,8.23438 C81.4948,8.91146 81.6979,9.42708 82.0625,9.78125 C82.4271,10.1354 82.9375,10.3125 83.5938,10.3125 C83.9792,10.3125 84.349,10.2656 84.7031,10.1719 C85.0573,10.0781 85.4115,9.94271 85.7656,9.76563 L85.7656,10.6875 C85.4115,10.8438 85.0469,10.9609 84.6719,11.0391 C84.2969,11.1172 83.9219,11.1563 83.5469,11.1563 C82.5781,11.1563 81.8151,10.8776 81.2578,10.3203 C80.7005,9.76302 80.4219,9.00521 80.4219,8.04688 C80.4219,7.06771 80.6875,6.28906 81.2188,5.71094 C81.75,5.13281 82.4688,4.84375 83.375,4.84375 C84.1771,4.84375 84.8151,5.10417 85.2891,5.625 C85.763,6.14583 86,6.85417 86,7.75 M85,7.45313 C85,6.91146 84.8516,6.47917 84.5547,6.15625 C84.2578,5.83333 83.8646,5.67188 83.375,5.67188 C82.8229,5.67188 82.3828,5.82813 82.0547,6.14063 C81.7266,6.45313 81.5365,6.89063 81.4844,7.45313 L85,7.45313 M91.0938,5.90625 C90.9896,5.84375 90.8724,5.79688 90.7422,5.76563 C90.612,5.73438 90.4688,5.71875 90.3125,5.71875 C89.75,5.71875 89.3203,5.90104 89.0234,6.26563 C88.7266,6.63021 88.5781,7.15104 88.5781,7.82813 L88.5781,11 L87.5781,11 L87.5781,4.98438 L88.5781,4.98438 L88.5781,5.92188 C88.776,5.55729 89.0417,5.28646 89.375,5.10938 C89.7083,4.93229 90.1146,4.84375 90.5938,4.84375 C90.6667,4.84375 90.7422,4.84635 90.8203,4.85156 C90.8984,4.85677 90.9896,4.86979 91.0938,4.89063 L91.0938,5.90625"/>
</g>

<g fill="none" stroke="#000000" stroke-opacity="1" stroke-width="1" stroke-linecap="square" stroke-linejoin="bevel" transform="matrix(2,0,0,2,1237.02,130)"
font-family="sans" font-size="11" font-weight="100" font-style="normal" 
>
</g>

<g fill="none" stroke="#000000" stroke-opacity="1" stroke-width="1" stroke-linecap="square" stroke-linejoin="bevel" transform="matrix(2,0,0,2,1237.02,130)"
font-family="Ubuntu" font-size="11" font-weight="400" font-style="normal" 
>
</g>

<g fill="none" stroke="#000000" stroke-opacity="1" stroke-width="1" stroke-linecap="square" stroke-linejoin="bevel" transform="matrix(2,0,0,2,-0.002,180)"
font-family="Ubuntu" font-size="11" font-weight="400" font-style="normal" 
>
</g>

<g fill="none" stroke="#000000" stroke-opacity="1" stroke-width="1" stroke-linecap="square" stroke-linejoin="bevel" transform="matrix(2,0,0,2,-0.002,180)"
font-family="Ubuntu" font-size="11" font-weight="400" font-style="normal" 
>
</g>

<g fill="none" stroke="#000000" stroke-opacity="1" stroke-width="1" stroke-linecap="square" stroke-linejoin="bevel" transform="matrix(2,0,0,2,-0.002,180)"
font-family="Ubuntu" font-size="11" font-weight="400" font-style="normal" 
>
</g>

<g fill="none" stroke="#000000" stroke-opacity="1" stroke-width="1" stroke-linecap="square" stroke-linejoin="round" transform="matrix(2,0,0,2,-0.002,180)"
font-family="Ubuntu" font-size="11" font-weight="400" font-style="normal" 
>
<path vector-effect="none" fill-rule="evenodd" d="M155.09,-27.889 C183.22,-31.885 215.96,-36.538 245.57,-40.745 "/>
</g>

<g fill="none" stroke="#000000" stroke-opacity="1" stroke-width="1" stroke-linecap="square" stroke-linejoin="bevel" transform="matrix(2,0,0,2,-0.002,180)"
font-family="Ubuntu" font-size="11" font-weight="400" font-style="normal" 
>
</g>

<g fill="none" stroke="#000000" stroke-opacity="1" stroke-width="1" stroke-linecap="square" stroke-linejoin="bevel" transform="matrix(2,0,0,2,366.291,77)"
font-family="Ubuntu" font-size="11" font-weight="400" font-style="normal" 
>
</g>

<g fill="none" stroke="#000000" stroke-opacity="1" stroke-width="1" stroke-linecap="square" stroke-linejoin="bevel" transform="matrix(2,0,0,2,366.291,77)"
font-family="sans" font-size="11" font-weight="100" font-style="normal" 
>
</g>

<g fill="#000000" fill-opacity="1" stroke="#000000" stroke-opacity="1" stroke-width="1" stroke-linecap="square" stroke-linejoin="round" transform="matrix(2,0,0,2,366.291,77)"
font-family="sans" font-size="11" font-weight="100" font-style="normal" 
>
<path vector-effect="none" fill-rule="nonzero" d="M2.79688,2.98438 L3.70313,2.98438 L0.90625,12.0156 L0,12.0156 L2.79688,2.98438 M7.07813,5.67188 C6.54688,5.67188 6.1276,5.88021 5.82031,6.29688 C5.51302,6.71354 5.35938,7.28125 5.35938,8 C5.35938,8.71875 5.51042,9.28385 5.8125,9.69531 C6.11458,10.1068 6.53646,10.3125 7.07813,10.3125 C7.59896,10.3125 8.01302,10.1068 8.32031,9.69531 C8.6276,9.28385 8.78125,8.71875 8.78125,8 C8.78125,7.28125 8.6276,6.71354 8.32031,6.29688 C8.01302,5.88021 7.59896,5.67188 7.07813,5.67188 M7.07813,4.84375 C7.93229,4.84375 8.60417,5.1224 9.09375,5.67969 C9.58333,6.23698 9.82813,7.01042 9.82813,8 C9.82813,8.97917 9.58333,9.75 9.09375,10.3125 C8.60417,10.875 7.93229,11.1563 7.07813,11.1563 C6.21354,11.1563 5.53646,10.875 5.04688,10.3125 C4.55729,9.75 4.3125,8.97917 4.3125,8 C4.3125,7.01042 4.55729,6.23698 5.04688,5.67969 C5.53646,5.1224 6.21354,4.84375 7.07813,4.84375 M14.9375,5.90625 C14.8333,5.84375 14.7161,5.79688 14.5859,5.76563 C14.4557,5.73438 14.3125,5.71875 14.1563,5.71875 C13.5938,5.71875 13.1641,5.90104 12.8672,6.26563 C12.5703,6.63021 12.4219,7.15104 12.4219,7.82813 L12.4219,11 L11.4219,11 L11.4219,4.98438 L12.4219,4.98438 L12.4219,5.92188 C12.6198,5.55729 12.8854,5.28646 13.2188,5.10938 C13.5521,4.93229 13.9583,4.84375 14.4375,4.84375 C14.5104,4.84375 14.5859,4.84635 14.6641,4.85156 C14.7422,4.85677 14.8333,4.86979 14.9375,4.89063 L14.9375,5.90625 M19.9375,5.89063 L19.9375,2.64063 L20.9219,2.64063 L20.9219,11 L19.9375,11 L19.9375,10.0938 C19.7292,10.4583 19.4661,10.7266 19.1484,10.8984 C18.8307,11.0703 18.4479,11.1563 18,11.1563 C17.2813,11.1563 16.6927,10.8672 16.2344,10.2891 C15.776,9.71094 15.5469,8.94792 15.5469,8 C15.5469,7.05208 15.776,6.28906 16.2344,5.71094 C16.6927,5.13281 17.2813,4.84375 18,4.84375 C18.4479,4.84375 18.8307,4.92969 19.1484,5.10156 C19.4661,5.27344 19.7292,5.53646 19.9375,5.89063 M16.5625,8 C16.5625,8.72917 16.7135,9.29948 17.0156,9.71094 C17.3177,10.1224 17.7292,10.3281 18.25,10.3281 C18.7708,10.3281 19.1823,10.1224 19.4844,9.71094 C19.7865,9.29948 19.9375,8.72917 19.9375,8 C19.9375,7.27083 19.7865,6.70052 19.4844,6.28906 C19.1823,5.8776 18.7708,5.67188 18.25,5.67188 C17.7292,5.67188 17.3177,5.8776 17.0156,6.28906 C16.7135,6.70052 16.5625,7.27083 16.5625,8 M22.9375,4.98438 L23.9375,4.98438 L23.9375,11 L22.9375,11 L22.9375,4.98438 M22.9375,2.64063 L23.9375,2.64063 L23.9375,3.89063 L22.9375,3.89063 L22.9375,2.64063 M30.9844,7.375 L30.9844,11 L30,11 L30,7.40625 C30,6.83333 29.8906,6.40625 29.6719,6.125 C29.4531,5.84375 29.1198,5.70313 28.6719,5.70313 C28.1406,5.70313 27.7214,5.8724 27.4141,6.21094 C27.1068,6.54948 26.9531,7.01042 26.9531,7.59375 L26.9531,11 L25.9531,11 L25.9531,4.98438 L26.9531,4.98438 L26.9531,5.92188 C27.1823,5.55729 27.4583,5.28646 27.7813,5.10938 C28.1042,4.93229 28.474,4.84375 28.8906,4.84375 C29.5781,4.84375 30.099,5.05729 30.4531,5.48438 C30.8073,5.91146 30.9844,6.54167 30.9844,7.375 M38.1094,7.75 L38.1094,8.23438 L33.5625,8.23438 C33.6042,8.91146 33.8073,9.42708 34.1719,9.78125 C34.5365,10.1354 35.0469,10.3125 35.7031,10.3125 C36.0885,10.3125 36.4583,10.2656 36.8125,10.1719 C37.1667,10.0781 37.5208,9.94271 37.875,9.76563 L37.875,10.6875 C37.5208,10.8438 37.1563,10.9609 36.7813,11.0391 C36.4063,11.1172 36.0313,11.1563 35.6563,11.1563 C34.6875,11.1563 33.9245,10.8776 33.3672,10.3203 C32.8099,9.76302 32.5313,9.00521 32.5313,8.04688 C32.5313,7.06771 32.7969,6.28906 33.3281,5.71094 C33.8594,5.13281 34.5781,4.84375 35.4844,4.84375 C36.2865,4.84375 36.9245,5.10417 37.3984,5.625 C37.8724,6.14583 38.1094,6.85417 38.1094,7.75 M37.1094,7.45313 C37.1094,6.91146 36.9609,6.47917 36.6641,6.15625 C36.3672,5.83333 35.974,5.67188 35.4844,5.67188 C34.9323,5.67188 34.4922,5.82813 34.1641,6.14063 C33.8359,6.45313 33.6458,6.89063 33.5938,7.45313 L37.1094,7.45313"/>
</g>

<g fill="none" stroke="#000000" stroke-opacity="1" stroke-width="1" stroke-linecap="square" stroke-linejoin="bevel" transform="matrix(2,0,0,2,366.291,77)"
font-family="sans" font-size="11" font-weight="100" font-style="normal" 
>
</g>

<g fill="none" stroke="#000000" stroke-opacity="1" stroke-width="1" stroke-linecap="square" stroke-linejoin="bevel" transform="matrix(2,0,0,2,366.291,77)"
font-family="Ubuntu" font-size="11" font-weight="400" font-style="normal" 
>
</g>

<g fill="none" stroke="#000000" stroke-opacity="1" stroke-width="1" stroke-linecap="square" stroke-linejoin="bevel" transform="matrix(2,0,0,2,-0.002,180)"
font-family="Ubuntu" font-size="11" font-weight="400" font-style="normal" 
>
</g>

<g fill="#000000" fill-opacity="1" stroke="#000000" stroke-opacity="1" stroke-width="1" stroke-linecap="square" stroke-linejoin="round" transform="matrix(2,0,0,2,-0.002,180)"
font-family="Ubuntu" font-size="11" font-weight="400" font-style="normal" 
>
<path vector-effect="none" fill-rule="evenodd" d="M245.57,-40.745 L246.063,-37.273 L255.49,-42.153 L245.077,-44.217 L245.57,-40.745"/>
</g>

<g fill="none" stroke="#000000" stroke-opacity="1" stroke-width="1" stroke-linecap="square" stroke-linejoin="bevel" transform="matrix(2,0,0,2,-0.002,180)"
font-family="Ubuntu" font-size="11" font-weight="400" font-style="normal" 
>
</g>

<g fill="none" stroke="#000000" stroke-opacity="1" stroke-width="1" stroke-linecap="square" stroke-linejoin="bevel" transform="matrix(2,0,0,2,-0.002,180)"
font-family="Ubuntu" font-size="11" font-weight="400" font-style="normal" 
>
</g>

<g fill="none" stroke="#000000" stroke-opacity="1" stroke-width="1" stroke-linecap="square" stroke-linejoin="bevel" transform="matrix(2,0,0,2,-0.002,180)"
font-family="Ubuntu" font-size="11" font-weight="400" font-style="normal" 
>
</g>

<g fill="none" stroke="#000000" stroke-opacity="1" stroke-width="1" stroke-linecap="square" stroke-linejoin="bevel" transform="matrix(2,0,0,2,-0.002,180)"
font-family="Ubuntu" font-size="11" font-weight="400" font-style="normal" 
>
</g>

<g fill="none" stroke="#000000" stroke-opacity="1" stroke-width="1" stroke-linecap="square" stroke-linejoin="round" transform="matrix(2,0,0,2,-0.002,180)"
font-family="Ubuntu" font-size="11" font-weight="400" font-style="normal" 
>
<path vector-effect="none" fill-rule="evenodd" d="M417.33,-44.123 C465.63,-38.988 526.35,-32.533 575.35,-27.325 "/>
</g>

<g fill="none" stroke="#000000" stroke-opacity="1" stroke-width="1" stroke-linecap="square" stroke-linejoin="bevel" transform="matrix(2,0,0,2,-0.002,180)"
font-family="Ubuntu" font-size="11" font-weight="400" font-style="normal" 
>
</g>

<g fill="none" stroke="#000000" stroke-opacity="1" stroke-width="1" stroke-linecap="square" stroke-linejoin="bevel" transform="matrix(2,0,0,2,903.463,69)"
font-family="Ubuntu" font-size="11" font-weight="400" font-style="normal" 
>
</g>

<g fill="none" stroke="#000000" stroke-opacity="1" stroke-width="1" stroke-linecap="square" stroke-linejoin="bevel" transform="matrix(2,0,0,2,903.463,69)"
font-family="sans" font-size="11" font-weight="100" font-style="normal" 
>
</g>

<g fill="#000000" fill-opacity="1" stroke="#000000" stroke-opacity="1" stroke-width="1" stroke-linecap="square" stroke-linejoin="round" transform="matrix(2,0,0,2,903.463,69)"
font-family="sans" font-size="11" font-weight="100" font-style="normal" 
>
<path vector-effect="none" fill-rule="nonzero" d="M2.79688,2.98438 L3.70313,2.98438 L0.90625,12.0156 L0,12.0156 L2.79688,2.98438 M9.42188,6.14063 C9.67188,5.69271 9.96875,5.36458 10.3125,5.15625 C10.6563,4.94792 11.0625,4.84375 11.5313,4.84375 C12.1563,4.84375 12.638,5.0625 12.9766,5.5 C13.3151,5.9375 13.4844,6.5625 13.4844,7.375 L13.4844,11 L12.4844,11 L12.4844,7.40625 C12.4844,6.82292 12.3828,6.39323 12.1797,6.11719 C11.9766,5.84115 11.6667,5.70313 11.25,5.70313 C10.7396,5.70313 10.3359,5.8724 10.0391,6.21094 C9.74219,6.54948 9.59375,7.01042 9.59375,7.59375 L9.59375,11 L8.59375,11 L8.59375,7.40625 C8.59375,6.82292 8.49219,6.39323 8.28906,6.11719 C8.08594,5.84115 7.77083,5.70313 7.34375,5.70313 C6.84375,5.70313 6.44531,5.8724 6.14844,6.21094 C5.85156,6.54948 5.70313,7.01042 5.70313,7.59375 L5.70313,11 L4.70313,11 L4.70313,4.98438 L5.70313,4.98438 L5.70313,5.92188 C5.92188,5.54688 6.1901,5.27344 6.50781,5.10156 C6.82552,4.92969 7.19792,4.84375 7.625,4.84375 C8.0625,4.84375 8.4349,4.95313 8.74219,5.17188 C9.04948,5.39063 9.27604,5.71354 9.42188,6.14063 M17.7813,5.67188 C17.25,5.67188 16.8307,5.88021 16.5234,6.29688 C16.2161,6.71354 16.0625,7.28125 16.0625,8 C16.0625,8.71875 16.2135,9.28385 16.5156,9.69531 C16.8177,10.1068 17.2396,10.3125 17.7813,10.3125 C18.3021,10.3125 18.7161,10.1068 19.0234,9.69531 C19.3307,9.28385 19.4844,8.71875 19.4844,8 C19.4844,7.28125 19.3307,6.71354 19.0234,6.29688 C18.7161,5.88021 18.3021,5.67188 17.7813,5.67188 M17.7813,4.84375 C18.6354,4.84375 19.3073,5.1224 19.7969,5.67969 C20.2865,6.23698 20.5313,7.01042 20.5313,8 C20.5313,8.97917 20.2865,9.75 19.7969,10.3125 C19.3073,10.875 18.6354,11.1563 17.7813,11.1563 C16.9167,11.1563 16.2396,10.875 15.75,10.3125 C15.2604,9.75 15.0156,8.97917 15.0156,8 C15.0156,7.01042 15.2604,6.23698 15.75,5.67969 C16.2396,5.1224 16.9167,4.84375 17.7813,4.84375 M21.4531,4.98438 L22.5,4.98438 L24.375,10.0313 L26.2656,4.98438 L27.3125,4.98438 L25.0469,11 L23.7031,11 L21.4531,4.98438 M28.6563,4.98438 L29.6563,4.98438 L29.6563,11 L28.6563,11 L28.6563,4.98438 M28.6563,2.64063 L29.6563,2.64063 L29.6563,3.89063 L28.6563,3.89063 L28.6563,2.64063 M36.3906,6.14063 C36.6406,5.69271 36.9375,5.36458 37.2813,5.15625 C37.625,4.94792 38.0313,4.84375 38.5,4.84375 C39.125,4.84375 39.6068,5.0625 39.9453,5.5 C40.2839,5.9375 40.4531,6.5625 40.4531,7.375 L40.4531,11 L39.4531,11 L39.4531,7.40625 C39.4531,6.82292 39.3516,6.39323 39.1484,6.11719 C38.9453,5.84115 38.6354,5.70313 38.2188,5.70313 C37.7083,5.70313 37.3047,5.8724 37.0078,6.21094 C36.7109,6.54948 36.5625,7.01042 36.5625,7.59375 L36.5625,11 L35.5625,11 L35.5625,7.40625 C35.5625,6.82292 35.4609,6.39323 35.2578,6.11719 C35.0547,5.84115 34.7396,5.70313 34.3125,5.70313 C33.8125,5.70313 33.4141,5.8724 33.1172,6.21094 C32.8203,6.54948 32.6719,7.01042 32.6719,7.59375 L32.6719,11 L31.6719,11 L31.6719,4.98438 L32.6719,4.98438 L32.6719,5.92188 C32.8906,5.54688 33.1589,5.27344 33.4766,5.10156 C33.7943,4.92969 34.1667,4.84375 34.5938,4.84375 C35.0313,4.84375 35.4036,4.95313 35.7109,5.17188 C36.0182,5.39063 36.2448,5.71354 36.3906,6.14063 M47.5625,7.75 L47.5625,8.23438 L43.0156,8.23438 C43.0573,8.91146 43.2604,9.42708 43.625,9.78125 C43.9896,10.1354 44.5,10.3125 45.1563,10.3125 C45.5417,10.3125 45.9115,10.2656 46.2656,10.1719 C46.6198,10.0781 46.974,9.94271 47.3281,9.76563 L47.3281,10.6875 C46.974,10.8438 46.6094,10.9609 46.2344,11.0391 C45.8594,11.1172 45.4844,11.1563 45.1094,11.1563 C44.1406,11.1563 43.3776,10.8776 42.8203,10.3203 C42.263,9.76302 41.9844,9.00521 41.9844,8.04688 C41.9844,7.06771 42.25,6.28906 42.7813,5.71094 C43.3125,5.13281 44.0313,4.84375 44.9375,4.84375 C45.7396,4.84375 46.3776,5.10417 46.8516,5.625 C47.3255,6.14583 47.5625,6.85417 47.5625,7.75 M46.5625,7.45313 C46.5625,6.91146 46.4141,6.47917 46.1172,6.15625 C45.8203,5.83333 45.4271,5.67188 44.9375,5.67188 C44.3854,5.67188 43.9453,5.82813 43.6172,6.14063 C43.2891,6.45313 43.099,6.89063 43.0469,7.45313 L46.5625,7.45313 M54.1719,7.375 L54.1719,11 L53.1875,11 L53.1875,7.40625 C53.1875,6.83333 53.0781,6.40625 52.8594,6.125 C52.6406,5.84375 52.3073,5.70313 51.8594,5.70313 C51.3281,5.70313 50.9089,5.8724 50.6016,6.21094 C50.2943,6.54948 50.1406,7.01042 50.1406,7.59375 L50.1406,11 L49.1406,11 L49.1406,4.98438 L50.1406,4.98438 L50.1406,5.92188 C50.3698,5.55729 50.6458,5.28646 50.9688,5.10938 C51.2917,4.93229 51.6615,4.84375 52.0781,4.84375 C52.7656,4.84375 53.2865,5.05729 53.6406,5.48438 C53.9948,5.91146 54.1719,6.54167 54.1719,7.375 M57.125,3.28125 L57.125,4.98438 L59.1563,4.98438 L59.1563,5.75 L57.125,5.75 L57.125,9.01563 C57.125,9.50521 57.1927,9.82031 57.3281,9.96094 C57.4635,10.1016 57.7344,10.1719 58.1406,10.1719 L59.1563,10.1719 L59.1563,11 L58.1406,11 C57.3802,11 56.8542,10.8568 56.5625,10.5703 C56.2708,10.2839 56.125,9.76563 56.125,9.01563 L56.125,5.75 L55.4063,5.75 L55.4063,4.98438 L56.125,4.98438 L56.125,3.28125 L57.125,3.28125 M62.7969,5.67188 C62.2656,5.67188 61.8464,5.88021 61.5391,6.29688 C61.2318,6.71354 61.0781,7.28125 61.0781,8 C61.0781,8.71875 61.2292,9.28385 61.5313,9.69531 C61.8333,10.1068 62.2552,10.3125 62.7969,10.3125 C63.3177,10.3125 63.7318,10.1068 64.0391,9.69531 C64.3464,9.28385 64.5,8.71875 64.5,8 C64.5,7.28125 64.3464,6.71354 64.0391,6.29688 C63.7318,5.88021 63.3177,5.67188 62.7969,5.67188 M62.7969,4.84375 C63.651,4.84375 64.3229,5.1224 64.8125,5.67969 C65.3021,6.23698 65.5469,7.01042 65.5469,8 C65.5469,8.97917 65.3021,9.75 64.8125,10.3125 C64.3229,10.875 63.651,11.1563 62.7969,11.1563 C61.9323,11.1563 61.2552,10.875 60.7656,10.3125 C60.276,9.75 60.0313,8.97917 60.0313,8 C60.0313,7.01042 60.276,6.23698 60.7656,5.67969 C61.2552,5.1224 61.9323,4.84375 62.7969,4.84375 M71.75,12.8281 L71.75,13.5938 L66.0313,13.5938 L66.0313,12.8281 L71.75,12.8281 M76.1563,5.90625 C76.0521,5.84375 75.9349,5.79688 75.8047,5.76563 C75.6745,5.73438 75.5313,5.71875 75.375,5.71875 C74.8125,5.71875 74.3828,5.90104 74.0859,6.26563 C73.7891,6.63021 73.6406,7.15104 73.6406,7.82813 L73.6406,11 L72.6406,11 L72.6406,4.98438 L73.6406,4.98438 L73.6406,5.92188 C73.8385,5.55729 74.1042,5.28646 74.4375,5.10938 C74.7708,4.93229 75.1771,4.84375 75.6563,4.84375 C75.7292,4.84375 75.8047,4.84635 75.8828,4.85156 C75.9609,4.85677 76.0521,4.86979 76.1563,4.89063 L76.1563,5.90625 M79.5313,5.67188 C79,5.67188 78.5807,5.88021 78.2734,6.29688 C77.9661,6.71354 77.8125,7.28125 77.8125,8 C77.8125,8.71875 77.9635,9.28385 78.2656,9.69531 C78.5677,10.1068 78.9896,10.3125 79.5313,10.3125 C80.0521,10.3125 80.4661,10.1068 80.7734,9.69531 C81.0807,9.28385 81.2344,8.71875 81.2344,8 C81.2344,7.28125 81.0807,6.71354 80.7734,6.29688 C80.4661,5.88021 80.0521,5.67188 79.5313,5.67188 M79.5313,4.84375 C80.3854,4.84375 81.0573,5.1224 81.5469,5.67969 C82.0365,6.23698 82.2813,7.01042 82.2813,8 C82.2813,8.97917 82.0365,9.75 81.5469,10.3125 C81.0573,10.875 80.3854,11.1563 79.5313,11.1563 C78.6667,11.1563 77.9896,10.875 77.5,10.3125 C77.0104,9.75 76.7656,8.97917 76.7656,8 C76.7656,7.01042 77.0104,6.23698 77.5,5.67969 C77.9896,5.1224 78.6667,4.84375 79.5313,4.84375 M88.2344,8 C88.2344,7.27083 88.0833,6.70052 87.7813,6.28906 C87.4792,5.8776 87.0677,5.67188 86.5469,5.67188 C86.026,5.67188 85.6172,5.8776 85.3203,6.28906 C85.0234,6.70052 84.875,7.27083 84.875,8 C84.875,8.72917 85.0234,9.29948 85.3203,9.71094 C85.6172,10.1224 86.026,10.3281 86.5469,10.3281 C87.0677,10.3281 87.4792,10.1224 87.7813,9.71094 C88.0833,9.29948 88.2344,8.72917 88.2344,8 M84.875,5.89063 C85.0729,5.53646 85.3307,5.27344 85.6484,5.10156 C85.9661,4.92969 86.349,4.84375 86.7969,4.84375 C87.526,4.84375 88.1172,5.13281 88.5703,5.71094 C89.0234,6.28906 89.25,7.05208 89.25,8 C89.25,8.94792 89.0234,9.71094 88.5703,10.2891 C88.1172,10.8672 87.526,11.1563 86.7969,11.1563 C86.349,11.1563 85.9661,11.0703 85.6484,10.8984 C85.3307,10.7266 85.0729,10.4583 84.875,10.0938 L84.875,11 L83.875,11 L83.875,2.64063 L84.875,2.64063 L84.875,5.89063 M93.2188,5.67188 C92.6875,5.67188 92.2682,5.88021 91.9609,6.29688 C91.6536,6.71354 91.5,7.28125 91.5,8 C91.5,8.71875 91.651,9.28385 91.9531,9.69531 C92.2552,10.1068 92.6771,10.3125 93.2188,10.3125 C93.7396,10.3125 94.1536,10.1068 94.4609,9.69531 C94.7682,9.28385 94.9219,8.71875 94.9219,8 C94.9219,7.28125 94.7682,6.71354 94.4609,6.29688 C94.1536,5.88021 93.7396,5.67188 93.2188,5.67188 M93.2188,4.84375 C94.0729,4.84375 94.7448,5.1224 95.2344,5.67969 C95.724,6.23698 95.9688,7.01042 95.9688,8 C95.9688,8.97917 95.724,9.75 95.2344,10.3125 C94.7448,10.875 94.0729,11.1563 93.2188,11.1563 C92.3542,11.1563 91.6771,10.875 91.1875,10.3125 C90.6979,9.75 90.4531,8.97917 90.4531,8 C90.4531,7.01042 90.6979,6.23698 91.1875,5.67969 C91.6771,5.1224 92.3542,4.84375 93.2188,4.84375 M98.5781,3.28125 L98.5781,4.98438 L100.609,4.98438 L100.609,5.75 L98.5781,5.75 L98.5781,9.01563 C98.5781,9.50521 98.6458,9.82031 98.7813,9.96094 C98.9167,10.1016 99.1875,10.1719 99.5938,10.1719 L100.609,10.1719 L100.609,11 L99.5938,11 C98.8333,11 98.3073,10.8568 98.0156,10.5703 C97.724,10.2839 97.5781,9.76563 97.5781,9.01563 L97.5781,5.75 L96.8594,5.75 L96.8594,4.98438 L97.5781,4.98438 L97.5781,3.28125 L98.5781,3.28125"/>
</g>

<g fill="none" stroke="#000000" stroke-opacity="1" stroke-width="1" stroke-linecap="square" stroke-linejoin="bevel" transform="matrix(2,0,0,2,903.463,69)"
font-family="sans" font-size="11" font-weight="100" font-style="normal" 
>
</g>

<g fill="none" stroke="#000000" stroke-opacity="1" stroke-width="1" stroke-linecap="square" stroke-linejoin="bevel" transform="matrix(2,0,0,2,903.463,69)"
font-family="Ubuntu" font-size="11" font-weight="400" font-style="normal" 
>
</g>

<g fill="none" stroke="#000000" stroke-opacity="1" stroke-width="1" stroke-linecap="square" stroke-linejoin="bevel" transform="matrix(2,0,0,2,-0.002,180)"
font-family="Ubuntu" font-size="11" font-weight="400" font-style="normal" 
>
</g>

<g fill="#000000" fill-opacity="1" stroke="#000000" stroke-opacity="1" stroke-width="1" stroke-linecap="square" stroke-linejoin="round" transform="matrix(2,0,0,2,-0.002,180)"
font-family="Ubuntu" font-size="11" font-weight="400" font-style="normal" 
>
<path vector-effect="none" fill-rule="evenodd" d="M575.35,-27.325 L574.98,-23.8425 L585.3,-26.267 L575.72,-30.8075 L575.35,-27.325"/>
</g>

<g fill="none" stroke="#000000" stroke-opacity="1" stroke-width="1" stroke-linecap="square" stroke-linejoin="bevel" transform="matrix(2,0,0,2,-0.002,180)"
font-family="Ubuntu" font-size="11" font-weight="400" font-style="normal" 
>
</g>

<g fill="none" stroke="#000000" stroke-opacity="1" stroke-width="1" stroke-linecap="square" stroke-linejoin="bevel" transform="matrix(2,0,0,2,-0.002,180)"
font-family="Ubuntu" font-size="11" font-weight="400" font-style="normal" 
>
</g>

<g fill="none" stroke="#000000" stroke-opacity="1" stroke-width="1" stroke-linecap="square" stroke-linejoin="bevel" transform="matrix(2,0,0,2,-0.002,180)"
font-family="Ubuntu" font-size="11" font-weight="400" font-style="normal" 
>
</g>

<g fill="none" stroke="#000000" stroke-opacity="1" stroke-width="1" stroke-linecap="square" stroke-linejoin="bevel" transform="matrix(2,0,0,2,-0.002,180)"
font-family="Ubuntu" font-size="11" font-weight="400" font-style="normal" 
>
</g>

<g fill="none" stroke="#000000" stroke-opacity="1" stroke-width="1" stroke-linecap="square" stroke-linejoin="round" transform="matrix(2,0,0,2,-0.002,180)"
font-family="Ubuntu" font-size="11" font-weight="400" font-style="normal" 
>
<path vector-effect="none" fill-rule="evenodd" d="M577.16,-14.594 C490.92,-11.645 354.23,-8.2515 235.99,-11 C216.84,-11.445 196.33,-12.208 176.8,-13.071 "/>
</g>

<g fill="none" stroke="#000000" stroke-opacity="1" stroke-width="1" stroke-linecap="square" stroke-linejoin="bevel" transform="matrix(2,0,0,2,-0.002,180)"
font-family="Ubuntu" font-size="11" font-weight="400" font-style="normal" 
>
</g>

<g fill="none" stroke="#000000" stroke-opacity="1" stroke-width="1" stroke-linecap="square" stroke-linejoin="bevel" transform="matrix(2,0,0,2,541.221,129)"
font-family="Ubuntu" font-size="11" font-weight="400" font-style="normal" 
>
</g>

<g fill="none" stroke="#000000" stroke-opacity="1" stroke-width="1" stroke-linecap="square" stroke-linejoin="bevel" transform="matrix(2,0,0,2,541.221,129)"
font-family="sans" font-size="11" font-weight="100" font-style="normal" 
>
</g>

<g fill="#000000" fill-opacity="1" stroke="#000000" stroke-opacity="1" stroke-width="1" stroke-linecap="square" stroke-linejoin="round" transform="matrix(2,0,0,2,541.221,129)"
font-family="sans" font-size="11" font-weight="100" font-style="normal" 
>
<path vector-effect="none" fill-rule="nonzero" d="M2.79688,2.98438 L3.70313,2.98438 L0.90625,12.0156 L0,12.0156 L2.79688,2.98438 M9.0625,5.21875 L9.0625,6.14063 C8.79167,5.98438 8.51563,5.86719 8.23438,5.78906 C7.95313,5.71094 7.66667,5.67188 7.375,5.67188 C6.73958,5.67188 6.24479,5.875 5.89063,6.28125 C5.53646,6.6875 5.35938,7.26042 5.35938,8 C5.35938,8.72917 5.53646,9.29688 5.89063,9.70313 C6.24479,10.1094 6.73958,10.3125 7.375,10.3125 C7.66667,10.3125 7.95313,10.276 8.23438,10.2031 C8.51563,10.1302 8.79167,10.0156 9.0625,9.85938 L9.0625,10.7656 C8.79167,10.901 8.50781,11 8.21094,11.0625 C7.91406,11.125 7.59896,11.1563 7.26563,11.1563 C6.35938,11.1563 5.64063,10.8724 5.10938,10.3047 C4.57813,9.73698 4.3125,8.96875 4.3125,8 C4.3125,7.02083 4.58073,6.25 5.11719,5.6875 C5.65365,5.125 6.39063,4.84375 7.32813,4.84375 C7.64063,4.84375 7.9401,4.875 8.22656,4.9375 C8.51302,5 8.79167,5.09375 9.0625,5.21875 M13.125,5.67188 C12.5938,5.67188 12.1745,5.88021 11.8672,6.29688 C11.5599,6.71354 11.4063,7.28125 11.4063,8 C11.4063,8.71875 11.5573,9.28385 11.8594,9.69531 C12.1615,10.1068 12.5833,10.3125 13.125,10.3125 C13.6458,10.3125 14.0599,10.1068 14.3672,9.69531 C14.6745,9.28385 14.8281,8.71875 14.8281,8 C14.8281,7.28125 14.6745,6.71354 14.3672,6.29688 C14.0599,5.88021 13.6458,5.67188 13.125,5.67188 M13.125,4.84375 C13.9792,4.84375 14.651,5.1224 15.1406,5.67969 C15.6302,6.23698 15.875,7.01042 15.875,8 C15.875,8.97917 15.6302,9.75 15.1406,10.3125 C14.651,10.875 13.9792,11.1563 13.125,11.1563 C12.2604,11.1563 11.5833,10.875 11.0938,10.3125 C10.6042,9.75 10.3594,8.97917 10.3594,8 C10.3594,7.01042 10.6042,6.23698 11.0938,5.67969 C11.5833,5.1224 12.2604,4.84375 13.125,4.84375 M22.5,7.375 L22.5,11 L21.5156,11 L21.5156,7.40625 C21.5156,6.83333 21.4063,6.40625 21.1875,6.125 C20.9688,5.84375 20.6354,5.70313 20.1875,5.70313 C19.6563,5.70313 19.237,5.8724 18.9297,6.21094 C18.6224,6.54948 18.4688,7.01042 18.4688,7.59375 L18.4688,11 L17.4688,11 L17.4688,4.98438 L18.4688,4.98438 L18.4688,5.92188 C18.6979,5.55729 18.974,5.28646 19.2969,5.10938 C19.6198,4.93229 19.9896,4.84375 20.4063,4.84375 C21.0938,4.84375 21.6146,5.05729 21.9688,5.48438 C22.3229,5.91146 22.5,6.54167 22.5,7.375 M28.3125,5.15625 L28.3125,6.09375 C28.0313,5.94792 27.7396,5.84115 27.4375,5.77344 C27.1354,5.70573 26.8229,5.67188 26.5,5.67188 C26.0104,5.67188 25.6432,5.7474 25.3984,5.89844 C25.1536,6.04948 25.0313,6.27083 25.0313,6.5625 C25.0313,6.79167 25.1198,6.97135 25.2969,7.10156 C25.474,7.23177 25.8281,7.35938 26.3594,7.48438 L26.6875,7.5625 C27.3958,7.70833 27.8958,7.91927 28.1875,8.19531 C28.4792,8.47135 28.625,8.85417 28.625,9.34375 C28.625,9.89583 28.4063,10.3359 27.9688,10.6641 C27.5313,10.9922 26.9219,11.1563 26.1406,11.1563 C25.8177,11.1563 25.4818,11.125 25.1328,11.0625 C24.7839,11 24.4167,10.9063 24.0313,10.7813 L24.0313,9.76563 C24.3958,9.95313 24.7552,10.0938 25.1094,10.1875 C25.4635,10.2813 25.8177,10.3281 26.1719,10.3281 C26.6302,10.3281 26.9844,10.2474 27.2344,10.0859 C27.4844,9.92448 27.6094,9.70313 27.6094,9.42188 C27.6094,9.15104 27.5208,8.94271 27.3438,8.79688 C27.1667,8.65104 26.7708,8.51563 26.1563,8.39063 L25.8125,8.29688 C25.1979,8.17188 24.7552,7.97656 24.4844,7.71094 C24.2135,7.44531 24.0781,7.07813 24.0781,6.60938 C24.0781,6.04688 24.2786,5.61198 24.6797,5.30469 C25.0807,4.9974 25.651,4.84375 26.3906,4.84375 C26.7552,4.84375 27.099,4.86979 27.4219,4.92188 C27.7448,4.97396 28.0417,5.05208 28.3125,5.15625 M35.3438,7.75 L35.3438,8.23438 L30.7969,8.23438 C30.8385,8.91146 31.0417,9.42708 31.4063,9.78125 C31.7708,10.1354 32.2813,10.3125 32.9375,10.3125 C33.3229,10.3125 33.6927,10.2656 34.0469,10.1719 C34.401,10.0781 34.7552,9.94271 35.1094,9.76563 L35.1094,10.6875 C34.7552,10.8438 34.3906,10.9609 34.0156,11.0391 C33.6406,11.1172 33.2656,11.1563 32.8906,11.1563 C31.9219,11.1563 31.1589,10.8776 30.6016,10.3203 C30.0443,9.76302 29.7656,9.00521 29.7656,8.04688 C29.7656,7.06771 30.0313,6.28906 30.5625,5.71094 C31.0938,5.13281 31.8125,4.84375 32.7188,4.84375 C33.5208,4.84375 34.1589,5.10417 34.6328,5.625 C35.1068,6.14583 35.3438,6.85417 35.3438,7.75 M34.3438,7.45313 C34.3438,6.91146 34.1953,6.47917 33.8984,6.15625 C33.6016,5.83333 33.2083,5.67188 32.7188,5.67188 C32.1667,5.67188 31.7266,5.82813 31.3984,6.14063 C31.0703,6.45313 30.8802,6.89063 30.8281,7.45313 L34.3438,7.45313 M40.9219,7.92188 C40.9219,7.20313 40.7734,6.64844 40.4766,6.25781 C40.1797,5.86719 39.7656,5.67188 39.2344,5.67188 C38.7031,5.67188 38.2891,5.86719 37.9922,6.25781 C37.6953,6.64844 37.5469,7.20313 37.5469,7.92188 C37.5469,8.63021 37.6953,9.18229 37.9922,9.57813 C38.2891,9.97396 38.7031,10.1719 39.2344,10.1719 C39.7656,10.1719 40.1797,9.97396 40.4766,9.57813 C40.7734,9.18229 40.9219,8.63021 40.9219,7.92188 M41.9063,10.25 C41.9063,11.2813 41.6797,12.0443 41.2266,12.5391 C40.7734,13.0339 40.0781,13.2813 39.1406,13.2813 C38.7865,13.2813 38.4557,13.2552 38.1484,13.2031 C37.8411,13.151 37.5417,13.0729 37.25,12.9688 L37.25,12.0156 C37.5417,12.1719 37.8281,12.2865 38.1094,12.3594 C38.3906,12.4323 38.6823,12.4688 38.9844,12.4688 C39.6302,12.4688 40.1146,12.2995 40.4375,11.9609 C40.7604,11.6224 40.9219,11.1146 40.9219,10.4375 L40.9219,9.9375 C40.7135,10.2917 40.4505,10.5573 40.1328,10.7344 C39.8151,10.9115 39.4323,11 38.9844,11 C38.2448,11 37.651,10.7188 37.2031,10.1563 C36.7552,9.59375 36.5313,8.84896 36.5313,7.92188 C36.5313,6.99479 36.7552,6.25 37.2031,5.6875 C37.651,5.125 38.2448,4.84375 38.9844,4.84375 C39.4323,4.84375 39.8151,4.92969 40.1328,5.10156 C40.4505,5.27344 40.7135,5.53646 40.9219,5.89063 L40.9219,4.98438 L41.9063,4.98438 L41.9063,10.25 M48.9219,7.375 L48.9219,11 L47.9375,11 L47.9375,7.40625 C47.9375,6.83333 47.8281,6.40625 47.6094,6.125 C47.3906,5.84375 47.0573,5.70313 46.6094,5.70313 C46.0781,5.70313 45.6589,5.8724 45.3516,6.21094 C45.0443,6.54948 44.8906,7.01042 44.8906,7.59375 L44.8906,11 L43.8906,11 L43.8906,4.98438 L44.8906,4.98438 L44.8906,5.92188 C45.1198,5.55729 45.3958,5.28646 45.7188,5.10938 C46.0417,4.93229 46.4115,4.84375 46.8281,4.84375 C47.5156,4.84375 48.0365,5.05729 48.3906,5.48438 C48.7448,5.91146 48.9219,6.54167 48.9219,7.375 M53.625,7.96875 C52.8333,7.96875 52.2839,8.0625 51.9766,8.25 C51.6693,8.4375 51.5156,8.75 51.5156,9.1875 C51.5156,9.53125 51.6302,9.80729 51.8594,10.0156 C52.0885,10.224 52.401,10.3281 52.7969,10.3281 C53.349,10.3281 53.7891,10.1328 54.1172,9.74219 C54.4453,9.35156 54.6094,8.83854 54.6094,8.20313 L54.6094,7.96875 L53.625,7.96875 M55.5938,7.5625 L55.5938,11 L54.6094,11 L54.6094,10.0938 C54.3906,10.4583 54.112,10.7266 53.7734,10.8984 C53.4349,11.0703 53.0208,11.1563 52.5313,11.1563 C51.9167,11.1563 51.4271,10.9844 51.0625,10.6406 C50.6979,10.2969 50.5156,9.83333 50.5156,9.25 C50.5156,8.57292 50.7422,8.0625 51.1953,7.71875 C51.6484,7.375 52.3281,7.20313 53.2344,7.20313 L54.6094,7.20313 L54.6094,7.10938 C54.6094,6.65104 54.4609,6.29688 54.1641,6.04688 C53.8672,5.79688 53.4479,5.67188 52.9063,5.67188 C52.5625,5.67188 52.2266,5.71354 51.8984,5.79688 C51.5703,5.88021 51.2552,6.00521 50.9531,6.17188 L50.9531,5.26563 C51.3177,5.11979 51.6719,5.01302 52.0156,4.94531 C52.3594,4.8776 52.6875,4.84375 53,4.84375 C53.875,4.84375 54.526,5.06771 54.9531,5.51563 C55.3802,5.96354 55.5938,6.64583 55.5938,7.5625 M62.2031,12.8281 L62.2031,13.5938 L56.4844,13.5938 L56.4844,12.8281 L62.2031,12.8281 M67.4531,5.21875 L67.4531,6.14063 C67.1823,5.98438 66.9063,5.86719 66.625,5.78906 C66.3438,5.71094 66.0573,5.67188 65.7656,5.67188 C65.1302,5.67188 64.6354,5.875 64.2813,6.28125 C63.9271,6.6875 63.75,7.26042 63.75,8 C63.75,8.72917 63.9271,9.29688 64.2813,9.70313 C64.6354,10.1094 65.1302,10.3125 65.7656,10.3125 C66.0573,10.3125 66.3438,10.276 66.625,10.2031 C66.9063,10.1302 67.1823,10.0156 67.4531,9.85938 L67.4531,10.7656 C67.1823,10.901 66.8984,11 66.6016,11.0625 C66.3047,11.125 65.9896,11.1563 65.6563,11.1563 C64.75,11.1563 64.0313,10.8724 63.5,10.3047 C62.9688,9.73698 62.7031,8.96875 62.7031,8 C62.7031,7.02083 62.9714,6.25 63.5078,5.6875 C64.0443,5.125 64.7813,4.84375 65.7188,4.84375 C66.0313,4.84375 66.3307,4.875 66.6172,4.9375 C66.9036,5 67.1823,5.09375 67.4531,5.21875 M71.5156,5.67188 C70.9844,5.67188 70.5651,5.88021 70.2578,6.29688 C69.9505,6.71354 69.7969,7.28125 69.7969,8 C69.7969,8.71875 69.9479,9.28385 70.25,9.69531 C70.5521,10.1068 70.974,10.3125 71.5156,10.3125 C72.0365,10.3125 72.4505,10.1068 72.7578,9.69531 C73.0651,9.28385 73.2188,8.71875 73.2188,8 C73.2188,7.28125 73.0651,6.71354 72.7578,6.29688 C72.4505,5.88021 72.0365,5.67188 71.5156,5.67188 M71.5156,4.84375 C72.3698,4.84375 73.0417,5.1224 73.5313,5.67969 C74.0208,6.23698 74.2656,7.01042 74.2656,8 C74.2656,8.97917 74.0208,9.75 73.5313,10.3125 C73.0417,10.875 72.3698,11.1563 71.5156,11.1563 C70.651,11.1563 69.974,10.875 69.4844,10.3125 C68.9948,9.75 68.75,8.97917 68.75,8 C68.75,7.01042 68.9948,6.23698 69.4844,5.67969 C69.974,5.1224 70.651,4.84375 71.5156,4.84375 M80.5781,6.14063 C80.8281,5.69271 81.125,5.36458 81.4688,5.15625 C81.8125,4.94792 82.2188,4.84375 82.6875,4.84375 C83.3125,4.84375 83.7943,5.0625 84.1328,5.5 C84.4714,5.9375 84.6406,6.5625 84.6406,7.375 L84.6406,11 L83.6406,11 L83.6406,7.40625 C83.6406,6.82292 83.5391,6.39323 83.3359,6.11719 C83.1328,5.84115 82.8229,5.70313 82.4063,5.70313 C81.8958,5.70313 81.4922,5.8724 81.1953,6.21094 C80.8984,6.54948 80.75,7.01042 80.75,7.59375 L80.75,11 L79.75,11 L79.75,7.40625 C79.75,6.82292 79.6484,6.39323 79.4453,6.11719 C79.2422,5.84115 78.9271,5.70313 78.5,5.70313 C78,5.70313 77.6016,5.8724 77.3047,6.21094 C77.0078,6.54948 76.8594,7.01042 76.8594,7.59375 L76.8594,11 L75.8594,11 L75.8594,4.98438 L76.8594,4.98438 L76.8594,5.92188 C77.0781,5.54688 77.3464,5.27344 77.6641,5.10156 C77.9818,4.92969 78.3542,4.84375 78.7813,4.84375 C79.2188,4.84375 79.5911,4.95313 79.8984,5.17188 C80.2057,5.39063 80.4323,5.71354 80.5781,6.14063 M87.5625,10.0938 L87.5625,13.2813 L86.5625,13.2813 L86.5625,4.98438 L87.5625,4.98438 L87.5625,5.89063 C87.7604,5.53646 88.0182,5.27344 88.3359,5.10156 C88.6536,4.92969 89.0365,4.84375 89.4844,4.84375 C90.2135,4.84375 90.8047,5.13281 91.2578,5.71094 C91.7109,6.28906 91.9375,7.05208 91.9375,8 C91.9375,8.94792 91.7109,9.71094 91.2578,10.2891 C90.8047,10.8672 90.2135,11.1563 89.4844,11.1563 C89.0365,11.1563 88.6536,11.0703 88.3359,10.8984 C88.0182,10.7266 87.7604,10.4583 87.5625,10.0938 M90.9219,8 C90.9219,7.27083 90.7708,6.70052 90.4688,6.28906 C90.1667,5.8776 89.7552,5.67188 89.2344,5.67188 C88.7135,5.67188 88.3047,5.8776 88.0078,6.28906 C87.7109,6.70052 87.5625,7.27083 87.5625,8 C87.5625,8.72917 87.7109,9.29948 88.0078,9.71094 C88.3047,10.1224 88.7135,10.3281 89.2344,10.3281 C89.7552,10.3281 90.1667,10.1224 90.4688,9.71094 C90.7708,9.29948 90.9219,8.72917 90.9219,8 M93.5625,2.64063 L94.5625,2.64063 L94.5625,11 L93.5625,11 L93.5625,2.64063 M101.766,7.75 L101.766,8.23438 L97.2188,8.23438 C97.2604,8.91146 97.4635,9.42708 97.8281,9.78125 C98.1927,10.1354 98.7031,10.3125 99.3594,10.3125 C99.7448,10.3125 100.115,10.2656 100.469,10.1719 C100.823,10.0781 101.177,9.94271 101.531,9.76563 L101.531,10.6875 C101.177,10.8438 100.813,10.9609 100.438,11.0391 C100.063,11.1172 99.6875,11.1563 99.3125,11.1563 C98.3438,11.1563 97.5807,10.8776 97.0234,10.3203 C96.4661,9.76302 96.1875,9.00521 96.1875,8.04688 C96.1875,7.06771 96.4531,6.28906 96.9844,5.71094 C97.5156,5.13281 98.2344,4.84375 99.1406,4.84375 C99.9427,4.84375 100.581,5.10417 101.055,5.625 C101.529,6.14583 101.766,6.85417 101.766,7.75 M100.766,7.45313 C100.766,6.91146 100.617,6.47917 100.32,6.15625 C100.023,5.83333 99.6302,5.67188 99.1406,5.67188 C98.5885,5.67188 98.1484,5.82813 97.8203,6.14063 C97.4922,6.45313 97.3021,6.89063 97.25,7.45313 L100.766,7.45313 M104.359,3.28125 L104.359,4.98438 L106.391,4.98438 L106.391,5.75 L104.359,5.75 L104.359,9.01563 C104.359,9.50521 104.427,9.82031 104.563,9.96094 C104.698,10.1016 104.969,10.1719 105.375,10.1719 L106.391,10.1719 L106.391,11 L105.375,11 C104.615,11 104.089,10.8568 103.797,10.5703 C103.505,10.2839 103.359,9.76563 103.359,9.01563 L103.359,5.75 L102.641,5.75 L102.641,4.98438 L103.359,4.98438 L103.359,3.28125 L104.359,3.28125 M110.422,7.96875 C109.63,7.96875 109.081,8.0625 108.773,8.25 C108.466,8.4375 108.313,8.75 108.313,9.1875 C108.313,9.53125 108.427,9.80729 108.656,10.0156 C108.885,10.224 109.198,10.3281 109.594,10.3281 C110.146,10.3281 110.586,10.1328 110.914,9.74219 C111.242,9.35156 111.406,8.83854 111.406,8.20313 L111.406,7.96875 L110.422,7.96875 M112.391,7.5625 L112.391,11 L111.406,11 L111.406,10.0938 C111.188,10.4583 110.909,10.7266 110.57,10.8984 C110.232,11.0703 109.818,11.1563 109.328,11.1563 C108.714,11.1563 108.224,10.9844 107.859,10.6406 C107.495,10.2969 107.313,9.83333 107.313,9.25 C107.313,8.57292 107.539,8.0625 107.992,7.71875 C108.445,7.375 109.125,7.20313 110.031,7.20313 L111.406,7.20313 L111.406,7.10938 C111.406,6.65104 111.258,6.29688 110.961,6.04688 C110.664,5.79688 110.245,5.67188 109.703,5.67188 C109.359,5.67188 109.023,5.71354 108.695,5.79688 C108.367,5.88021 108.052,6.00521 107.75,6.17188 L107.75,5.26563 C108.115,5.11979 108.469,5.01302 108.813,4.94531 C109.156,4.8776 109.484,4.84375 109.797,4.84375 C110.672,4.84375 111.323,5.06771 111.75,5.51563 C112.177,5.96354 112.391,6.64583 112.391,7.5625 M115.406,3.28125 L115.406,4.98438 L117.438,4.98438 L117.438,5.75 L115.406,5.75 L115.406,9.01563 C115.406,9.50521 115.474,9.82031 115.609,9.96094 C115.745,10.1016 116.016,10.1719 116.422,10.1719 L117.438,10.1719 L117.438,11 L116.422,11 C115.661,11 115.135,10.8568 114.844,10.5703 C114.552,10.2839 114.406,9.76563 114.406,9.01563 L114.406,5.75 L113.688,5.75 L113.688,4.98438 L114.406,4.98438 L114.406,3.28125 L115.406,3.28125 M121.469,7.96875 C120.677,7.96875 120.128,8.0625 119.82,8.25 C119.513,8.4375 119.359,8.75 119.359,9.1875 C119.359,9.53125 119.474,9.80729 119.703,10.0156 C119.932,10.224 120.245,10.3281 120.641,10.3281 C121.193,10.3281 121.633,10.1328 121.961,9.74219 C122.289,9.35156 122.453,8.83854 122.453,8.20313 L122.453,7.96875 L121.469,7.96875 M123.438,7.5625 L123.438,11 L122.453,11 L122.453,10.0938 C122.234,10.4583 121.956,10.7266 121.617,10.8984 C121.279,11.0703 120.865,11.1563 120.375,11.1563 C119.76,11.1563 119.271,10.9844 118.906,10.6406 C118.542,10.2969 118.359,9.83333 118.359,9.25 C118.359,8.57292 118.586,8.0625 119.039,7.71875 C119.492,7.375 120.172,7.20313 121.078,7.20313 L122.453,7.20313 L122.453,7.10938 C122.453,6.65104 122.305,6.29688 122.008,6.04688 C121.711,5.79688 121.292,5.67188 120.75,5.67188 C120.406,5.67188 120.07,5.71354 119.742,5.79688 C119.414,5.88021 119.099,6.00521 118.797,6.17188 L118.797,5.26563 C119.161,5.11979 119.516,5.01302 119.859,4.94531 C120.203,4.8776 120.531,4.84375 120.844,4.84375 C121.719,4.84375 122.37,5.06771 122.797,5.51563 C123.224,5.96354 123.438,6.64583 123.438,7.5625 "/>
</g>

<g fill="none" stroke="#000000" stroke-opacity="1" stroke-width="1" stroke-linecap="square" stroke-linejoin="bevel" transform="matrix(2,0,0,2,541.221,129)"
font-family="sans" font-size="11" font-weight="100" font-style="normal" 
>
</g>

<g fill="none" stroke="#000000" stroke-opacity="1" stroke-width="1" stroke-linecap="square" stroke-linejoin="bevel" transform="matrix(2,0,0,2,541.221,129)"
font-family="Ubuntu" font-size="11" font-weight="400" font-style="normal" 
>
</g>

<g fill="none" stroke="#000000" stroke-opacity="1" stroke-width="1" stroke-linecap="square" stroke-linejoin="bevel" transform="matrix(2,0,0,2,-0.002,180)"
font-family="Ubuntu" font-size="11" font-weight="400" font-style="normal" 
>
</g>

<g fill="#000000" fill-opacity="1" stroke="#000000" stroke-opacity="1" stroke-width="1" stroke-linecap="square" stroke-linejoin="round" transform="matrix(2,0,0,2,-0.002,180)"
font-family="Ubuntu" font-size="11" font-weight="400" font-style="normal" 
>
<path vector-effect="none" fill-rule="evenodd" d="M176.8,-13.071 L176.961,-16.606 L166.7,-13.531 L176.639,-9.536 L176.8,-13.071"/>
</g>

<g fill="none" stroke="#000000" stroke-opacity="1" stroke-width="1" stroke-linecap="square" stroke-linejoin="bevel" transform="matrix(2,0,0,2,-0.002,180)"
font-family="Ubuntu" font-size="11" font-weight="400" font-style="normal" 
>
</g>

<g fill="none" stroke="#000000" stroke-opacity="1" stroke-width="1" stroke-linecap="square" stroke-linejoin="bevel" transform="matrix(1,0,0,1,0,0)"
font-family="Ubuntu" font-size="11" font-weight="400" font-style="normal" 
>
</g>
</g>
</svg>
