<?xml version="1.0" encoding="UTF-8" standalone="no"?>
<svg width="408.517mm" height="63.5mm"
 xmlns="http://www.w3.org/2000/svg" xmlns:xlink="http://www.w3.org/1999/xlink"  version="1.2" baseProfile="tiny">
<title>Qt SVG Document</title>
<desc>Generated with Qt</desc>
<defs>
</defs>
<g fill="none" stroke="black" stroke-width="1" fill-rule="evenodd" stroke-linecap="square" stroke-linejoin="bevel" >

<g fill="none" stroke="#000000" stroke-opacity="1" stroke-width="1" stroke-linecap="square" stroke-linejoin="bevel" transform="matrix(1,0,0,1,0,0)"
font-family="Ubuntu" font-size="11" font-weight="400" font-style="normal" 
>
</g>

<g fill="none" stroke="#000000" stroke-opacity="1" stroke-width="1" stroke-linecap="square" stroke-linejoin="bevel" transform="matrix(1,0,0,1,0,0)"
font-family="Ubuntu" font-size="11" font-weight="400" font-style="normal" 
>
</g>

<g fill="none" stroke="#000000" stroke-opacity="1" stroke-width="1" stroke-linecap="square" stroke-linejoin="bevel" transform="matrix(1.9995,0,0,1.9995,-0.00959759,179.955)"
font-family="Ubuntu" font-size="11" font-weight="400" font-style="normal" 
>
</g>

<g fill="#ffffff" fill-opacity="1" stroke="none" transform="matrix(1.9995,0,0,1.9995,-0.00959759,179.955)"
font-family="Ubuntu" font-size="11" font-weight="400" font-style="normal" 
>
<rect x="0.0048" y="-90" width="579.145" height="90"/>
</g>

<g fill="none" stroke="#000000" stroke-opacity="1" stroke-width="1" stroke-linecap="square" stroke-linejoin="bevel" transform="matrix(1.9995,0,0,1.9995,-0.00959759,179.955)"
font-family="Ubuntu" font-size="11" font-weight="400" font-style="normal" 
>
</g>

<g fill="none" stroke="#000000" stroke-opacity="1" stroke-width="1" stroke-linecap="square" stroke-linejoin="bevel" transform="matrix(1.9995,0,0,1.9995,-0.00959759,179.955)"
font-family="Ubuntu" font-size="11" font-weight="400" font-style="normal" 
>
</g>

<g fill="none" stroke="#000000" stroke-opacity="1" stroke-width="1" stroke-linecap="square" stroke-linejoin="bevel" transform="matrix(1.9995,0,0,1.9995,-0.00959759,179.955)"
font-family="Ubuntu" font-size="11" font-weight="400" font-style="normal" 
>
</g>

<g fill="none" stroke="#000000" stroke-opacity="1" stroke-width="1" stroke-linecap="square" stroke-linejoin="bevel" transform="matrix(1.9995,0,0,1.9995,-0.00959759,179.955)"
font-family="Ubuntu" font-size="11" font-weight="400" font-style="normal" 
>
</g>

<g fill="none" stroke="#000000" stroke-opacity="1" stroke-width="1" stroke-linecap="square" stroke-linejoin="round" transform="matrix(1.9995,0,0,1.9995,-0.00959759,179.955)"
font-family="Ubuntu" font-size="11" font-weight="400" font-style="normal" 
>
<ellipse cx="482.31" cy="-72" rx="83.992" ry="17.5"/>
</g>

<g fill="none" stroke="#000000" stroke-opacity="1" stroke-width="1" stroke-linecap="square" stroke-linejoin="bevel" transform="matrix(1.9995,0,0,1.9995,-0.00959759,179.955)"
font-family="Ubuntu" font-size="11" font-weight="400" font-style="normal" 
>
</g>

<g fill="none" stroke="#000000" stroke-opacity="1" stroke-width="1" stroke-linecap="square" stroke-linejoin="bevel" transform="matrix(1.9995,0,0,1.9995,876.313,21.9945)"
font-family="Ubuntu" font-size="11" font-weight="400" font-style="normal" 
>
</g>

<g fill="none" stroke="#000000" stroke-opacity="1" stroke-width="1" stroke-linecap="square" stroke-linejoin="bevel" transform="matrix(1.9995,0,0,1.9995,876.313,21.9945)"
font-family="sans" font-size="11" font-weight="100" font-style="normal" 
>
</g>

<g fill="#000000" fill-opacity="1" stroke="#000000" stroke-opacity="1" stroke-width="1" stroke-linecap="square" stroke-linejoin="round" transform="matrix(1.9995,0,0,1.9995,876.313,21.9945)"
font-family="sans" font-size="11" font-weight="100" font-style="normal" 
>
<path vector-effect="none" fill-rule="nonzero" d="M2.79688,2.98438 L3.70313,2.98438 L0.90625,12.0156 L0,12.0156 L2.79688,2.98438 M7.07813,5.67188 C6.54688,5.67188 6.1276,5.88021 5.82031,6.29688 C5.51302,6.71354 5.35938,7.28125 5.35938,8 C5.35938,8.71875 5.51042,9.28385 5.8125,9.69531 C6.11458,10.1068 6.53646,10.3125 7.07813,10.3125 C7.59896,10.3125 8.01302,10.1068 8.32031,9.69531 C8.6276,9.28385 8.78125,8.71875 8.78125,8 C8.78125,7.28125 8.6276,6.71354 8.32031,6.29688 C8.01302,5.88021 7.59896,5.67188 7.07813,5.67188 M7.07813,4.84375 C7.93229,4.84375 8.60417,5.1224 9.09375,5.67969 C9.58333,6.23698 9.82813,7.01042 9.82813,8 C9.82813,8.97917 9.58333,9.75 9.09375,10.3125 C8.60417,10.875 7.93229,11.1563 7.07813,11.1563 C6.21354,11.1563 5.53646,10.875 5.04688,10.3125 C4.55729,9.75 4.3125,8.97917 4.3125,8 C4.3125,7.01042 4.55729,6.23698 5.04688,5.67969 C5.53646,5.1224 6.21354,4.84375 7.07813,4.84375 M14.9375,5.90625 C14.8333,5.84375 14.7161,5.79688 14.5859,5.76563 C14.4557,5.73438 14.3125,5.71875 14.1563,5.71875 C13.5938,5.71875 13.1641,5.90104 12.8672,6.26563 C12.5703,6.63021 12.4219,7.15104 12.4219,7.82813 L12.4219,11 L11.4219,11 L11.4219,4.98438 L12.4219,4.98438 L12.4219,5.92188 C12.6198,5.55729 12.8854,5.28646 13.2188,5.10938 C13.5521,4.93229 13.9583,4.84375 14.4375,4.84375 C14.5104,4.84375 14.5859,4.84635 14.6641,4.85156 C14.7422,4.85677 14.8333,4.86979 14.9375,4.89063 L14.9375,5.90625 M19.9375,5.89063 L19.9375,2.64063 L20.9219,2.64063 L20.9219,11 L19.9375,11 L19.9375,10.0938 C19.7292,10.4583 19.4661,10.7266 19.1484,10.8984 C18.8307,11.0703 18.4479,11.1563 18,11.1563 C17.2813,11.1563 16.6927,10.8672 16.2344,10.2891 C15.776,9.71094 15.5469,8.94792 15.5469,8 C15.5469,7.05208 15.776,6.28906 16.2344,5.71094 C16.6927,5.13281 17.2813,4.84375 18,4.84375 C18.4479,4.84375 18.8307,4.92969 19.1484,5.10156 C19.4661,5.27344 19.7292,5.53646 19.9375,5.89063 M16.5625,8 C16.5625,8.72917 16.7135,9.29948 17.0156,9.71094 C17.3177,10.1224 17.7292,10.3281 18.25,10.3281 C18.7708,10.3281 19.1823,10.1224 19.4844,9.71094 C19.7865,9.29948 19.9375,8.72917 19.9375,8 C19.9375,7.27083 19.7865,6.70052 19.4844,6.28906 C19.1823,5.8776 18.7708,5.67188 18.25,5.67188 C17.7292,5.67188 17.3177,5.8776 17.0156,6.28906 C16.7135,6.70052 16.5625,7.27083 16.5625,8 M28.0938,7.75 L28.0938,8.23438 L23.5469,8.23438 C23.5885,8.91146 23.7917,9.42708 24.1563,9.78125 C24.5208,10.1354 25.0313,10.3125 25.6875,10.3125 C26.0729,10.3125 26.4427,10.2656 26.7969,10.1719 C27.151,10.0781 27.5052,9.94271 27.8594,9.76563 L27.8594,10.6875 C27.5052,10.8438 27.1406,10.9609 26.7656,11.0391 C26.3906,11.1172 26.0156,11.1563 25.6406,11.1563 C24.6719,11.1563 23.9089,10.8776 23.3516,10.3203 C22.7943,9.76302 22.5156,9.00521 22.5156,8.04688 C22.5156,7.06771 22.7813,6.28906 23.3125,5.71094 C23.8438,5.13281 24.5625,4.84375 25.4688,4.84375 C26.2708,4.84375 26.9089,5.10417 27.3828,5.625 C27.8568,6.14583 28.0938,6.85417 28.0938,7.75 M27.0938,7.45313 C27.0938,6.91146 26.9453,6.47917 26.6484,6.15625 C26.3516,5.83333 25.9583,5.67188 25.4688,5.67188 C24.9167,5.67188 24.4766,5.82813 24.1484,6.14063 C23.8203,6.45313 23.6302,6.89063 23.5781,7.45313 L27.0938,7.45313 M33.1875,5.90625 C33.0833,5.84375 32.9661,5.79688 32.8359,5.76563 C32.7057,5.73438 32.5625,5.71875 32.4063,5.71875 C31.8438,5.71875 31.4141,5.90104 31.1172,6.26563 C30.8203,6.63021 30.6719,7.15104 30.6719,7.82813 L30.6719,11 L29.6719,11 L29.6719,4.98438 L30.6719,4.98438 L30.6719,5.92188 C30.8698,5.55729 31.1354,5.28646 31.4688,5.10938 C31.8021,4.93229 32.2083,4.84375 32.6875,4.84375 C32.7604,4.84375 32.8359,4.84635 32.9141,4.85156 C32.9922,4.85677 33.0833,4.86979 33.1875,4.89063 L33.1875,5.90625 M38.7969,12.8281 L38.7969,13.5938 L33.0781,13.5938 L33.0781,12.8281 L38.7969,12.8281 M44.4063,6.14063 C44.6563,5.69271 44.9531,5.36458 45.2969,5.15625 C45.6406,4.94792 46.0469,4.84375 46.5156,4.84375 C47.1406,4.84375 47.6224,5.0625 47.9609,5.5 C48.2995,5.9375 48.4688,6.5625 48.4688,7.375 L48.4688,11 L47.4688,11 L47.4688,7.40625 C47.4688,6.82292 47.3672,6.39323 47.1641,6.11719 C46.9609,5.84115 46.651,5.70313 46.2344,5.70313 C45.724,5.70313 45.3203,5.8724 45.0234,6.21094 C44.7266,6.54948 44.5781,7.01042 44.5781,7.59375 L44.5781,11 L43.5781,11 L43.5781,7.40625 C43.5781,6.82292 43.4766,6.39323 43.2734,6.11719 C43.0703,5.84115 42.7552,5.70313 42.3281,5.70313 C41.8281,5.70313 41.4297,5.8724 41.1328,6.21094 C40.8359,6.54948 40.6875,7.01042 40.6875,7.59375 L40.6875,11 L39.6875,11 L39.6875,4.98438 L40.6875,4.98438 L40.6875,5.92188 C40.9063,5.54688 41.1745,5.27344 41.4922,5.10156 C41.8099,4.92969 42.1823,4.84375 42.6094,4.84375 C43.0469,4.84375 43.4193,4.95313 43.7266,5.17188 C44.0339,5.39063 44.2604,5.71354 44.4063,6.14063 M53.1563,7.96875 C52.3646,7.96875 51.8151,8.0625 51.5078,8.25 C51.2005,8.4375 51.0469,8.75 51.0469,9.1875 C51.0469,9.53125 51.1615,9.80729 51.3906,10.0156 C51.6198,10.224 51.9323,10.3281 52.3281,10.3281 C52.8802,10.3281 53.3203,10.1328 53.6484,9.74219 C53.9766,9.35156 54.1406,8.83854 54.1406,8.20313 L54.1406,7.96875 L53.1563,7.96875 M55.125,7.5625 L55.125,11 L54.1406,11 L54.1406,10.0938 C53.9219,10.4583 53.6432,10.7266 53.3047,10.8984 C52.9661,11.0703 52.5521,11.1563 52.0625,11.1563 C51.4479,11.1563 50.9583,10.9844 50.5938,10.6406 C50.2292,10.2969 50.0469,9.83333 50.0469,9.25 C50.0469,8.57292 50.2734,8.0625 50.7266,7.71875 C51.1797,7.375 51.8594,7.20313 52.7656,7.20313 L54.1406,7.20313 L54.1406,7.10938 C54.1406,6.65104 53.9922,6.29688 53.6953,6.04688 C53.3984,5.79688 52.9792,5.67188 52.4375,5.67188 C52.0938,5.67188 51.7578,5.71354 51.4297,5.79688 C51.1016,5.88021 50.7865,6.00521 50.4844,6.17188 L50.4844,5.26563 C50.849,5.11979 51.2031,5.01302 51.5469,4.94531 C51.8906,4.8776 52.2188,4.84375 52.5313,4.84375 C53.4063,4.84375 54.0573,5.06771 54.4844,5.51563 C54.9115,5.96354 55.125,6.64583 55.125,7.5625 M62.1563,7.375 L62.1563,11 L61.1719,11 L61.1719,7.40625 C61.1719,6.83333 61.0625,6.40625 60.8438,6.125 C60.625,5.84375 60.2917,5.70313 59.8438,5.70313 C59.3125,5.70313 58.8932,5.8724 58.5859,6.21094 C58.2786,6.54948 58.125,7.01042 58.125,7.59375 L58.125,11 L57.125,11 L57.125,4.98438 L58.125,4.98438 L58.125,5.92188 C58.3542,5.55729 58.6302,5.28646 58.9531,5.10938 C59.276,4.93229 59.6458,4.84375 60.0625,4.84375 C60.75,4.84375 61.2708,5.05729 61.625,5.48438 C61.9792,5.91146 62.1563,6.54167 62.1563,7.375 M66.8594,7.96875 C66.0677,7.96875 65.5182,8.0625 65.2109,8.25 C64.9036,8.4375 64.75,8.75 64.75,9.1875 C64.75,9.53125 64.8646,9.80729 65.0938,10.0156 C65.3229,10.224 65.6354,10.3281 66.0313,10.3281 C66.5833,10.3281 67.0234,10.1328 67.3516,9.74219 C67.6797,9.35156 67.8438,8.83854 67.8438,8.20313 L67.8438,7.96875 L66.8594,7.96875 M68.8281,7.5625 L68.8281,11 L67.8438,11 L67.8438,10.0938 C67.625,10.4583 67.3464,10.7266 67.0078,10.8984 C66.6693,11.0703 66.2552,11.1563 65.7656,11.1563 C65.151,11.1563 64.6615,10.9844 64.2969,10.6406 C63.9323,10.2969 63.75,9.83333 63.75,9.25 C63.75,8.57292 63.9766,8.0625 64.4297,7.71875 C64.8828,7.375 65.5625,7.20313 66.4688,7.20313 L67.8438,7.20313 L67.8438,7.10938 C67.8438,6.65104 67.6953,6.29688 67.3984,6.04688 C67.1016,5.79688 66.6823,5.67188 66.1406,5.67188 C65.7969,5.67188 65.4609,5.71354 65.1328,5.79688 C64.8047,5.88021 64.4896,6.00521 64.1875,6.17188 L64.1875,5.26563 C64.5521,5.11979 64.9063,5.01302 65.25,4.94531 C65.5938,4.8776 65.9219,4.84375 66.2344,4.84375 C67.1094,4.84375 67.7604,5.06771 68.1875,5.51563 C68.6146,5.96354 68.8281,6.64583 68.8281,7.5625 M74.8281,7.92188 C74.8281,7.20313 74.6797,6.64844 74.3828,6.25781 C74.0859,5.86719 73.6719,5.67188 73.1406,5.67188 C72.6094,5.67188 72.1953,5.86719 71.8984,6.25781 C71.6016,6.64844 71.4531,7.20313 71.4531,7.92188 C71.4531,8.63021 71.6016,9.18229 71.8984,9.57813 C72.1953,9.97396 72.6094,10.1719 73.1406,10.1719 C73.6719,10.1719 74.0859,9.97396 74.3828,9.57813 C74.6797,9.18229 74.8281,8.63021 74.8281,7.92188 M75.8125,10.25 C75.8125,11.2813 75.5859,12.0443 75.1328,12.5391 C74.6797,13.0339 73.9844,13.2813 73.0469,13.2813 C72.6927,13.2813 72.362,13.2552 72.0547,13.2031 C71.7474,13.151 71.4479,13.0729 71.1563,12.9688 L71.1563,12.0156 C71.4479,12.1719 71.7344,12.2865 72.0156,12.3594 C72.2969,12.4323 72.5885,12.4688 72.8906,12.4688 C73.5365,12.4688 74.0208,12.2995 74.3438,11.9609 C74.6667,11.6224 74.8281,11.1146 74.8281,10.4375 L74.8281,9.9375 C74.6198,10.2917 74.3568,10.5573 74.0391,10.7344 C73.7214,10.9115 73.3385,11 72.8906,11 C72.151,11 71.5573,10.7188 71.1094,10.1563 C70.6615,9.59375 70.4375,8.84896 70.4375,7.92188 C70.4375,6.99479 70.6615,6.25 71.1094,5.6875 C71.5573,5.125 72.151,4.84375 72.8906,4.84375 C73.3385,4.84375 73.7214,4.92969 74.0391,5.10156 C74.3568,5.27344 74.6198,5.53646 74.8281,5.89063 L74.8281,4.98438 L75.8125,4.98438 L75.8125,10.25 M82.9844,7.75 L82.9844,8.23438 L78.4375,8.23438 C78.4792,8.91146 78.6823,9.42708 79.0469,9.78125 C79.4115,10.1354 79.9219,10.3125 80.5781,10.3125 C80.9635,10.3125 81.3333,10.2656 81.6875,10.1719 C82.0417,10.0781 82.3958,9.94271 82.75,9.76563 L82.75,10.6875 C82.3958,10.8438 82.0313,10.9609 81.6563,11.0391 C81.2813,11.1172 80.9063,11.1563 80.5313,11.1563 C79.5625,11.1563 78.7995,10.8776 78.2422,10.3203 C77.6849,9.76302 77.4063,9.00521 77.4063,8.04688 C77.4063,7.06771 77.6719,6.28906 78.2031,5.71094 C78.7344,5.13281 79.4531,4.84375 80.3594,4.84375 C81.1615,4.84375 81.7995,5.10417 82.2734,5.625 C82.7474,6.14583 82.9844,6.85417 82.9844,7.75 M81.9844,7.45313 C81.9844,6.91146 81.8359,6.47917 81.5391,6.15625 C81.2422,5.83333 80.849,5.67188 80.3594,5.67188 C79.8073,5.67188 79.3672,5.82813 79.0391,6.14063 C78.7109,6.45313 78.5208,6.89063 78.4688,7.45313 L81.9844,7.45313 M88.0781,5.90625 C87.974,5.84375 87.8568,5.79688 87.7266,5.76563 C87.5964,5.73438 87.4531,5.71875 87.2969,5.71875 C86.7344,5.71875 86.3047,5.90104 86.0078,6.26563 C85.7109,6.63021 85.5625,7.15104 85.5625,7.82813 L85.5625,11 L84.5625,11 L84.5625,4.98438 L85.5625,4.98438 L85.5625,5.92188 C85.7604,5.55729 86.026,5.28646 86.3594,5.10938 C86.6927,4.93229 87.099,4.84375 87.5781,4.84375 C87.651,4.84375 87.7266,4.84635 87.8047,4.85156 C87.8828,4.85677 87.974,4.86979 88.0781,4.89063 L88.0781,5.90625"/>
</g>

<g fill="none" stroke="#000000" stroke-opacity="1" stroke-width="1" stroke-linecap="square" stroke-linejoin="bevel" transform="matrix(1.9995,0,0,1.9995,876.313,21.9945)"
font-family="sans" font-size="11" font-weight="100" font-style="normal" 
>
</g>

<g fill="none" stroke="#000000" stroke-opacity="1" stroke-width="1" stroke-linecap="square" stroke-linejoin="bevel" transform="matrix(1.9995,0,0,1.9995,876.313,21.9945)"
font-family="Ubuntu" font-size="11" font-weight="400" font-style="normal" 
>
</g>

<g fill="none" stroke="#000000" stroke-opacity="1" stroke-width="1" stroke-linecap="square" stroke-linejoin="bevel" transform="matrix(1.9995,0,0,1.9995,-0.00959759,179.955)"
font-family="Ubuntu" font-size="11" font-weight="400" font-style="normal" 
>
</g>

<g fill="none" stroke="#000000" stroke-opacity="1" stroke-width="1" stroke-linecap="square" stroke-linejoin="bevel" transform="matrix(1.9995,0,0,1.9995,-0.00959759,179.955)"
font-family="Ubuntu" font-size="11" font-weight="400" font-style="normal" 
>
</g>

<g fill="none" stroke="#000000" stroke-opacity="1" stroke-width="1" stroke-linecap="square" stroke-linejoin="bevel" transform="matrix(1.9995,0,0,1.9995,-0.00959759,179.955)"
font-family="Ubuntu" font-size="11" font-weight="400" font-style="normal" 
>
</g>

<g fill="none" stroke="#000000" stroke-opacity="1" stroke-width="1" stroke-linecap="square" stroke-linejoin="round" transform="matrix(1.9995,0,0,1.9995,-0.00959759,179.955)"
font-family="Ubuntu" font-size="11" font-weight="400" font-style="normal" 
>
<ellipse cx="482.31" cy="-18" rx="96.34" ry="17.5"/>
</g>

<g fill="none" stroke="#000000" stroke-opacity="1" stroke-width="1" stroke-linecap="square" stroke-linejoin="bevel" transform="matrix(1.9995,0,0,1.9995,-0.00959759,179.955)"
font-family="Ubuntu" font-size="11" font-weight="400" font-style="normal" 
>
</g>

<g fill="none" stroke="#000000" stroke-opacity="1" stroke-width="1" stroke-linecap="square" stroke-linejoin="bevel" transform="matrix(1.9995,0,0,1.9995,861.691,129.967)"
font-family="Ubuntu" font-size="11" font-weight="400" font-style="normal" 
>
</g>

<g fill="none" stroke="#000000" stroke-opacity="1" stroke-width="1" stroke-linecap="square" stroke-linejoin="bevel" transform="matrix(1.9995,0,0,1.9995,861.691,129.967)"
font-family="sans" font-size="11" font-weight="100" font-style="normal" 
>
</g>

<g fill="#000000" fill-opacity="1" stroke="#000000" stroke-opacity="1" stroke-width="1" stroke-linecap="square" stroke-linejoin="round" transform="matrix(1.9995,0,0,1.9995,861.691,129.967)"
font-family="sans" font-size="11" font-weight="100" font-style="normal" 
>
<path vector-effect="none" fill-rule="nonzero" d="M2.79688,2.98438 L3.70313,2.98438 L0.90625,12.0156 L0,12.0156 L2.79688,2.98438 M8.70313,5.89063 L8.70313,2.64063 L9.6875,2.64063 L9.6875,11 L8.70313,11 L8.70313,10.0938 C8.49479,10.4583 8.23177,10.7266 7.91406,10.8984 C7.59635,11.0703 7.21354,11.1563 6.76563,11.1563 C6.04688,11.1563 5.45833,10.8672 5,10.2891 C4.54167,9.71094 4.3125,8.94792 4.3125,8 C4.3125,7.05208 4.54167,6.28906 5,5.71094 C5.45833,5.13281 6.04688,4.84375 6.76563,4.84375 C7.21354,4.84375 7.59635,4.92969 7.91406,5.10156 C8.23177,5.27344 8.49479,5.53646 8.70313,5.89063 M5.32813,8 C5.32813,8.72917 5.47917,9.29948 5.78125,9.71094 C6.08333,10.1224 6.49479,10.3281 7.01563,10.3281 C7.53646,10.3281 7.94792,10.1224 8.25,9.71094 C8.55208,9.29948 8.70313,8.72917 8.70313,8 C8.70313,7.27083 8.55208,6.70052 8.25,6.28906 C7.94792,5.8776 7.53646,5.67188 7.01563,5.67188 C6.49479,5.67188 6.08333,5.8776 5.78125,6.28906 C5.47917,6.70052 5.32813,7.27083 5.32813,8 M16.8594,7.75 L16.8594,8.23438 L12.3125,8.23438 C12.3542,8.91146 12.5573,9.42708 12.9219,9.78125 C13.2865,10.1354 13.7969,10.3125 14.4531,10.3125 C14.8385,10.3125 15.2083,10.2656 15.5625,10.1719 C15.9167,10.0781 16.2708,9.94271 16.625,9.76563 L16.625,10.6875 C16.2708,10.8438 15.9063,10.9609 15.5313,11.0391 C15.1563,11.1172 14.7813,11.1563 14.4063,11.1563 C13.4375,11.1563 12.6745,10.8776 12.1172,10.3203 C11.5599,9.76302 11.2813,9.00521 11.2813,8.04688 C11.2813,7.06771 11.5469,6.28906 12.0781,5.71094 C12.6094,5.13281 13.3281,4.84375 14.2344,4.84375 C15.0365,4.84375 15.6745,5.10417 16.1484,5.625 C16.6224,6.14583 16.8594,6.85417 16.8594,7.75 M15.8594,7.45313 C15.8594,6.91146 15.7109,6.47917 15.4141,6.15625 C15.1172,5.83333 14.724,5.67188 14.2344,5.67188 C13.6823,5.67188 13.2422,5.82813 12.9141,6.14063 C12.5859,6.45313 12.3958,6.89063 12.3438,7.45313 L15.8594,7.45313 M18.4688,2.64063 L19.4688,2.64063 L19.4688,11 L18.4688,11 L18.4688,2.64063 M21.5156,4.98438 L22.5156,4.98438 L22.5156,11 L21.5156,11 L21.5156,4.98438 M21.5156,2.64063 L22.5156,2.64063 L22.5156,3.89063 L21.5156,3.89063 L21.5156,2.64063 M23.8594,4.98438 L24.9063,4.98438 L26.7813,10.0313 L28.6719,4.98438 L29.7188,4.98438 L27.4531,11 L26.1094,11 L23.8594,4.98438 M36.2188,7.75 L36.2188,8.23438 L31.6719,8.23438 C31.7135,8.91146 31.9167,9.42708 32.2813,9.78125 C32.6458,10.1354 33.1563,10.3125 33.8125,10.3125 C34.1979,10.3125 34.5677,10.2656 34.9219,10.1719 C35.276,10.0781 35.6302,9.94271 35.9844,9.76563 L35.9844,10.6875 C35.6302,10.8438 35.2656,10.9609 34.8906,11.0391 C34.5156,11.1172 34.1406,11.1563 33.7656,11.1563 C32.7969,11.1563 32.0339,10.8776 31.4766,10.3203 C30.9193,9.76302 30.6406,9.00521 30.6406,8.04688 C30.6406,7.06771 30.9063,6.28906 31.4375,5.71094 C31.9688,5.13281 32.6875,4.84375 33.5938,4.84375 C34.3958,4.84375 35.0339,5.10417 35.5078,5.625 C35.9818,6.14583 36.2188,6.85417 36.2188,7.75 M35.2188,7.45313 C35.2188,6.91146 35.0703,6.47917 34.7734,6.15625 C34.4766,5.83333 34.0833,5.67188 33.5938,5.67188 C33.0417,5.67188 32.6016,5.82813 32.2734,6.14063 C31.9453,6.45313 31.7552,6.89063 31.7031,7.45313 L35.2188,7.45313 M41.3125,5.90625 C41.2083,5.84375 41.0911,5.79688 40.9609,5.76563 C40.8307,5.73438 40.6875,5.71875 40.5313,5.71875 C39.9688,5.71875 39.5391,5.90104 39.2422,6.26563 C38.9453,6.63021 38.7969,7.15104 38.7969,7.82813 L38.7969,11 L37.7969,11 L37.7969,4.98438 L38.7969,4.98438 L38.7969,5.92188 C38.9948,5.55729 39.2604,5.28646 39.5938,5.10938 C39.9271,4.93229 40.3333,4.84375 40.8125,4.84375 C40.8854,4.84375 40.9609,4.84635 41.0391,4.85156 C41.1172,4.85677 41.2083,4.86979 41.3125,4.89063 L41.3125,5.90625 M44.8594,11.5625 C44.5781,12.2813 44.3047,12.7474 44.0391,12.9609 C43.7734,13.1745 43.4167,13.2813 42.9688,13.2813 L42.1875,13.2813 L42.1875,12.4688 L42.7656,12.4688 C43.0365,12.4688 43.2474,12.4036 43.3984,12.2734 C43.5495,12.1432 43.7135,11.8385 43.8906,11.3594 L44.0781,10.9063 L41.6406,4.98438 L42.6875,4.98438 L44.5625,9.6875 L46.4531,4.98438 L47.5,4.98438 L44.8594,11.5625 M53.4219,12.8281 L53.4219,13.5938 L47.7031,13.5938 L47.7031,12.8281 L53.4219,12.8281 M59.0313,6.14063 C59.2813,5.69271 59.5781,5.36458 59.9219,5.15625 C60.2656,4.94792 60.6719,4.84375 61.1406,4.84375 C61.7656,4.84375 62.2474,5.0625 62.5859,5.5 C62.9245,5.9375 63.0938,6.5625 63.0938,7.375 L63.0938,11 L62.0938,11 L62.0938,7.40625 C62.0938,6.82292 61.9922,6.39323 61.7891,6.11719 C61.5859,5.84115 61.276,5.70313 60.8594,5.70313 C60.349,5.70313 59.9453,5.8724 59.6484,6.21094 C59.3516,6.54948 59.2031,7.01042 59.2031,7.59375 L59.2031,11 L58.2031,11 L58.2031,7.40625 C58.2031,6.82292 58.1016,6.39323 57.8984,6.11719 C57.6953,5.84115 57.3802,5.70313 56.9531,5.70313 C56.4531,5.70313 56.0547,5.8724 55.7578,6.21094 C55.4609,6.54948 55.3125,7.01042 55.3125,7.59375 L55.3125,11 L54.3125,11 L54.3125,4.98438 L55.3125,4.98438 L55.3125,5.92188 C55.5313,5.54688 55.7995,5.27344 56.1172,5.10156 C56.4349,4.92969 56.8073,4.84375 57.2344,4.84375 C57.6719,4.84375 58.0443,4.95313 58.3516,5.17188 C58.6589,5.39063 58.8854,5.71354 59.0313,6.14063 M67.7813,7.96875 C66.9896,7.96875 66.4401,8.0625 66.1328,8.25 C65.8255,8.4375 65.6719,8.75 65.6719,9.1875 C65.6719,9.53125 65.7865,9.80729 66.0156,10.0156 C66.2448,10.224 66.5573,10.3281 66.9531,10.3281 C67.5052,10.3281 67.9453,10.1328 68.2734,9.74219 C68.6016,9.35156 68.7656,8.83854 68.7656,8.20313 L68.7656,7.96875 L67.7813,7.96875 M69.75,7.5625 L69.75,11 L68.7656,11 L68.7656,10.0938 C68.5469,10.4583 68.2682,10.7266 67.9297,10.8984 C67.5911,11.0703 67.1771,11.1563 66.6875,11.1563 C66.0729,11.1563 65.5833,10.9844 65.2188,10.6406 C64.8542,10.2969 64.6719,9.83333 64.6719,9.25 C64.6719,8.57292 64.8984,8.0625 65.3516,7.71875 C65.8047,7.375 66.4844,7.20313 67.3906,7.20313 L68.7656,7.20313 L68.7656,7.10938 C68.7656,6.65104 68.6172,6.29688 68.3203,6.04688 C68.0234,5.79688 67.6042,5.67188 67.0625,5.67188 C66.7188,5.67188 66.3828,5.71354 66.0547,5.79688 C65.7266,5.88021 65.4115,6.00521 65.1094,6.17188 L65.1094,5.26563 C65.474,5.11979 65.8281,5.01302 66.1719,4.94531 C66.5156,4.8776 66.8438,4.84375 67.1563,4.84375 C68.0313,4.84375 68.6823,5.06771 69.1094,5.51563 C69.5365,5.96354 69.75,6.64583 69.75,7.5625 M76.7813,7.375 L76.7813,11 L75.7969,11 L75.7969,7.40625 C75.7969,6.83333 75.6875,6.40625 75.4688,6.125 C75.25,5.84375 74.9167,5.70313 74.4688,5.70313 C73.9375,5.70313 73.5182,5.8724 73.2109,6.21094 C72.9036,6.54948 72.75,7.01042 72.75,7.59375 L72.75,11 L71.75,11 L71.75,4.98438 L72.75,4.98438 L72.75,5.92188 C72.9792,5.55729 73.2552,5.28646 73.5781,5.10938 C73.901,4.93229 74.2708,4.84375 74.6875,4.84375 C75.375,4.84375 75.8958,5.05729 76.25,5.48438 C76.6042,5.91146 76.7813,6.54167 76.7813,7.375 M81.4844,7.96875 C80.6927,7.96875 80.1432,8.0625 79.8359,8.25 C79.5286,8.4375 79.375,8.75 79.375,9.1875 C79.375,9.53125 79.4896,9.80729 79.7188,10.0156 C79.9479,10.224 80.2604,10.3281 80.6563,10.3281 C81.2083,10.3281 81.6484,10.1328 81.9766,9.74219 C82.3047,9.35156 82.4688,8.83854 82.4688,8.20313 L82.4688,7.96875 L81.4844,7.96875 M83.4531,7.5625 L83.4531,11 L82.4688,11 L82.4688,10.0938 C82.25,10.4583 81.9714,10.7266 81.6328,10.8984 C81.2943,11.0703 80.8802,11.1563 80.3906,11.1563 C79.776,11.1563 79.2865,10.9844 78.9219,10.6406 C78.5573,10.2969 78.375,9.83333 78.375,9.25 C78.375,8.57292 78.6016,8.0625 79.0547,7.71875 C79.5078,7.375 80.1875,7.20313 81.0938,7.20313 L82.4688,7.20313 L82.4688,7.10938 C82.4688,6.65104 82.3203,6.29688 82.0234,6.04688 C81.7266,5.79688 81.3073,5.67188 80.7656,5.67188 C80.4219,5.67188 80.0859,5.71354 79.7578,5.79688 C79.4297,5.88021 79.1146,6.00521 78.8125,6.17188 L78.8125,5.26563 C79.1771,5.11979 79.5313,5.01302 79.875,4.94531 C80.2188,4.8776 80.5469,4.84375 80.8594,4.84375 C81.7344,4.84375 82.3854,5.06771 82.8125,5.51563 C83.2396,5.96354 83.4531,6.64583 83.4531,7.5625 M89.4531,7.92188 C89.4531,7.20313 89.3047,6.64844 89.0078,6.25781 C88.7109,5.86719 88.2969,5.67188 87.7656,5.67188 C87.2344,5.67188 86.8203,5.86719 86.5234,6.25781 C86.2266,6.64844 86.0781,7.20313 86.0781,7.92188 C86.0781,8.63021 86.2266,9.18229 86.5234,9.57813 C86.8203,9.97396 87.2344,10.1719 87.7656,10.1719 C88.2969,10.1719 88.7109,9.97396 89.0078,9.57813 C89.3047,9.18229 89.4531,8.63021 89.4531,7.92188 M90.4375,10.25 C90.4375,11.2813 90.2109,12.0443 89.7578,12.5391 C89.3047,13.0339 88.6094,13.2813 87.6719,13.2813 C87.3177,13.2813 86.987,13.2552 86.6797,13.2031 C86.3724,13.151 86.0729,13.0729 85.7813,12.9688 L85.7813,12.0156 C86.0729,12.1719 86.3594,12.2865 86.6406,12.3594 C86.9219,12.4323 87.2135,12.4688 87.5156,12.4688 C88.1615,12.4688 88.6458,12.2995 88.9688,11.9609 C89.2917,11.6224 89.4531,11.1146 89.4531,10.4375 L89.4531,9.9375 C89.2448,10.2917 88.9818,10.5573 88.6641,10.7344 C88.3464,10.9115 87.9635,11 87.5156,11 C86.776,11 86.1823,10.7188 85.7344,10.1563 C85.2865,9.59375 85.0625,8.84896 85.0625,7.92188 C85.0625,6.99479 85.2865,6.25 85.7344,5.6875 C86.1823,5.125 86.776,4.84375 87.5156,4.84375 C87.9635,4.84375 88.3464,4.92969 88.6641,5.10156 C88.9818,5.27344 89.2448,5.53646 89.4531,5.89063 L89.4531,4.98438 L90.4375,4.98438 L90.4375,10.25 M97.6094,7.75 L97.6094,8.23438 L93.0625,8.23438 C93.1042,8.91146 93.3073,9.42708 93.6719,9.78125 C94.0365,10.1354 94.5469,10.3125 95.2031,10.3125 C95.5885,10.3125 95.9583,10.2656 96.3125,10.1719 C96.6667,10.0781 97.0208,9.94271 97.375,9.76563 L97.375,10.6875 C97.0208,10.8438 96.6563,10.9609 96.2813,11.0391 C95.9063,11.1172 95.5313,11.1563 95.1563,11.1563 C94.1875,11.1563 93.4245,10.8776 92.8672,10.3203 C92.3099,9.76302 92.0313,9.00521 92.0313,8.04688 C92.0313,7.06771 92.2969,6.28906 92.8281,5.71094 C93.3594,5.13281 94.0781,4.84375 94.9844,4.84375 C95.7865,4.84375 96.4245,5.10417 96.8984,5.625 C97.3724,6.14583 97.6094,6.85417 97.6094,7.75 M96.6094,7.45313 C96.6094,6.91146 96.4609,6.47917 96.1641,6.15625 C95.8672,5.83333 95.474,5.67188 94.9844,5.67188 C94.4323,5.67188 93.9922,5.82813 93.6641,6.14063 C93.3359,6.45313 93.1458,6.89063 93.0938,7.45313 L96.6094,7.45313 M102.703,5.90625 C102.599,5.84375 102.482,5.79688 102.352,5.76563 C102.221,5.73438 102.078,5.71875 101.922,5.71875 C101.359,5.71875 100.93,5.90104 100.633,6.26563 C100.336,6.63021 100.188,7.15104 100.188,7.82813 L100.188,11 L99.1875,11 L99.1875,4.98438 L100.188,4.98438 L100.188,5.92188 C100.385,5.55729 100.651,5.28646 100.984,5.10938 C101.318,4.93229 101.724,4.84375 102.203,4.84375 C102.276,4.84375 102.352,4.84635 102.43,4.85156 C102.508,4.85677 102.599,4.86979 102.703,4.89063 L102.703,5.90625"/>
</g>

<g fill="none" stroke="#000000" stroke-opacity="1" stroke-width="1" stroke-linecap="square" stroke-linejoin="bevel" transform="matrix(1.9995,0,0,1.9995,861.691,129.967)"
font-family="sans" font-size="11" font-weight="100" font-style="normal" 
>
</g>

<g fill="none" stroke="#000000" stroke-opacity="1" stroke-width="1" stroke-linecap="square" stroke-linejoin="bevel" transform="matrix(1.9995,0,0,1.9995,861.691,129.967)"
font-family="Ubuntu" font-size="11" font-weight="400" font-style="normal" 
>
</g>

<g fill="none" stroke="#000000" stroke-opacity="1" stroke-width="1" stroke-linecap="square" stroke-linejoin="bevel" transform="matrix(1.9995,0,0,1.9995,-0.00959759,179.955)"
font-family="Ubuntu" font-size="11" font-weight="400" font-style="normal" 
>
</g>

<g fill="none" stroke="#000000" stroke-opacity="1" stroke-width="1" stroke-linecap="square" stroke-linejoin="bevel" transform="matrix(1.9995,0,0,1.9995,-0.00959759,179.955)"
font-family="Ubuntu" font-size="11" font-weight="400" font-style="normal" 
>
</g>

<g fill="none" stroke="#000000" stroke-opacity="1" stroke-width="1" stroke-linecap="square" stroke-linejoin="bevel" transform="matrix(1.9995,0,0,1.9995,-0.00959759,179.955)"
font-family="Ubuntu" font-size="11" font-weight="400" font-style="normal" 
>
</g>

<g fill="none" stroke="#000000" stroke-opacity="1" stroke-width="1" stroke-linecap="square" stroke-linejoin="round" transform="matrix(1.9995,0,0,1.9995,-0.00959759,179.955)"
font-family="Ubuntu" font-size="11" font-weight="400" font-style="normal" 
>
<ellipse cx="159.24" cy="-45" rx="158.735" ry="17.5"/>
</g>

<g fill="none" stroke="#000000" stroke-opacity="1" stroke-width="1" stroke-linecap="square" stroke-linejoin="bevel" transform="matrix(1.9995,0,0,1.9995,-0.00959759,179.955)"
font-family="Ubuntu" font-size="11" font-weight="400" font-style="normal" 
>
</g>

<g fill="none" stroke="#000000" stroke-opacity="1" stroke-width="1" stroke-linecap="square" stroke-linejoin="bevel" transform="matrix(1.9995,0,0,1.9995,140.951,75.9809)"
font-family="Ubuntu" font-size="11" font-weight="400" font-style="normal" 
>
</g>

<g fill="none" stroke="#000000" stroke-opacity="1" stroke-width="1" stroke-linecap="square" stroke-linejoin="bevel" transform="matrix(1.9995,0,0,1.9995,140.951,75.9809)"
font-family="sans" font-size="11" font-weight="100" font-style="normal" 
>
</g>

<g fill="#000000" fill-opacity="1" stroke="#000000" stroke-opacity="1" stroke-width="1" stroke-linecap="square" stroke-linejoin="round" transform="matrix(1.9995,0,0,1.9995,140.951,75.9809)"
font-family="sans" font-size="11" font-weight="100" font-style="normal" 
>
<path vector-effect="none" fill-rule="nonzero" d="M2.79688,2.98438 L3.70313,2.98438 L0.90625,12.0156 L0,12.0156 L2.79688,2.98438 M8.21875,5.90625 C8.11458,5.84375 7.9974,5.79688 7.86719,5.76563 C7.73698,5.73438 7.59375,5.71875 7.4375,5.71875 C6.875,5.71875 6.44531,5.90104 6.14844,6.26563 C5.85156,6.63021 5.70313,7.15104 5.70313,7.82813 L5.70313,11 L4.70313,11 L4.70313,4.98438 L5.70313,4.98438 L5.70313,5.92188 C5.90104,5.55729 6.16667,5.28646 6.5,5.10938 C6.83333,4.93229 7.23958,4.84375 7.71875,4.84375 C7.79167,4.84375 7.86719,4.84635 7.94531,4.85156 C8.02344,4.85677 8.11458,4.86979 8.21875,4.89063 L8.21875,5.90625 M11.5938,5.67188 C11.0625,5.67188 10.6432,5.88021 10.3359,6.29688 C10.0286,6.71354 9.875,7.28125 9.875,8 C9.875,8.71875 10.026,9.28385 10.3281,9.69531 C10.6302,10.1068 11.0521,10.3125 11.5938,10.3125 C12.1146,10.3125 12.5286,10.1068 12.8359,9.69531 C13.1432,9.28385 13.2969,8.71875 13.2969,8 C13.2969,7.28125 13.1432,6.71354 12.8359,6.29688 C12.5286,5.88021 12.1146,5.67188 11.5938,5.67188 M11.5938,4.84375 C12.4479,4.84375 13.1198,5.1224 13.6094,5.67969 C14.099,6.23698 14.3438,7.01042 14.3438,8 C14.3438,8.97917 14.099,9.75 13.6094,10.3125 C13.1198,10.875 12.4479,11.1563 11.5938,11.1563 C10.7292,11.1563 10.0521,10.875 9.5625,10.3125 C9.07292,9.75 8.82813,8.97917 8.82813,8 C8.82813,7.01042 9.07292,6.23698 9.5625,5.67969 C10.0521,5.1224 10.7292,4.84375 11.5938,4.84375 M19.8125,5.15625 L19.8125,6.09375 C19.5313,5.94792 19.2396,5.84115 18.9375,5.77344 C18.6354,5.70573 18.3229,5.67188 18,5.67188 C17.5104,5.67188 17.1432,5.7474 16.8984,5.89844 C16.6536,6.04948 16.5313,6.27083 16.5313,6.5625 C16.5313,6.79167 16.6198,6.97135 16.7969,7.10156 C16.974,7.23177 17.3281,7.35938 17.8594,7.48438 L18.1875,7.5625 C18.8958,7.70833 19.3958,7.91927 19.6875,8.19531 C19.9792,8.47135 20.125,8.85417 20.125,9.34375 C20.125,9.89583 19.9063,10.3359 19.4688,10.6641 C19.0313,10.9922 18.4219,11.1563 17.6406,11.1563 C17.3177,11.1563 16.9818,11.125 16.6328,11.0625 C16.2839,11 15.9167,10.9063 15.5313,10.7813 L15.5313,9.76563 C15.8958,9.95313 16.2552,10.0938 16.6094,10.1875 C16.9635,10.2813 17.3177,10.3281 17.6719,10.3281 C18.1302,10.3281 18.4844,10.2474 18.7344,10.0859 C18.9844,9.92448 19.1094,9.70313 19.1094,9.42188 C19.1094,9.15104 19.0208,8.94271 18.8438,8.79688 C18.6667,8.65104 18.2708,8.51563 17.6563,8.39063 L17.3125,8.29688 C16.6979,8.17188 16.2552,7.97656 15.9844,7.71094 C15.7135,7.44531 15.5781,7.07813 15.5781,6.60938 C15.5781,6.04688 15.7786,5.61198 16.1797,5.30469 C16.5807,4.9974 17.151,4.84375 17.8906,4.84375 C18.2552,4.84375 18.599,4.86979 18.9219,4.92188 C19.2448,4.97396 19.5417,5.05208 19.8125,5.15625 M22.6719,3.28125 L22.6719,4.98438 L24.7031,4.98438 L24.7031,5.75 L22.6719,5.75 L22.6719,9.01563 C22.6719,9.50521 22.7396,9.82031 22.875,9.96094 C23.0104,10.1016 23.2813,10.1719 23.6875,10.1719 L24.7031,10.1719 L24.7031,11 L23.6875,11 C22.9271,11 22.401,10.8568 22.1094,10.5703 C21.8177,10.2839 21.6719,9.76563 21.6719,9.01563 L21.6719,5.75 L20.9531,5.75 L20.9531,4.98438 L21.6719,4.98438 L21.6719,3.28125 L22.6719,3.28125 M28.3438,5.67188 C27.8125,5.67188 27.3932,5.88021 27.0859,6.29688 C26.7786,6.71354 26.625,7.28125 26.625,8 C26.625,8.71875 26.776,9.28385 27.0781,9.69531 C27.3802,10.1068 27.8021,10.3125 28.3438,10.3125 C28.8646,10.3125 29.2786,10.1068 29.5859,9.69531 C29.8932,9.28385 30.0469,8.71875 30.0469,8 C30.0469,7.28125 29.8932,6.71354 29.5859,6.29688 C29.2786,5.88021 28.8646,5.67188 28.3438,5.67188 M28.3438,4.84375 C29.1979,4.84375 29.8698,5.1224 30.3594,5.67969 C30.849,6.23698 31.0938,7.01042 31.0938,8 C31.0938,8.97917 30.849,9.75 30.3594,10.3125 C29.8698,10.875 29.1979,11.1563 28.3438,11.1563 C27.4792,11.1563 26.8021,10.875 26.3125,10.3125 C25.8229,9.75 25.5781,8.97917 25.5781,8 C25.5781,7.01042 25.8229,6.23698 26.3125,5.67969 C26.8021,5.1224 27.4792,4.84375 28.3438,4.84375 M33.6875,10.0938 L33.6875,13.2813 L32.6875,13.2813 L32.6875,4.98438 L33.6875,4.98438 L33.6875,5.89063 C33.8854,5.53646 34.1432,5.27344 34.4609,5.10156 C34.7786,4.92969 35.1615,4.84375 35.6094,4.84375 C36.3385,4.84375 36.9297,5.13281 37.3828,5.71094 C37.8359,6.28906 38.0625,7.05208 38.0625,8 C38.0625,8.94792 37.8359,9.71094 37.3828,10.2891 C36.9297,10.8672 36.3385,11.1563 35.6094,11.1563 C35.1615,11.1563 34.7786,11.0703 34.4609,10.8984 C34.1432,10.7266 33.8854,10.4583 33.6875,10.0938 M37.0469,8 C37.0469,7.27083 36.8958,6.70052 36.5938,6.28906 C36.2917,5.8776 35.8802,5.67188 35.3594,5.67188 C34.8385,5.67188 34.4297,5.8776 34.1328,6.28906 C33.8359,6.70052 33.6875,7.27083 33.6875,8 C33.6875,8.72917 33.8359,9.29948 34.1328,9.71094 C34.4297,10.1224 34.8385,10.3281 35.3594,10.3281 C35.8802,10.3281 36.2917,10.1224 36.5938,9.71094 C36.8958,9.29948 37.0469,8.72917 37.0469,8 M39.6875,4.98438 L40.6875,4.98438 L40.6875,11 L39.6875,11 L39.6875,4.98438 M39.6875,2.64063 L40.6875,2.64063 L40.6875,3.89063 L39.6875,3.89063 L39.6875,2.64063 M47.0625,5.21875 L47.0625,6.14063 C46.7917,5.98438 46.5156,5.86719 46.2344,5.78906 C45.9531,5.71094 45.6667,5.67188 45.375,5.67188 C44.7396,5.67188 44.2448,5.875 43.8906,6.28125 C43.5365,6.6875 43.3594,7.26042 43.3594,8 C43.3594,8.72917 43.5365,9.29688 43.8906,9.70313 C44.2448,10.1094 44.7396,10.3125 45.375,10.3125 C45.6667,10.3125 45.9531,10.276 46.2344,10.2031 C46.5156,10.1302 46.7917,10.0156 47.0625,9.85938 L47.0625,10.7656 C46.7917,10.901 46.5078,11 46.2109,11.0625 C45.9141,11.125 45.599,11.1563 45.2656,11.1563 C44.3594,11.1563 43.6406,10.8724 43.1094,10.3047 C42.5781,9.73698 42.3125,8.96875 42.3125,8 C42.3125,7.02083 42.5807,6.25 43.1172,5.6875 C43.6536,5.125 44.3906,4.84375 45.3281,4.84375 C45.6406,4.84375 45.9401,4.875 46.2266,4.9375 C46.513,5 46.7917,5.09375 47.0625,5.21875 M53.3594,12.8281 L53.3594,13.5938 L47.6406,13.5938 L47.6406,12.8281 L53.3594,12.8281 M54.4375,2.98438 L58.7031,2.98438 L58.7031,3.89063 L55.4375,3.89063 L55.4375,5.85938 C55.5938,5.80729 55.75,5.76823 55.9063,5.74219 C56.0625,5.71615 56.2188,5.70313 56.375,5.70313 C57.2708,5.70313 57.9792,5.94792 58.5,6.4375 C59.0208,6.92708 59.2813,7.58854 59.2813,8.42188 C59.2813,9.28646 59.013,9.95833 58.4766,10.4375 C57.9401,10.9167 57.1823,11.1563 56.2031,11.1563 C55.8698,11.1563 55.5286,11.1276 55.1797,11.0703 C54.8307,11.013 54.4688,10.9271 54.0938,10.8125 L54.0938,9.71875 C54.4167,9.89583 54.75,10.0286 55.0938,10.1172 C55.4375,10.2057 55.8021,10.25 56.1875,10.25 C56.8125,10.25 57.3047,10.0859 57.6641,9.75781 C58.0234,9.42969 58.2031,8.98438 58.2031,8.42188 C58.2031,7.86979 58.0234,7.42969 57.6641,7.10156 C57.3047,6.77344 56.8125,6.60938 56.1875,6.60938 C55.8958,6.60938 55.6068,6.64323 55.3203,6.71094 C55.0339,6.77865 54.7396,6.88021 54.4375,7.01563 L54.4375,2.98438 M62.3438,10.0938 L66.125,10.0938 L66.125,11 L61.0469,11 L61.0469,10.0938 C61.4531,9.66667 62.013,9.09375 62.7266,8.375 C63.4401,7.65625 63.8854,7.19271 64.0625,6.98438 C64.4063,6.58854 64.6484,6.25521 64.7891,5.98438 C64.9297,5.71354 65,5.44792 65,5.1875 C65,4.76042 64.8516,4.41406 64.5547,4.14844 C64.2578,3.88281 63.8646,3.75 63.375,3.75 C63.0417,3.75 62.6849,3.8099 62.3047,3.92969 C61.9245,4.04948 61.5208,4.22917 61.0938,4.46875 L61.0938,3.375 C61.5313,3.19792 61.9401,3.0625 62.3203,2.96875 C62.7005,2.875 63.0469,2.82813 63.3594,2.82813 C64.1927,2.82813 64.8568,3.03646 65.3516,3.45313 C65.8464,3.86979 66.0938,4.42708 66.0938,5.125 C66.0938,5.45833 66.0313,5.77083 65.9063,6.0625 C65.7813,6.35417 65.5573,6.70313 65.2344,7.10938 C65.1406,7.21354 64.8542,7.51302 64.375,8.00781 C63.8958,8.5026 63.2188,9.19792 62.3438,10.0938 M68.5781,10.0938 L70.3594,10.0938 L70.3594,3.96875 L68.4219,4.35938 L68.4219,3.375 L70.3438,2.98438 L71.4375,2.98438 L71.4375,10.0938 L73.2031,10.0938 L73.2031,11 L68.5781,11 L68.5781,10.0938 M78.6719,6.67188 C79.1927,6.78646 79.599,7.01823 79.8906,7.36719 C80.1823,7.71615 80.3281,8.15104 80.3281,8.67188 C80.3281,9.46354 80.0547,10.0755 79.5078,10.5078 C78.9609,10.9401 78.1875,11.1563 77.1875,11.1563 C76.8438,11.1563 76.4948,11.1224 76.1406,11.0547 C75.7865,10.987 75.4219,10.8906 75.0469,10.7656 L75.0469,9.70313 C75.349,9.88021 75.6771,10.0156 76.0313,10.1094 C76.3854,10.2031 76.7604,10.25 77.1563,10.25 C77.8333,10.25 78.349,10.1146 78.7031,9.84375 C79.0573,9.57292 79.2344,9.18229 79.2344,8.67188 C79.2344,8.19271 79.0703,7.82031 78.7422,7.55469 C78.4141,7.28906 77.9531,7.15625 77.3594,7.15625 L76.4219,7.15625 L76.4219,6.26563 L77.4063,6.26563 C77.9375,6.26563 78.3438,6.15885 78.625,5.94531 C78.9063,5.73177 79.0469,5.42708 79.0469,5.03125 C79.0469,4.61458 78.901,4.29688 78.6094,4.07813 C78.3177,3.85938 77.901,3.75 77.3594,3.75 C77.0677,3.75 76.75,3.78125 76.4063,3.84375 C76.0625,3.90625 75.6875,4.00521 75.2813,4.14063 L75.2813,3.17188 C75.6979,3.05729 76.0859,2.97135 76.4453,2.91406 C76.8047,2.85677 77.1406,2.82813 77.4531,2.82813 C78.276,2.82813 78.9297,3.01563 79.4141,3.39063 C79.8984,3.76563 80.1406,4.27604 80.1406,4.92188 C80.1406,5.35938 80.013,5.73177 79.7578,6.03906 C79.5026,6.34635 79.1406,6.55729 78.6719,6.67188 M86.7969,12.8281 L86.7969,13.5938 L81.0781,13.5938 L81.0781,12.8281 L86.7969,12.8281 M88.0469,10.0938 L89.8281,10.0938 L89.8281,3.96875 L87.8906,4.35938 L87.8906,3.375 L89.8125,2.98438 L90.9063,2.98438 L90.9063,10.0938 L92.6719,10.0938 L92.6719,11 L88.0469,11 L88.0469,10.0938 M94.5781,2.98438 L99.7344,2.98438 L99.7344,3.4375 L96.8125,11 L95.6875,11 L98.4219,3.89063 L94.5781,3.89063 L94.5781,2.98438 M104.813,3.92188 L102.078,8.20313 L104.813,8.20313 L104.813,3.92188 M104.531,2.98438 L105.891,2.98438 L105.891,8.20313 L107.031,8.20313 L107.031,9.10938 L105.891,9.10938 L105.891,11 L104.813,11 L104.813,9.10938 L101.188,9.10938 L101.188,8.0625 L104.531,2.98438 M112.109,6.67188 C112.63,6.78646 113.036,7.01823 113.328,7.36719 C113.62,7.71615 113.766,8.15104 113.766,8.67188 C113.766,9.46354 113.492,10.0755 112.945,10.5078 C112.398,10.9401 111.625,11.1563 110.625,11.1563 C110.281,11.1563 109.932,11.1224 109.578,11.0547 C109.224,10.987 108.859,10.8906 108.484,10.7656 L108.484,9.70313 C108.786,9.88021 109.115,10.0156 109.469,10.1094 C109.823,10.2031 110.198,10.25 110.594,10.25 C111.271,10.25 111.786,10.1146 112.141,9.84375 C112.495,9.57292 112.672,9.18229 112.672,8.67188 C112.672,8.19271 112.508,7.82031 112.18,7.55469 C111.852,7.28906 111.391,7.15625 110.797,7.15625 L109.859,7.15625 L109.859,6.26563 L110.844,6.26563 C111.375,6.26563 111.781,6.15885 112.063,5.94531 C112.344,5.73177 112.484,5.42708 112.484,5.03125 C112.484,4.61458 112.339,4.29688 112.047,4.07813 C111.755,3.85938 111.339,3.75 110.797,3.75 C110.505,3.75 110.188,3.78125 109.844,3.84375 C109.5,3.90625 109.125,4.00521 108.719,4.14063 L108.719,3.17188 C109.135,3.05729 109.523,2.97135 109.883,2.91406 C110.242,2.85677 110.578,2.82813 110.891,2.82813 C111.714,2.82813 112.367,3.01563 112.852,3.39063 C113.336,3.76563 113.578,4.27604 113.578,4.92188 C113.578,5.35938 113.451,5.73177 113.195,6.03906 C112.94,6.34635 112.578,6.55729 112.109,6.67188 M115.531,2.98438 L120.688,2.98438 L120.688,3.4375 L117.766,11 L116.641,11 L119.375,3.89063 L115.531,3.89063 L115.531,2.98438 M122.797,2.98438 L127.063,2.98438 L127.063,3.89063 L123.797,3.89063 L123.797,5.85938 C123.953,5.80729 124.109,5.76823 124.266,5.74219 C124.422,5.71615 124.578,5.70313 124.734,5.70313 C125.63,5.70313 126.339,5.94792 126.859,6.4375 C127.38,6.92708 127.641,7.58854 127.641,8.42188 C127.641,9.28646 127.372,9.95833 126.836,10.4375 C126.299,10.9167 125.542,11.1563 124.563,11.1563 C124.229,11.1563 123.888,11.1276 123.539,11.0703 C123.19,11.013 122.828,10.9271 122.453,10.8125 L122.453,9.71875 C122.776,9.89583 123.109,10.0286 123.453,10.1172 C123.797,10.2057 124.161,10.25 124.547,10.25 C125.172,10.25 125.664,10.0859 126.023,9.75781 C126.383,9.42969 126.563,8.98438 126.563,8.42188 C126.563,7.86979 126.383,7.42969 126.023,7.10156 C125.664,6.77344 125.172,6.60938 124.547,6.60938 C124.255,6.60938 123.966,6.64323 123.68,6.71094 C123.393,6.77865 123.099,6.88021 122.797,7.01563 L122.797,2.98438 M132.094,3.6875 C131.531,3.6875 131.109,3.96354 130.828,4.51563 C130.547,5.06771 130.406,5.89583 130.406,7 C130.406,8.09375 130.547,8.91667 130.828,9.46875 C131.109,10.0208 131.531,10.2969 132.094,10.2969 C132.656,10.2969 133.078,10.0208 133.359,9.46875 C133.641,8.91667 133.781,8.09375 133.781,7 C133.781,5.89583 133.641,5.06771 133.359,4.51563 C133.078,3.96354 132.656,3.6875 132.094,3.6875 M132.094,2.82813 C132.99,2.82813 133.674,3.1849 134.148,3.89844 C134.622,4.61198 134.859,5.64583 134.859,7 C134.859,8.34375 134.622,9.3724 134.148,10.0859 C133.674,10.7995 132.99,11.1563 132.094,11.1563 C131.198,11.1563 130.51,10.7995 130.031,10.0859 C129.552,9.3724 129.313,8.34375 129.313,7 C129.313,5.64583 129.552,4.61198 130.031,3.89844 C130.51,3.1849 131.198,2.82813 132.094,2.82813 M139.203,6.5625 C138.724,6.5625 138.341,6.72917 138.055,7.0625 C137.768,7.39583 137.625,7.84896 137.625,8.42188 C137.625,9.00521 137.768,9.46354 138.055,9.79688 C138.341,10.1302 138.724,10.2969 139.203,10.2969 C139.693,10.2969 140.081,10.1302 140.367,9.79688 C140.654,9.46354 140.797,9.00521 140.797,8.42188 C140.797,7.84896 140.654,7.39583 140.367,7.0625 C140.081,6.72917 139.693,6.5625 139.203,6.5625 M141.359,3.15625 L141.359,4.14063 C141.089,4.01563 140.815,3.91927 140.539,3.85156 C140.263,3.78385 139.99,3.75 139.719,3.75 C139,3.75 138.451,3.99219 138.07,4.47656 C137.69,4.96094 137.474,5.69271 137.422,6.67188 C137.641,6.35938 137.909,6.11979 138.227,5.95313 C138.544,5.78646 138.896,5.70313 139.281,5.70313 C140.083,5.70313 140.719,5.94792 141.188,6.4375 C141.656,6.92708 141.891,7.58854 141.891,8.42188 C141.891,9.24479 141.646,9.90625 141.156,10.4063 C140.667,10.9063 140.016,11.1563 139.203,11.1563 C138.276,11.1563 137.568,10.7995 137.078,10.0859 C136.589,9.3724 136.344,8.34375 136.344,7 C136.344,5.72917 136.646,4.71615 137.25,3.96094 C137.854,3.20573 138.661,2.82813 139.672,2.82813 C139.943,2.82813 140.216,2.85677 140.492,2.91406 C140.768,2.97135 141.057,3.05208 141.359,3.15625 M146.188,6.5625 C145.708,6.5625 145.326,6.72917 145.039,7.0625 C144.753,7.39583 144.609,7.84896 144.609,8.42188 C144.609,9.00521 144.753,9.46354 145.039,9.79688 C145.326,10.1302 145.708,10.2969 146.188,10.2969 C146.677,10.2969 147.065,10.1302 147.352,9.79688 C147.638,9.46354 147.781,9.00521 147.781,8.42188 C147.781,7.84896 147.638,7.39583 147.352,7.0625 C147.065,6.72917 146.677,6.5625 146.188,6.5625 M148.344,3.15625 L148.344,4.14063 C148.073,4.01563 147.799,3.91927 147.523,3.85156 C147.247,3.78385 146.974,3.75 146.703,3.75 C145.984,3.75 145.435,3.99219 145.055,4.47656 C144.674,4.96094 144.458,5.69271 144.406,6.67188 C144.625,6.35938 144.893,6.11979 145.211,5.95313 C145.529,5.78646 145.88,5.70313 146.266,5.70313 C147.068,5.70313 147.703,5.94792 148.172,6.4375 C148.641,6.92708 148.875,7.58854 148.875,8.42188 C148.875,9.24479 148.63,9.90625 148.141,10.4063 C147.651,10.9063 147,11.1563 146.188,11.1563 C145.26,11.1563 144.552,10.7995 144.063,10.0859 C143.573,9.3724 143.328,8.34375 143.328,7 C143.328,5.72917 143.63,4.71615 144.234,3.96094 C144.839,3.20573 145.646,2.82813 146.656,2.82813 C146.927,2.82813 147.201,2.85677 147.477,2.91406 C147.753,2.97135 148.042,3.05208 148.344,3.15625 M150.453,2.98438 L155.609,2.98438 L155.609,3.4375 L152.688,11 L151.563,11 L154.297,3.89063 L150.453,3.89063 L150.453,2.98438 M161,6.67188 C161.521,6.78646 161.927,7.01823 162.219,7.36719 C162.51,7.71615 162.656,8.15104 162.656,8.67188 C162.656,9.46354 162.383,10.0755 161.836,10.5078 C161.289,10.9401 160.516,11.1563 159.516,11.1563 C159.172,11.1563 158.823,11.1224 158.469,11.0547 C158.115,10.987 157.75,10.8906 157.375,10.7656 L157.375,9.70313 C157.677,9.88021 158.005,10.0156 158.359,10.1094 C158.714,10.2031 159.089,10.25 159.484,10.25 C160.161,10.25 160.677,10.1146 161.031,9.84375 C161.385,9.57292 161.563,9.18229 161.563,8.67188 C161.563,8.19271 161.398,7.82031 161.07,7.55469 C160.742,7.28906 160.281,7.15625 159.688,7.15625 L158.75,7.15625 L158.75,6.26563 L159.734,6.26563 C160.266,6.26563 160.672,6.15885 160.953,5.94531 C161.234,5.73177 161.375,5.42708 161.375,5.03125 C161.375,4.61458 161.229,4.29688 160.938,4.07813 C160.646,3.85938 160.229,3.75 159.688,3.75 C159.396,3.75 159.078,3.78125 158.734,3.84375 C158.391,3.90625 158.016,4.00521 157.609,4.14063 L157.609,3.17188 C158.026,3.05729 158.414,2.97135 158.773,2.91406 C159.133,2.85677 159.469,2.82813 159.781,2.82813 C160.604,2.82813 161.258,3.01563 161.742,3.39063 C162.227,3.76563 162.469,4.27604 162.469,4.92188 C162.469,5.35938 162.341,5.73177 162.086,6.03906 C161.831,6.34635 161.469,6.55729 161,6.67188 M167.141,6.5625 C166.661,6.5625 166.279,6.72917 165.992,7.0625 C165.706,7.39583 165.563,7.84896 165.563,8.42188 C165.563,9.00521 165.706,9.46354 165.992,9.79688 C166.279,10.1302 166.661,10.2969 167.141,10.2969 C167.63,10.2969 168.018,10.1302 168.305,9.79688 C168.591,9.46354 168.734,9.00521 168.734,8.42188 C168.734,7.84896 168.591,7.39583 168.305,7.0625 C168.018,6.72917 167.63,6.5625 167.141,6.5625 M169.297,3.15625 L169.297,4.14063 C169.026,4.01563 168.753,3.91927 168.477,3.85156 C168.201,3.78385 167.927,3.75 167.656,3.75 C166.938,3.75 166.388,3.99219 166.008,4.47656 C165.628,4.96094 165.411,5.69271 165.359,6.67188 C165.578,6.35938 165.846,6.11979 166.164,5.95313 C166.482,5.78646 166.833,5.70313 167.219,5.70313 C168.021,5.70313 168.656,5.94792 169.125,6.4375 C169.594,6.92708 169.828,7.58854 169.828,8.42188 C169.828,9.24479 169.583,9.90625 169.094,10.4063 C168.604,10.9063 167.953,11.1563 167.141,11.1563 C166.214,11.1563 165.505,10.7995 165.016,10.0859 C164.526,9.3724 164.281,8.34375 164.281,7 C164.281,5.72917 164.583,4.71615 165.188,3.96094 C165.792,3.20573 166.599,2.82813 167.609,2.82813 C167.88,2.82813 168.154,2.85677 168.43,2.91406 C168.706,2.97135 168.995,3.05208 169.297,3.15625 M171.406,2.98438 L176.563,2.98438 L176.563,3.4375 L173.641,11 L172.516,11 L175.25,3.89063 L171.406,3.89063 L171.406,2.98438"/>
</g>

<g fill="none" stroke="#000000" stroke-opacity="1" stroke-width="1" stroke-linecap="square" stroke-linejoin="bevel" transform="matrix(1.9995,0,0,1.9995,140.951,75.9809)"
font-family="sans" font-size="11" font-weight="100" font-style="normal" 
>
</g>

<g fill="none" stroke="#000000" stroke-opacity="1" stroke-width="1" stroke-linecap="square" stroke-linejoin="bevel" transform="matrix(1.9995,0,0,1.9995,140.951,75.9809)"
font-family="Ubuntu" font-size="11" font-weight="400" font-style="normal" 
>
</g>

<g fill="none" stroke="#000000" stroke-opacity="1" stroke-width="1" stroke-linecap="square" stroke-linejoin="bevel" transform="matrix(1.9995,0,0,1.9995,-0.00959759,179.955)"
font-family="Ubuntu" font-size="11" font-weight="400" font-style="normal" 
>
</g>

<g fill="none" stroke="#000000" stroke-opacity="1" stroke-width="1" stroke-linecap="square" stroke-linejoin="bevel" transform="matrix(1.9995,0,0,1.9995,-0.00959759,179.955)"
font-family="Ubuntu" font-size="11" font-weight="400" font-style="normal" 
>
</g>

<g fill="none" stroke="#000000" stroke-opacity="1" stroke-width="1" stroke-linecap="square" stroke-linejoin="bevel" transform="matrix(1.9995,0,0,1.9995,-0.00959759,179.955)"
font-family="Ubuntu" font-size="11" font-weight="400" font-style="normal" 
>
</g>

<g fill="none" stroke="#000000" stroke-opacity="1" stroke-width="1" stroke-linecap="square" stroke-linejoin="round" transform="matrix(1.9995,0,0,1.9995,-0.00959759,179.955)"
font-family="Ubuntu" font-size="11" font-weight="400" font-style="normal" 
>
<path vector-effect="none" fill-rule="evenodd" d="M287.6,-55.71 C322.83,-58.673 360.29,-61.823 392.78,-64.555 "/>
</g>

<g fill="none" stroke="#000000" stroke-opacity="1" stroke-width="1" stroke-linecap="square" stroke-linejoin="bevel" transform="matrix(1.9995,0,0,1.9995,-0.00959759,179.955)"
font-family="Ubuntu" font-size="11" font-weight="400" font-style="normal" 
>
</g>

<g fill="none" stroke="#000000" stroke-opacity="1" stroke-width="1" stroke-linecap="square" stroke-linejoin="bevel" transform="matrix(1.9995,0,0,1.9995,665.076,24.9937)"
font-family="Ubuntu" font-size="11" font-weight="400" font-style="normal" 
>
</g>

<g fill="none" stroke="#000000" stroke-opacity="1" stroke-width="1" stroke-linecap="square" stroke-linejoin="bevel" transform="matrix(1.9995,0,0,1.9995,665.076,24.9937)"
font-family="sans" font-size="11" font-weight="100" font-style="normal" 
>
</g>

<g fill="#000000" fill-opacity="1" stroke="#000000" stroke-opacity="1" stroke-width="1" stroke-linecap="square" stroke-linejoin="round" transform="matrix(1.9995,0,0,1.9995,665.076,24.9937)"
font-family="sans" font-size="11" font-weight="100" font-style="normal" 
>
<path vector-effect="none" fill-rule="nonzero" d="M2.79688,2.98438 L3.70313,2.98438 L0.90625,12.0156 L0,12.0156 L2.79688,2.98438 M7.07813,5.67188 C6.54688,5.67188 6.1276,5.88021 5.82031,6.29688 C5.51302,6.71354 5.35938,7.28125 5.35938,8 C5.35938,8.71875 5.51042,9.28385 5.8125,9.69531 C6.11458,10.1068 6.53646,10.3125 7.07813,10.3125 C7.59896,10.3125 8.01302,10.1068 8.32031,9.69531 C8.6276,9.28385 8.78125,8.71875 8.78125,8 C8.78125,7.28125 8.6276,6.71354 8.32031,6.29688 C8.01302,5.88021 7.59896,5.67188 7.07813,5.67188 M7.07813,4.84375 C7.93229,4.84375 8.60417,5.1224 9.09375,5.67969 C9.58333,6.23698 9.82813,7.01042 9.82813,8 C9.82813,8.97917 9.58333,9.75 9.09375,10.3125 C8.60417,10.875 7.93229,11.1563 7.07813,11.1563 C6.21354,11.1563 5.53646,10.875 5.04688,10.3125 C4.55729,9.75 4.3125,8.97917 4.3125,8 C4.3125,7.01042 4.55729,6.23698 5.04688,5.67969 C5.53646,5.1224 6.21354,4.84375 7.07813,4.84375 M14.9375,5.90625 C14.8333,5.84375 14.7161,5.79688 14.5859,5.76563 C14.4557,5.73438 14.3125,5.71875 14.1563,5.71875 C13.5938,5.71875 13.1641,5.90104 12.8672,6.26563 C12.5703,6.63021 12.4219,7.15104 12.4219,7.82813 L12.4219,11 L11.4219,11 L11.4219,4.98438 L12.4219,4.98438 L12.4219,5.92188 C12.6198,5.55729 12.8854,5.28646 13.2188,5.10938 C13.5521,4.93229 13.9583,4.84375 14.4375,4.84375 C14.5104,4.84375 14.5859,4.84635 14.6641,4.85156 C14.7422,4.85677 14.8333,4.86979 14.9375,4.89063 L14.9375,5.90625 M19.9375,5.89063 L19.9375,2.64063 L20.9219,2.64063 L20.9219,11 L19.9375,11 L19.9375,10.0938 C19.7292,10.4583 19.4661,10.7266 19.1484,10.8984 C18.8307,11.0703 18.4479,11.1563 18,11.1563 C17.2813,11.1563 16.6927,10.8672 16.2344,10.2891 C15.776,9.71094 15.5469,8.94792 15.5469,8 C15.5469,7.05208 15.776,6.28906 16.2344,5.71094 C16.6927,5.13281 17.2813,4.84375 18,4.84375 C18.4479,4.84375 18.8307,4.92969 19.1484,5.10156 C19.4661,5.27344 19.7292,5.53646 19.9375,5.89063 M16.5625,8 C16.5625,8.72917 16.7135,9.29948 17.0156,9.71094 C17.3177,10.1224 17.7292,10.3281 18.25,10.3281 C18.7708,10.3281 19.1823,10.1224 19.4844,9.71094 C19.7865,9.29948 19.9375,8.72917 19.9375,8 C19.9375,7.27083 19.7865,6.70052 19.4844,6.28906 C19.1823,5.8776 18.7708,5.67188 18.25,5.67188 C17.7292,5.67188 17.3177,5.8776 17.0156,6.28906 C16.7135,6.70052 16.5625,7.27083 16.5625,8 M22.9375,4.98438 L23.9375,4.98438 L23.9375,11 L22.9375,11 L22.9375,4.98438 M22.9375,2.64063 L23.9375,2.64063 L23.9375,3.89063 L22.9375,3.89063 L22.9375,2.64063 M30.9844,7.375 L30.9844,11 L30,11 L30,7.40625 C30,6.83333 29.8906,6.40625 29.6719,6.125 C29.4531,5.84375 29.1198,5.70313 28.6719,5.70313 C28.1406,5.70313 27.7214,5.8724 27.4141,6.21094 C27.1068,6.54948 26.9531,7.01042 26.9531,7.59375 L26.9531,11 L25.9531,11 L25.9531,4.98438 L26.9531,4.98438 L26.9531,5.92188 C27.1823,5.55729 27.4583,5.28646 27.7813,5.10938 C28.1042,4.93229 28.474,4.84375 28.8906,4.84375 C29.5781,4.84375 30.099,5.05729 30.4531,5.48438 C30.8073,5.91146 30.9844,6.54167 30.9844,7.375 M38.1094,7.75 L38.1094,8.23438 L33.5625,8.23438 C33.6042,8.91146 33.8073,9.42708 34.1719,9.78125 C34.5365,10.1354 35.0469,10.3125 35.7031,10.3125 C36.0885,10.3125 36.4583,10.2656 36.8125,10.1719 C37.1667,10.0781 37.5208,9.94271 37.875,9.76563 L37.875,10.6875 C37.5208,10.8438 37.1563,10.9609 36.7813,11.0391 C36.4063,11.1172 36.0313,11.1563 35.6563,11.1563 C34.6875,11.1563 33.9245,10.8776 33.3672,10.3203 C32.8099,9.76302 32.5313,9.00521 32.5313,8.04688 C32.5313,7.06771 32.7969,6.28906 33.3281,5.71094 C33.8594,5.13281 34.5781,4.84375 35.4844,4.84375 C36.2865,4.84375 36.9245,5.10417 37.3984,5.625 C37.8724,6.14583 38.1094,6.85417 38.1094,7.75 M37.1094,7.45313 C37.1094,6.91146 36.9609,6.47917 36.6641,6.15625 C36.3672,5.83333 35.974,5.67188 35.4844,5.67188 C34.9323,5.67188 34.4922,5.82813 34.1641,6.14063 C33.8359,6.45313 33.6458,6.89063 33.5938,7.45313 L37.1094,7.45313"/>
</g>

<g fill="none" stroke="#000000" stroke-opacity="1" stroke-width="1" stroke-linecap="square" stroke-linejoin="bevel" transform="matrix(1.9995,0,0,1.9995,665.076,24.9937)"
font-family="sans" font-size="11" font-weight="100" font-style="normal" 
>
</g>

<g fill="none" stroke="#000000" stroke-opacity="1" stroke-width="1" stroke-linecap="square" stroke-linejoin="bevel" transform="matrix(1.9995,0,0,1.9995,665.076,24.9937)"
font-family="Ubuntu" font-size="11" font-weight="400" font-style="normal" 
>
</g>

<g fill="none" stroke="#000000" stroke-opacity="1" stroke-width="1" stroke-linecap="square" stroke-linejoin="bevel" transform="matrix(1.9995,0,0,1.9995,-0.00959759,179.955)"
font-family="Ubuntu" font-size="11" font-weight="400" font-style="normal" 
>
</g>

<g fill="#000000" fill-opacity="1" stroke="#000000" stroke-opacity="1" stroke-width="1" stroke-linecap="square" stroke-linejoin="round" transform="matrix(1.9995,0,0,1.9995,-0.00959759,179.955)"
font-family="Ubuntu" font-size="11" font-weight="400" font-style="normal" 
>
<path vector-effect="none" fill-rule="evenodd" d="M392.78,-64.555 L393.085,-60.9255 L403.15,-65.427 L392.475,-68.1845 L392.78,-64.555"/>
</g>

<g fill="none" stroke="#000000" stroke-opacity="1" stroke-width="1" stroke-linecap="square" stroke-linejoin="bevel" transform="matrix(1.9995,0,0,1.9995,-0.00959759,179.955)"
font-family="Ubuntu" font-size="11" font-weight="400" font-style="normal" 
>
</g>

<g fill="none" stroke="#000000" stroke-opacity="1" stroke-width="1" stroke-linecap="square" stroke-linejoin="bevel" transform="matrix(1.9995,0,0,1.9995,-0.00959759,179.955)"
font-family="Ubuntu" font-size="11" font-weight="400" font-style="normal" 
>
</g>

<g fill="none" stroke="#000000" stroke-opacity="1" stroke-width="1" stroke-linecap="square" stroke-linejoin="bevel" transform="matrix(1.9995,0,0,1.9995,-0.00959759,179.955)"
font-family="Ubuntu" font-size="11" font-weight="400" font-style="normal" 
>
</g>

<g fill="none" stroke="#000000" stroke-opacity="1" stroke-width="1" stroke-linecap="square" stroke-linejoin="bevel" transform="matrix(1.9995,0,0,1.9995,-0.00959759,179.955)"
font-family="Ubuntu" font-size="11" font-weight="400" font-style="normal" 
>
</g>

<g fill="none" stroke="#000000" stroke-opacity="1" stroke-width="1" stroke-linecap="square" stroke-linejoin="round" transform="matrix(1.9995,0,0,1.9995,-0.00959759,179.955)"
font-family="Ubuntu" font-size="11" font-weight="400" font-style="normal" 
>
<path vector-effect="none" fill-rule="evenodd" d="M287.6,-34.29 C319.53,-31.605 353.29,-28.766 383.53,-26.223 "/>
</g>

<g fill="none" stroke="#000000" stroke-opacity="1" stroke-width="1" stroke-linecap="square" stroke-linejoin="bevel" transform="matrix(1.9995,0,0,1.9995,-0.00959759,179.955)"
font-family="Ubuntu" font-size="11" font-weight="400" font-style="normal" 
>
</g>

<g fill="none" stroke="#000000" stroke-opacity="1" stroke-width="1" stroke-linecap="square" stroke-linejoin="bevel" transform="matrix(1.9995,0,0,1.9995,665.076,90.9772)"
font-family="Ubuntu" font-size="11" font-weight="400" font-style="normal" 
>
</g>

<g fill="none" stroke="#000000" stroke-opacity="1" stroke-width="1" stroke-linecap="square" stroke-linejoin="bevel" transform="matrix(1.9995,0,0,1.9995,665.076,90.9772)"
font-family="sans" font-size="11" font-weight="100" font-style="normal" 
>
</g>

<g fill="#000000" fill-opacity="1" stroke="#000000" stroke-opacity="1" stroke-width="1" stroke-linecap="square" stroke-linejoin="round" transform="matrix(1.9995,0,0,1.9995,665.076,90.9772)"
font-family="sans" font-size="11" font-weight="100" font-style="normal" 
>
<path vector-effect="none" fill-rule="nonzero" d="M2.79688,2.98438 L3.70313,2.98438 L0.90625,12.0156 L0,12.0156 L2.79688,2.98438 M7.07813,5.67188 C6.54688,5.67188 6.1276,5.88021 5.82031,6.29688 C5.51302,6.71354 5.35938,7.28125 5.35938,8 C5.35938,8.71875 5.51042,9.28385 5.8125,9.69531 C6.11458,10.1068 6.53646,10.3125 7.07813,10.3125 C7.59896,10.3125 8.01302,10.1068 8.32031,9.69531 C8.6276,9.28385 8.78125,8.71875 8.78125,8 C8.78125,7.28125 8.6276,6.71354 8.32031,6.29688 C8.01302,5.88021 7.59896,5.67188 7.07813,5.67188 M7.07813,4.84375 C7.93229,4.84375 8.60417,5.1224 9.09375,5.67969 C9.58333,6.23698 9.82813,7.01042 9.82813,8 C9.82813,8.97917 9.58333,9.75 9.09375,10.3125 C8.60417,10.875 7.93229,11.1563 7.07813,11.1563 C6.21354,11.1563 5.53646,10.875 5.04688,10.3125 C4.55729,9.75 4.3125,8.97917 4.3125,8 C4.3125,7.01042 4.55729,6.23698 5.04688,5.67969 C5.53646,5.1224 6.21354,4.84375 7.07813,4.84375 M14.9375,5.90625 C14.8333,5.84375 14.7161,5.79688 14.5859,5.76563 C14.4557,5.73438 14.3125,5.71875 14.1563,5.71875 C13.5938,5.71875 13.1641,5.90104 12.8672,6.26563 C12.5703,6.63021 12.4219,7.15104 12.4219,7.82813 L12.4219,11 L11.4219,11 L11.4219,4.98438 L12.4219,4.98438 L12.4219,5.92188 C12.6198,5.55729 12.8854,5.28646 13.2188,5.10938 C13.5521,4.93229 13.9583,4.84375 14.4375,4.84375 C14.5104,4.84375 14.5859,4.84635 14.6641,4.85156 C14.7422,4.85677 14.8333,4.86979 14.9375,4.89063 L14.9375,5.90625 M19.9375,5.89063 L19.9375,2.64063 L20.9219,2.64063 L20.9219,11 L19.9375,11 L19.9375,10.0938 C19.7292,10.4583 19.4661,10.7266 19.1484,10.8984 C18.8307,11.0703 18.4479,11.1563 18,11.1563 C17.2813,11.1563 16.6927,10.8672 16.2344,10.2891 C15.776,9.71094 15.5469,8.94792 15.5469,8 C15.5469,7.05208 15.776,6.28906 16.2344,5.71094 C16.6927,5.13281 17.2813,4.84375 18,4.84375 C18.4479,4.84375 18.8307,4.92969 19.1484,5.10156 C19.4661,5.27344 19.7292,5.53646 19.9375,5.89063 M16.5625,8 C16.5625,8.72917 16.7135,9.29948 17.0156,9.71094 C17.3177,10.1224 17.7292,10.3281 18.25,10.3281 C18.7708,10.3281 19.1823,10.1224 19.4844,9.71094 C19.7865,9.29948 19.9375,8.72917 19.9375,8 C19.9375,7.27083 19.7865,6.70052 19.4844,6.28906 C19.1823,5.8776 18.7708,5.67188 18.25,5.67188 C17.7292,5.67188 17.3177,5.8776 17.0156,6.28906 C16.7135,6.70052 16.5625,7.27083 16.5625,8 M22.9375,4.98438 L23.9375,4.98438 L23.9375,11 L22.9375,11 L22.9375,4.98438 M22.9375,2.64063 L23.9375,2.64063 L23.9375,3.89063 L22.9375,3.89063 L22.9375,2.64063 M30.9844,7.375 L30.9844,11 L30,11 L30,7.40625 C30,6.83333 29.8906,6.40625 29.6719,6.125 C29.4531,5.84375 29.1198,5.70313 28.6719,5.70313 C28.1406,5.70313 27.7214,5.8724 27.4141,6.21094 C27.1068,6.54948 26.9531,7.01042 26.9531,7.59375 L26.9531,11 L25.9531,11 L25.9531,4.98438 L26.9531,4.98438 L26.9531,5.92188 C27.1823,5.55729 27.4583,5.28646 27.7813,5.10938 C28.1042,4.93229 28.474,4.84375 28.8906,4.84375 C29.5781,4.84375 30.099,5.05729 30.4531,5.48438 C30.8073,5.91146 30.9844,6.54167 30.9844,7.375 M38.1094,7.75 L38.1094,8.23438 L33.5625,8.23438 C33.6042,8.91146 33.8073,9.42708 34.1719,9.78125 C34.5365,10.1354 35.0469,10.3125 35.7031,10.3125 C36.0885,10.3125 36.4583,10.2656 36.8125,10.1719 C37.1667,10.0781 37.5208,9.94271 37.875,9.76563 L37.875,10.6875 C37.5208,10.8438 37.1563,10.9609 36.7813,11.0391 C36.4063,11.1172 36.0313,11.1563 35.6563,11.1563 C34.6875,11.1563 33.9245,10.8776 33.3672,10.3203 C32.8099,9.76302 32.5313,9.00521 32.5313,8.04688 C32.5313,7.06771 32.7969,6.28906 33.3281,5.71094 C33.8594,5.13281 34.5781,4.84375 35.4844,4.84375 C36.2865,4.84375 36.9245,5.10417 37.3984,5.625 C37.8724,6.14583 38.1094,6.85417 38.1094,7.75 M37.1094,7.45313 C37.1094,6.91146 36.9609,6.47917 36.6641,6.15625 C36.3672,5.83333 35.974,5.67188 35.4844,5.67188 C34.9323,5.67188 34.4922,5.82813 34.1641,6.14063 C33.8359,6.45313 33.6458,6.89063 33.5938,7.45313 L37.1094,7.45313"/>
</g>

<g fill="none" stroke="#000000" stroke-opacity="1" stroke-width="1" stroke-linecap="square" stroke-linejoin="bevel" transform="matrix(1.9995,0,0,1.9995,665.076,90.9772)"
font-family="sans" font-size="11" font-weight="100" font-style="normal" 
>
</g>

<g fill="none" stroke="#000000" stroke-opacity="1" stroke-width="1" stroke-linecap="square" stroke-linejoin="bevel" transform="matrix(1.9995,0,0,1.9995,665.076,90.9772)"
font-family="Ubuntu" font-size="11" font-weight="400" font-style="normal" 
>
</g>

<g fill="none" stroke="#000000" stroke-opacity="1" stroke-width="1" stroke-linecap="square" stroke-linejoin="bevel" transform="matrix(1.9995,0,0,1.9995,-0.00959759,179.955)"
font-family="Ubuntu" font-size="11" font-weight="400" font-style="normal" 
>
</g>

<g fill="#000000" fill-opacity="1" stroke="#000000" stroke-opacity="1" stroke-width="1" stroke-linecap="square" stroke-linejoin="round" transform="matrix(1.9995,0,0,1.9995,-0.00959759,179.955)"
font-family="Ubuntu" font-size="11" font-weight="400" font-style="normal" 
>
<path vector-effect="none" fill-rule="evenodd" d="M383.53,-26.223 L383.232,-22.6845 L393.64,-25.373 L383.827,-29.7615 L383.53,-26.223"/>
</g>

<g fill="none" stroke="#000000" stroke-opacity="1" stroke-width="1" stroke-linecap="square" stroke-linejoin="bevel" transform="matrix(1.9995,0,0,1.9995,-0.00959759,179.955)"
font-family="Ubuntu" font-size="11" font-weight="400" font-style="normal" 
>
</g>

<g fill="none" stroke="#000000" stroke-opacity="1" stroke-width="1" stroke-linecap="square" stroke-linejoin="bevel" transform="matrix(1,0,0,1,0,0)"
font-family="Ubuntu" font-size="11" font-weight="400" font-style="normal" 
>
</g>
</g>
</svg>
